{"glyphs":{"0":{"ha":764,"x_min":63,"x_max":701,"o":"m 540 917 l 701 660 l 701 243 l 540 -14 l 224 -14 l 63 243 l 63 660 l 224 917 l 540 917 m 486 97 l 590 286 l 590 617 l 486 806 l 278 806 l 174 617 l 174 286 l 278 97 l 486 97 z "},"1":{"ha":764,"x_min":111,"x_max":653,"o":"m 553 104 q 653 53 653 104 q 382 0 653 0 q 111 53 111 0 q 226 104 111 104 q 340 451 340 104 q 233 799 340 799 q 125 851 125 799 q 289 903 125 903 q 451 504 451 903 q 553 104 451 104 z "},"2":{"ha":764,"x_min":117,"x_max":646,"o":"m 446 104 q 646 53 646 104 q 382 0 646 0 q 118 53 118 0 l 118 104 q 124 112 118 104 q 143 133 131 119 q 190 190 142 132 q 332 361 238 247 l 463 528 l 511 622 l 511 735 l 432 813 l 307 813 l 218 733 q 169 672 218 672 q 127 676 138 672 q 118 697 117 679 q 119 756 119 714 l 188 858 l 303 917 l 446 917 l 560 853 l 622 742 l 622 614 l 558 483 l 469 368 q 405 292 432 324 q 361 242 378 261 q 348 226 363 243 q 304 174 333 208 q 446 104 246 104 z "},"3":{"ha":764,"x_min":114,"x_max":646,"o":"m 646 447 l 646 176 l 578 56 l 457 -14 l 307 -14 l 188 50 l 117 160 q 115 222 117 204 q 124 244 114 240 q 167 247 135 247 q 215 181 215 247 l 310 90 l 450 90 l 535 178 l 535 326 l 440 418 l 322 418 q 282 469 282 418 q 322 519 282 519 l 439 519 l 522 601 l 522 735 l 439 813 l 313 813 l 228 733 q 179 672 228 672 q 136 676 146 672 q 128 698 126 681 q 129 757 129 715 l 196 858 l 308 917 l 451 917 l 568 853 l 633 740 l 633 575 l 533 485 q 646 447 440 475 z "},"4":{"ha":764,"x_min":72,"x_max":693,"o":"m 693 254 q 629 201 693 201 q 565 101 565 201 q 510 0 565 0 q 454 101 454 0 q 264 201 454 201 q 72 254 72 201 q 92 312 72 269 q 146 413 113 354 q 221 539 179 472 q 306 669 263 606 q 391 786 350 733 q 463 871 432 839 q 510 903 494 903 q 565 604 565 903 q 629 306 565 306 q 693 254 693 306 m 325 306 q 454 511 454 306 q 438 586 454 569 q 399 590 422 603 q 349 544 375 576 q 303 472 324 513 q 274 394 282 432 q 277 331 267 356 q 325 306 288 306 z "},"5":{"ha":764,"x_min":90,"x_max":674,"o":"m 479 583 l 601 508 l 674 372 l 674 194 l 594 58 l 464 -14 l 313 -14 l 179 53 l 96 176 q 146 260 90 260 q 210 182 201 260 l 313 94 l 432 94 l 513 139 l 563 225 l 563 342 l 515 429 l 439 475 l 338 475 l 249 424 q 169 371 222 360 q 140 415 153 375 q 125 515 128 454 q 133 642 122 575 q 170 769 143 710 q 246 865 197 828 q 368 903 294 903 q 589 851 589 903 q 419 799 589 799 q 240 629 251 799 q 239 518 235 544 q 254 522 243 492 l 347 583 l 479 583 z "},"6":{"ha":764,"x_min":86,"x_max":678,"o":"m 481 583 l 604 511 l 678 378 l 678 199 l 597 60 l 460 -14 l 297 -14 l 164 57 l 86 188 l 86 346 q 113 417 103 389 q 129 457 124 444 l 308 835 q 400 903 339 903 q 363 708 461 903 q 328 583 264 513 l 481 583 m 567 375 l 464 476 l 301 476 l 197 363 l 197 192 l 301 93 l 457 93 l 567 199 l 567 375 z "},"7":{"ha":764,"x_min":125,"x_max":640,"o":"m 383 903 q 640 851 640 903 q 624 783 640 836 q 581 653 608 731 q 519 487 553 575 q 448 313 485 399 q 377 156 411 226 q 316 42 343 85 q 274 0 289 0 q 374 400 218 0 q 326 799 528 799 q 125 851 125 799 q 383 903 125 903 z "},"8":{"ha":764,"x_min":90,"x_max":674,"o":"m 585 449 l 674 333 l 674 175 l 604 56 l 472 -14 l 292 -14 l 160 56 l 90 175 l 90 333 l 179 449 q 188 497 254 475 l 110 594 l 110 742 l 176 853 l 299 917 l 465 917 l 588 853 l 654 742 l 654 594 l 576 497 q 585 449 510 475 m 310 813 l 221 735 l 221 610 l 311 526 l 453 526 l 543 610 l 543 735 l 454 813 l 310 813 m 464 90 l 563 179 l 563 319 l 464 411 l 300 411 l 201 319 l 201 179 l 300 90 l 464 90 z "},"9":{"ha":764,"x_min":86,"x_max":678,"o":"m 467 917 l 600 846 l 678 715 l 678 557 q 651 486 661 514 q 635 446 640 458 l 456 68 q 364 0 425 0 q 401 194 303 0 q 436 319 500 390 l 286 319 l 161 393 l 86 526 l 86 706 l 167 843 l 304 917 l 467 917 m 463 426 l 567 540 l 567 711 l 463 810 l 307 810 l 197 704 l 197 528 l 300 426 l 463 426 z "},"A":{"ha":764,"x_min":86,"x_max":678,"o":"m 663 0 q 619 24 639 0 q 583 83 599 47 q 556 153 567 118 q 539 213 544 189 q 533 236 533 236 l 381 236 q 193 118 228 236 q 100 0 158 0 q 87 39 86 0 q 100 143 88 78 q 134 290 113 208 q 182 458 156 371 q 237 627 208 546 q 293 774 265 708 q 344 878 321 839 q 381 917 367 917 q 418 878 396 917 q 468 774 440 839 q 525 627 496 708 q 581 458 554 546 q 628 290 607 371 q 663 143 650 208 q 677 39 676 78 q 663 0 678 0 m 381 342 q 442 550 503 342 q 319 550 381 758 q 381 342 260 342 z "},"Á":{"ha":764,"x_min":86,"x_max":678,"o":"m 663 0 q 619 24 639 0 q 583 83 599 47 q 556 153 567 118 q 539 213 544 189 q 533 236 533 236 l 381 236 q 193 118 228 236 q 100 0 158 0 q 87 39 86 0 q 100 143 88 78 q 134 290 113 208 q 182 458 156 371 q 237 627 208 546 q 293 774 265 708 q 344 878 321 839 q 381 917 367 917 q 418 878 396 917 q 468 774 440 839 q 525 627 496 708 q 581 458 554 546 q 628 290 607 371 q 663 143 650 208 q 677 39 676 78 q 663 0 678 0 m 381 342 q 442 550 503 342 q 319 550 381 758 q 381 342 260 342 m 424 1114 q 546 1183 500 1163 q 604 1188 592 1204 q 581 1133 615 1171 q 472 1047 546 1096 q 351 977 397 997 q 293 974 306 957 q 316 1028 282 990 q 424 1114 350 1065 z "},"Ă":{"ha":764,"x_min":86,"x_max":678,"o":"m 663 0 q 619 24 639 0 q 583 83 599 47 q 556 153 567 118 q 539 213 544 189 q 533 236 533 236 l 381 236 q 193 118 228 236 q 100 0 158 0 q 87 39 86 0 q 100 143 88 78 q 134 290 113 208 q 182 458 156 371 q 237 627 208 546 q 293 774 265 708 q 344 878 321 839 q 381 917 367 917 q 418 878 396 917 q 468 774 440 839 q 525 627 496 708 q 581 458 554 546 q 628 290 607 371 q 663 143 650 208 q 677 39 676 78 q 663 0 678 0 m 381 342 q 442 550 503 342 q 319 550 381 758 q 381 342 260 342 m 457 1068 l 506 1118 q 519 1153 506 1139 q 561 1167 533 1167 q 603 1151 589 1167 q 617 1113 617 1136 l 546 1029 l 463 978 l 303 978 l 219 1029 l 149 1113 q 163 1151 149 1136 q 204 1167 176 1167 q 246 1153 232 1167 q 260 1118 260 1139 l 307 1068 l 457 1068 z "},"Â":{"ha":764,"x_min":86,"x_max":678,"o":"m 663 0 q 619 24 639 0 q 583 83 599 47 q 556 153 567 118 q 539 213 544 189 q 533 236 533 236 l 381 236 q 193 118 228 236 q 100 0 158 0 q 87 39 86 0 q 100 143 88 78 q 134 290 113 208 q 182 458 156 371 q 237 627 208 546 q 293 774 265 708 q 344 878 321 839 q 381 917 367 917 q 418 878 396 917 q 468 774 440 839 q 525 627 496 708 q 581 458 554 546 q 628 290 607 371 q 663 143 650 208 q 677 39 676 78 q 663 0 678 0 m 381 342 q 442 550 503 342 q 319 550 381 758 q 381 342 260 342 m 526 1107 q 613 1014 592 1049 q 623 970 635 979 q 576 976 611 961 q 496 1033 542 992 q 417 1087 451 1074 q 348 1087 382 1100 q 269 1033 314 1074 q 189 976 224 992 q 142 969 154 960 q 151 1014 131 979 q 238 1107 172 1049 q 382 1176 314 1176 q 526 1107 450 1176 z "},"Ä":{"ha":764,"x_min":86,"x_max":678,"o":"m 663 0 q 619 24 639 0 q 583 83 599 47 q 556 153 567 118 q 539 213 544 189 q 533 236 533 236 l 381 236 q 193 118 228 236 q 100 0 158 0 q 87 39 86 0 q 100 143 88 78 q 134 290 113 208 q 182 458 156 371 q 237 627 208 546 q 293 774 265 708 q 344 878 321 839 q 381 917 367 917 q 418 878 396 917 q 468 774 440 839 q 525 627 496 708 q 581 458 554 546 q 628 290 607 371 q 663 143 650 208 q 677 39 676 78 q 663 0 678 0 m 381 342 q 442 550 503 342 q 319 550 381 758 q 381 342 260 342 m 326 1099 q 254 1031 326 1031 q 182 1099 182 1031 q 254 1167 182 1167 q 326 1099 326 1167 m 574 1099 q 501 1031 574 1031 q 429 1099 429 1031 q 501 1167 429 1167 q 574 1099 574 1167 z "},"À":{"ha":764,"x_min":86,"x_max":678,"o":"m 663 0 q 619 24 639 0 q 583 83 599 47 q 556 153 567 118 q 539 213 544 189 q 533 236 533 236 l 381 236 q 193 118 228 236 q 100 0 158 0 q 87 39 86 0 q 100 143 88 78 q 134 290 113 208 q 182 458 156 371 q 237 627 208 546 q 293 774 265 708 q 344 878 321 839 q 381 917 367 917 q 418 878 396 917 q 468 774 440 839 q 525 627 496 708 q 581 458 554 546 q 628 290 607 371 q 663 143 650 208 q 677 39 676 78 q 663 0 678 0 m 381 342 q 442 550 503 342 q 319 550 381 758 q 381 342 260 342 m 471 974 q 413 977 458 957 q 292 1047 367 997 q 183 1133 218 1096 q 160 1188 149 1171 q 218 1183 172 1204 q 340 1114 264 1163 q 448 1028 414 1065 q 471 974 482 990 z "},"Ā":{"ha":764,"x_min":86,"x_max":678,"o":"m 663 0 q 619 24 639 0 q 583 83 599 47 q 556 153 567 118 q 539 213 544 189 q 533 236 533 236 l 381 236 q 193 118 228 236 q 100 0 158 0 q 87 39 86 0 q 100 143 88 78 q 134 290 113 208 q 182 458 156 371 q 237 627 208 546 q 293 774 265 708 q 344 878 321 839 q 381 917 367 917 q 418 878 396 917 q 468 774 440 839 q 525 627 496 708 q 581 458 554 546 q 628 290 607 371 q 663 143 650 208 q 677 39 676 78 q 663 0 678 0 m 381 342 q 442 550 503 342 q 319 550 381 758 q 381 342 260 342 m 382 1110 q 590 1068 590 1110 q 382 1026 590 1026 q 174 1068 174 1026 q 382 1110 174 1110 z "},"Ą":{"ha":764,"x_min":86,"x_max":810,"o":"m 760 -171 q 810 -233 804 -171 l 717 -319 l 572 -319 l 488 -237 l 488 -106 l 540 -29 q 574 14 558 -4 q 603 44 589 32 q 566 124 582 79 q 542 203 550 169 q 533 236 533 236 l 381 236 q 193 118 228 236 q 100 0 158 0 q 87 39 86 0 q 100 143 88 78 q 134 290 113 208 q 182 458 156 371 q 237 627 208 546 q 293 774 265 708 q 344 878 321 839 q 381 917 367 917 q 418 878 396 917 q 468 774 440 839 q 525 627 496 708 q 581 458 554 546 q 628 290 607 371 q 663 143 650 208 q 677 39 676 78 q 663 0 678 0 l 660 0 q 643 -29 653 -14 q 619 -61 633 -44 l 582 -108 l 582 -229 l 683 -229 l 717 -192 q 760 -171 717 -171 m 381 342 q 442 550 503 342 q 319 550 381 758 q 381 342 260 342 z "},"Å":{"ha":764,"x_min":86,"x_max":678,"o":"m 663 0 q 619 24 639 0 q 583 83 599 47 q 556 153 567 118 q 539 213 544 189 q 533 236 533 236 l 381 236 q 193 118 228 236 q 100 0 158 0 q 87 39 86 0 q 100 143 88 78 q 134 290 113 208 q 182 458 156 371 q 237 627 208 546 q 293 774 265 708 q 344 878 321 839 q 381 917 367 917 q 418 878 396 917 q 468 774 440 839 q 525 627 496 708 q 581 458 554 546 q 628 290 607 371 q 663 143 650 208 q 677 39 676 78 q 663 0 678 0 m 381 342 q 442 550 503 342 q 319 550 381 758 q 381 342 260 342 m 310 971 l 208 1060 l 208 1176 l 310 1264 l 454 1264 l 556 1176 l 556 1060 l 454 971 l 310 971 m 413 1047 l 471 1086 l 471 1150 l 413 1188 l 351 1188 l 293 1150 l 293 1086 l 351 1047 l 413 1047 z "},"Ã":{"ha":764,"x_min":86,"x_max":678,"o":"m 663 0 q 619 24 639 0 q 583 83 599 47 q 556 153 567 118 q 539 213 544 189 q 533 236 533 236 l 381 236 q 193 118 228 236 q 100 0 158 0 q 87 39 86 0 q 100 143 88 78 q 134 290 113 208 q 182 458 156 371 q 237 627 208 546 q 293 774 265 708 q 344 878 321 839 q 381 917 367 917 q 418 878 396 917 q 468 774 440 839 q 525 627 496 708 q 581 458 554 546 q 628 290 607 371 q 663 143 650 208 q 677 39 676 78 q 663 0 678 0 m 381 342 q 442 550 503 342 q 319 550 381 758 q 381 342 260 342 m 606 1147 q 654 1136 651 1147 l 654 1050 l 578 983 l 475 983 l 413 999 q 376 1025 393 1013 q 344 1047 360 1038 l 301 1083 l 243 1083 l 206 1026 q 160 997 206 997 q 113 1008 115 997 l 113 1094 l 193 1161 l 304 1161 l 368 1146 q 439 1096 408 1119 l 479 1061 l 560 1061 q 572 1122 560 1097 q 606 1147 583 1147 z "},"Æ":{"ha":764,"x_min":83,"x_max":694,"o":"m 594 104 q 694 53 694 104 q 539 0 694 0 q 382 126 382 0 q 306 251 382 251 q 194 126 231 251 q 100 0 160 0 q 85 38 86 0 q 94 141 83 76 q 127 285 106 206 q 178 451 149 365 q 245 617 208 538 q 324 762 282 697 q 411 865 365 826 q 504 903 457 903 q 693 851 693 903 q 593 799 693 799 q 493 650 493 799 q 563 501 493 501 q 632 450 632 501 q 563 397 632 397 q 493 251 493 397 q 594 104 493 104 m 319 349 q 382 568 382 349 q 319 568 382 788 q 319 349 257 349 z "},"B":{"ha":764,"x_min":63,"x_max":689,"o":"m 689 133 l 535 7 q 437 2 469 4 q 404 0 404 0 l 233 0 q 63 451 63 0 q 213 903 63 903 l 503 903 l 660 775 l 660 568 l 561 471 q 518 457 515 464 q 572 444 521 450 l 689 354 l 689 133 m 268 794 q 174 649 174 794 q 261 501 174 501 l 444 501 l 550 581 l 550 728 l 449 794 l 268 794 m 578 108 l 578 333 l 450 393 l 261 393 q 174 251 174 393 q 275 108 174 108 l 578 108 z "},"C":{"ha":764,"x_min":49,"x_max":715,"o":"m 701 151 l 549 -14 l 222 -14 l 49 231 l 49 672 l 222 917 l 549 917 l 704 751 q 664 599 715 599 q 593 707 613 599 l 496 813 l 276 813 l 160 629 l 160 272 l 276 90 l 496 90 l 589 196 q 650 301 597 301 q 701 151 701 301 z "},"Ć":{"ha":764,"x_min":49,"x_max":715,"o":"m 701 151 l 549 -14 l 222 -14 l 49 231 l 49 672 l 222 917 l 549 917 l 704 751 q 664 599 715 599 q 593 707 613 599 l 496 813 l 276 813 l 160 629 l 160 272 l 276 90 l 496 90 l 589 196 q 650 301 597 301 q 701 151 701 301 m 424 1114 q 546 1183 500 1163 q 604 1188 592 1204 q 581 1133 615 1171 q 472 1047 546 1096 q 351 977 397 997 q 293 974 306 957 q 316 1028 282 990 q 424 1114 350 1065 z "},"Č":{"ha":764,"x_min":49,"x_max":715,"o":"m 701 151 l 549 -14 l 222 -14 l 49 231 l 49 672 l 222 917 l 549 917 l 704 751 q 664 599 715 599 q 593 707 613 599 l 496 813 l 276 813 l 160 629 l 160 272 l 276 90 l 496 90 l 589 196 q 650 301 597 301 q 701 151 701 301 m 526 1049 q 382 981 450 981 q 238 1049 314 981 q 151 1142 172 1107 q 142 1186 131 1176 q 189 1180 154 1196 q 269 1122 224 1164 q 348 1069 314 1082 q 417 1069 382 1056 q 496 1122 451 1082 q 576 1179 542 1164 q 623 1185 611 1194 q 613 1142 635 1176 q 526 1049 592 1107 z "},"Ç":{"ha":764,"x_min":49,"x_max":715,"o":"m 650 301 q 701 151 701 301 l 549 -14 l 426 -14 q 439 -27 433 -19 q 450 -43 444 -35 l 503 -119 l 503 -251 l 418 -333 l 274 -333 l 181 -247 q 231 -185 188 -185 q 274 -206 274 -185 l 307 -243 l 408 -243 l 408 -122 l 371 -75 q 339 -14 343 -39 l 222 -14 l 49 231 l 49 672 l 222 917 l 549 917 l 704 751 q 664 599 715 599 q 593 707 613 599 l 496 813 l 276 813 l 160 629 l 160 272 l 276 90 l 496 90 l 589 196 q 650 301 597 301 z "},"Ċ":{"ha":764,"x_min":49,"x_max":715,"o":"m 701 151 l 549 -14 l 222 -14 l 49 231 l 49 672 l 222 917 l 549 917 l 704 751 q 664 599 715 599 q 593 707 613 599 l 496 813 l 276 813 l 160 629 l 160 272 l 276 90 l 496 90 l 589 196 q 650 301 597 301 q 701 151 701 301 m 454 1114 q 382 1046 454 1046 q 310 1114 310 1046 q 382 1181 310 1181 q 454 1114 454 1181 z "},"D":{"ha":764,"x_min":63,"x_max":715,"o":"m 715 647 l 715 256 l 514 0 l 176 0 q 63 451 63 0 q 176 903 63 903 l 514 903 l 715 647 m 469 107 l 606 301 l 606 608 l 471 796 l 232 796 q 174 451 174 796 q 232 107 174 107 l 469 107 z "},"Ð":{"ha":764,"x_min":-35,"x_max":715,"o":"m 715 647 l 715 256 l 514 0 l 176 0 q 63 451 63 0 q 176 903 63 903 l 514 903 l 715 647 m 469 107 l 606 301 l 606 608 l 471 796 l 232 796 q 174 451 174 796 q 232 107 174 107 l 469 107 m 174 493 q 382 451 382 493 q 174 410 382 410 q -35 451 -35 410 q 174 493 -35 493 z "},"Ď":{"ha":764,"x_min":63,"x_max":715,"o":"m 715 647 l 715 256 l 514 0 l 176 0 q 63 451 63 0 q 176 903 63 903 l 514 903 l 715 647 m 469 107 l 606 301 l 606 608 l 471 796 l 232 796 q 174 451 174 796 q 232 107 174 107 l 469 107 m 526 1049 q 382 981 450 981 q 238 1049 314 981 q 151 1142 172 1107 q 142 1186 131 1176 q 189 1180 154 1196 q 269 1122 224 1164 q 348 1069 314 1082 q 417 1069 382 1056 q 496 1122 451 1082 q 576 1179 542 1164 q 623 1185 611 1194 q 613 1142 635 1176 q 526 1049 592 1107 z "},"Đ":{"ha":764,"x_min":-35,"x_max":715,"o":"m 715 647 l 715 256 l 514 0 l 176 0 q 63 451 63 0 q 176 903 63 903 l 514 903 l 715 647 m 469 107 l 606 301 l 606 608 l 471 796 l 232 796 q 174 451 174 796 q 232 107 174 107 l 469 107 m 174 493 q 382 451 382 493 q 174 410 382 410 q -35 451 -35 410 q 174 493 -35 493 z "},"E":{"ha":764,"x_min":63,"x_max":703,"o":"m 439 104 q 703 53 703 104 q 383 0 703 0 q 63 451 63 0 q 382 903 63 903 q 701 851 701 903 q 438 799 701 799 q 174 650 174 799 q 390 501 174 501 q 606 450 606 501 q 390 397 606 397 q 174 251 174 397 q 439 104 174 104 z "},"É":{"ha":764,"x_min":63,"x_max":703,"o":"m 439 104 q 703 53 703 104 q 383 0 703 0 q 63 451 63 0 q 382 903 63 903 q 701 851 701 903 q 438 799 701 799 q 174 650 174 799 q 390 501 174 501 q 606 450 606 501 q 390 397 606 397 q 174 251 174 397 q 439 104 174 104 m 465 1114 q 588 1183 542 1163 q 646 1188 633 1204 q 622 1133 657 1171 q 514 1047 588 1096 q 393 977 439 997 q 335 974 347 957 q 358 1028 324 990 q 465 1114 392 1065 z "},"Ě":{"ha":764,"x_min":63,"x_max":703,"o":"m 439 104 q 703 53 703 104 q 383 0 703 0 q 63 451 63 0 q 382 903 63 903 q 701 851 701 903 q 438 799 701 799 q 174 650 174 799 q 390 501 174 501 q 606 450 606 501 q 390 397 606 397 q 174 251 174 397 q 439 104 174 104 m 568 1049 q 424 981 492 981 q 279 1049 356 981 q 193 1142 214 1107 q 184 1186 172 1176 q 231 1180 196 1196 q 311 1122 265 1164 q 390 1069 356 1082 q 458 1069 424 1056 q 538 1122 493 1082 q 618 1179 583 1164 q 665 1185 653 1194 q 655 1142 676 1176 q 568 1049 633 1107 z "},"Ê":{"ha":764,"x_min":63,"x_max":703,"o":"m 439 104 q 703 53 703 104 q 383 0 703 0 q 63 451 63 0 q 382 903 63 903 q 701 851 701 903 q 438 799 701 799 q 174 650 174 799 q 390 501 174 501 q 606 450 606 501 q 390 397 606 397 q 174 251 174 397 q 439 104 174 104 m 568 1107 q 655 1014 633 1049 q 665 970 676 979 q 618 976 653 961 q 538 1033 583 992 q 458 1087 493 1074 q 390 1087 424 1100 q 311 1033 356 1074 q 231 976 265 992 q 184 969 196 960 q 193 1014 172 979 q 279 1107 214 1049 q 424 1176 356 1176 q 568 1107 492 1176 z "},"Ë":{"ha":764,"x_min":63,"x_max":703,"o":"m 439 104 q 703 53 703 104 q 383 0 703 0 q 63 451 63 0 q 382 903 63 903 q 701 851 701 903 q 438 799 701 799 q 174 650 174 799 q 390 501 174 501 q 606 450 606 501 q 390 397 606 397 q 174 251 174 397 q 439 104 174 104 m 332 1099 q 260 1031 332 1031 q 188 1099 188 1031 q 260 1167 188 1167 q 332 1099 332 1167 m 579 1099 q 507 1031 579 1031 q 435 1099 435 1031 q 507 1167 435 1167 q 579 1099 579 1167 z "},"Ė":{"ha":764,"x_min":63,"x_max":703,"o":"m 439 104 q 703 53 703 104 q 383 0 703 0 q 63 451 63 0 q 382 903 63 903 q 701 851 701 903 q 438 799 701 799 q 174 650 174 799 q 390 501 174 501 q 606 450 606 501 q 390 397 606 397 q 174 251 174 397 q 439 104 174 104 m 496 1114 q 424 1046 496 1046 q 351 1114 351 1046 q 424 1181 351 1181 q 496 1114 496 1181 z "},"È":{"ha":764,"x_min":63,"x_max":703,"o":"m 439 104 q 703 53 703 104 q 383 0 703 0 q 63 451 63 0 q 382 903 63 903 q 701 851 701 903 q 438 799 701 799 q 174 650 174 799 q 390 501 174 501 q 606 450 606 501 q 390 397 606 397 q 174 251 174 397 q 439 104 174 104 m 513 974 q 454 977 500 957 q 333 1047 408 997 q 225 1133 260 1096 q 201 1188 190 1171 q 260 1183 214 1204 q 382 1114 306 1163 q 490 1028 456 1065 q 513 974 524 990 z "},"Ē":{"ha":764,"x_min":63,"x_max":703,"o":"m 439 104 q 703 53 703 104 q 383 0 703 0 q 63 451 63 0 q 382 903 63 903 q 701 851 701 903 q 438 799 701 799 q 174 650 174 799 q 390 501 174 501 q 606 450 606 501 q 390 397 606 397 q 174 251 174 397 q 439 104 174 104 m 424 1110 q 632 1068 632 1110 q 424 1026 632 1026 q 215 1068 215 1026 q 424 1110 215 1110 z "},"Ę":{"ha":764,"x_min":63,"x_max":835,"o":"m 785 -171 q 835 -233 829 -171 l 742 -319 l 597 -319 l 513 -237 l 513 -106 l 565 -29 q 580 -8 572 -18 q 594 10 588 1 q 503 2 556 4 q 383 0 450 0 q 63 451 63 0 q 382 903 63 903 q 701 851 701 903 q 438 799 701 799 q 174 650 174 799 q 390 501 174 501 q 606 450 606 501 q 390 397 606 397 q 174 251 174 397 q 439 104 174 104 q 692 72 649 104 q 696 69 694 69 q 703 53 703 60 q 700 43 703 49 q 644 -61 696 4 l 607 -108 l 607 -229 l 708 -229 l 742 -192 q 785 -171 742 -171 z "},"F":{"ha":764,"x_min":63,"x_max":701,"o":"m 438 796 q 174 650 174 796 q 390 503 174 503 q 606 450 606 503 q 390 396 606 396 q 174 199 174 396 q 118 0 174 0 q 63 451 63 0 q 382 903 63 903 q 701 850 701 903 q 438 796 701 796 z "},"G":{"ha":764,"x_min":49,"x_max":701,"o":"m 701 217 q 654 0 701 0 q 607 113 607 0 q 593 177 610 208 q 506 -14 576 146 l 203 -14 l 49 233 l 49 671 l 217 917 l 519 917 l 671 750 q 639 599 688 599 q 576 704 590 599 l 479 810 l 160 810 l 160 278 l 261 93 l 435 93 l 540 207 q 488 331 572 332 q 401 381 401 328 q 551 432 401 432 q 701 217 701 432 z "},"Ğ":{"ha":764,"x_min":49,"x_max":701,"o":"m 701 217 q 654 0 701 0 q 607 113 607 0 q 593 177 610 208 q 506 -14 576 146 l 203 -14 l 49 233 l 49 671 l 217 917 l 519 917 l 671 750 q 639 599 688 599 q 576 704 590 599 l 479 810 l 160 810 l 160 278 l 261 93 l 435 93 l 540 207 q 488 331 572 332 q 401 381 401 328 q 551 432 401 432 q 701 217 701 432 m 450 1068 l 499 1118 q 513 1153 499 1139 q 554 1167 526 1167 q 596 1151 582 1167 q 610 1113 610 1136 l 539 1029 l 456 978 l 296 978 l 213 1029 l 142 1113 q 156 1151 142 1136 q 197 1167 169 1167 q 239 1153 225 1167 q 253 1118 253 1139 l 300 1068 l 450 1068 z "},"Ģ":{"ha":764,"x_min":49,"x_max":701,"o":"m 701 217 q 654 0 701 0 q 607 113 607 0 q 593 177 610 208 q 506 -14 576 146 l 203 -14 l 49 233 l 49 671 l 217 917 l 519 917 l 671 750 q 639 599 688 599 q 576 704 590 599 l 479 810 l 160 810 l 160 278 l 261 93 l 435 93 l 540 207 q 488 331 572 332 q 401 381 401 328 q 551 432 401 432 q 701 217 701 432 m 447 -210 q 375 -278 447 -278 q 303 -210 303 -278 q 375 -142 303 -142 q 447 -210 447 -142 z "},"Ġ":{"ha":764,"x_min":49,"x_max":701,"o":"m 701 217 q 654 0 701 0 q 607 113 607 0 q 593 177 610 208 q 506 -14 576 146 l 203 -14 l 49 233 l 49 671 l 217 917 l 519 917 l 671 750 q 639 599 688 599 q 576 704 590 599 l 479 810 l 160 810 l 160 278 l 261 93 l 435 93 l 540 207 q 488 331 572 332 q 401 381 401 328 q 551 432 401 432 q 701 217 701 432 m 447 1114 q 375 1046 447 1046 q 303 1114 303 1046 q 375 1181 303 1181 q 447 1114 447 1181 z "},"H":{"ha":764,"x_min":63,"x_max":701,"o":"m 646 903 q 701 451 701 903 q 646 0 701 0 q 590 200 590 0 q 382 399 590 399 q 174 200 174 399 q 118 0 174 0 q 63 451 63 0 q 118 903 63 903 q 174 703 174 903 q 382 503 174 503 q 590 703 590 503 q 646 903 590 903 z "},"Ħ":{"ha":764,"x_min":14,"x_max":750,"o":"m 750 653 q 726 600 750 600 q 701 300 701 600 q 646 0 701 0 q 590 200 590 0 q 382 399 590 399 q 174 200 174 399 q 118 0 174 0 q 63 300 63 0 q 39 600 63 600 q 14 653 14 600 q 39 704 14 704 q 63 804 63 704 q 118 903 63 903 q 174 804 174 903 q 382 704 174 704 q 590 804 590 704 q 646 903 590 903 q 701 804 701 903 q 726 704 701 704 q 750 653 750 704 m 590 551 q 382 600 590 600 q 174 551 174 600 q 382 503 174 503 q 590 551 590 503 z "},"I":{"ha":764,"x_min":146,"x_max":618,"o":"m 528 799 q 438 451 438 799 q 528 104 438 104 q 618 53 618 104 q 528 0 618 0 l 236 0 q 146 53 146 0 q 236 104 146 104 q 326 451 326 104 q 236 799 326 799 q 146 851 146 799 q 382 903 146 903 q 618 851 618 903 q 528 799 618 799 z "},"Ĳ":{"ha":764,"x_min":61,"x_max":674,"o":"m 618 903 q 674 604 674 903 l 674 214 l 601 68 l 469 -14 l 243 -14 l 68 133 q 114 261 61 261 q 178 181 164 261 l 293 94 l 467 94 l 563 211 l 563 604 q 618 903 563 903 m 183 635 q 128 365 183 365 q 72 635 72 365 q 128 903 72 903 q 183 635 183 903 z "},"Í":{"ha":764,"x_min":146,"x_max":618,"o":"m 528 799 q 438 451 438 799 q 528 104 438 104 q 618 53 618 104 q 528 0 618 0 l 236 0 q 146 53 146 0 q 236 104 146 104 q 326 451 326 104 q 236 799 326 799 q 146 851 146 799 q 382 903 146 903 q 618 851 618 903 q 528 799 618 799 m 424 1114 q 546 1183 500 1163 q 604 1188 592 1204 q 581 1133 615 1171 q 472 1047 546 1096 q 351 977 397 997 q 293 974 306 957 q 316 1028 282 990 q 424 1114 350 1065 z "},"Î":{"ha":764,"x_min":131,"x_max":635,"o":"m 528 799 q 438 451 438 799 q 528 104 438 104 q 618 53 618 104 q 528 0 618 0 l 236 0 q 146 53 146 0 q 236 104 146 104 q 326 451 326 104 q 236 799 326 799 q 146 851 146 799 q 382 903 146 903 q 618 851 618 903 q 528 799 618 799 m 526 1107 q 613 1014 592 1049 q 623 970 635 979 q 576 976 611 961 q 496 1033 542 992 q 417 1087 451 1074 q 348 1087 382 1100 q 269 1033 314 1074 q 189 976 224 992 q 142 969 154 960 q 151 1014 131 979 q 238 1107 172 1049 q 382 1176 314 1176 q 526 1107 450 1176 z "},"Ï":{"ha":764,"x_min":146,"x_max":618,"o":"m 528 799 q 438 451 438 799 q 528 104 438 104 q 618 53 618 104 q 528 0 618 0 l 236 0 q 146 53 146 0 q 236 104 146 104 q 326 451 326 104 q 236 799 326 799 q 146 851 146 799 q 382 903 146 903 q 618 851 618 903 q 528 799 618 799 m 331 1099 q 258 1031 331 1031 q 186 1099 186 1031 q 258 1167 186 1167 q 331 1099 331 1167 m 578 1099 q 506 1031 578 1031 q 433 1099 433 1031 q 506 1167 433 1167 q 578 1099 578 1167 z "},"Ì":{"ha":764,"x_min":146,"x_max":618,"o":"m 528 799 q 438 451 438 799 q 528 104 438 104 q 618 53 618 104 q 528 0 618 0 l 236 0 q 146 53 146 0 q 236 104 146 104 q 326 451 326 104 q 236 799 326 799 q 146 851 146 799 q 382 903 146 903 q 618 851 618 903 q 528 799 618 799 m 471 974 q 413 977 458 957 q 292 1047 367 997 q 183 1133 218 1096 q 160 1188 149 1171 q 218 1183 172 1204 q 340 1114 264 1163 q 448 1028 414 1065 q 471 974 482 990 z "},"Ī":{"ha":764,"x_min":146,"x_max":618,"o":"m 528 799 q 438 451 438 799 q 528 104 438 104 q 618 53 618 104 q 528 0 618 0 l 236 0 q 146 53 146 0 q 236 104 146 104 q 326 451 326 104 q 236 799 326 799 q 146 851 146 799 q 382 903 146 903 q 618 851 618 903 q 528 799 618 799 m 382 1110 q 590 1068 590 1110 q 382 1026 590 1026 q 174 1068 174 1026 q 382 1110 174 1110 z "},"Į":{"ha":764,"x_min":146,"x_max":710,"o":"m 660 -185 q 710 -247 704 -185 l 617 -333 l 472 -333 l 388 -251 l 388 -119 l 440 -43 q 457 -20 449 -31 q 474 0 465 -10 l 236 0 q 146 53 146 0 q 236 104 146 104 q 326 451 326 104 q 236 799 326 799 q 146 851 146 799 q 382 903 146 903 q 618 851 618 903 q 528 799 618 799 q 438 451 438 799 q 528 104 438 104 q 618 53 618 104 q 568 3 618 14 q 519 -75 556 -28 l 482 -122 l 482 -243 l 583 -243 l 617 -206 q 660 -185 617 -185 z "},"J":{"ha":764,"x_min":61,"x_max":674,"o":"m 618 903 q 674 604 674 903 l 674 214 l 601 68 l 469 -14 l 243 -14 l 68 133 q 114 261 61 261 q 178 181 164 261 l 293 94 l 467 94 l 563 211 l 563 604 q 618 903 563 903 z "},"K":{"ha":764,"x_min":63,"x_max":736,"o":"m 663 0 q 382 236 589 0 q 174 236 174 472 q 118 0 174 0 q 63 451 63 0 q 118 903 63 903 q 174 688 174 903 q 351 688 174 472 q 603 903 529 903 q 493 690 679 903 q 408 572 435 624 q 385 471 381 519 q 423 367 389 422 q 522 239 457 311 q 663 0 736 0 z "},"Ķ":{"ha":764,"x_min":63,"x_max":736,"o":"m 663 0 q 382 236 589 0 q 174 236 174 472 q 118 0 174 0 q 63 451 63 0 q 118 903 63 903 q 174 688 174 903 q 351 688 174 472 q 603 903 529 903 q 493 690 679 903 q 408 572 435 624 q 385 471 381 519 q 423 367 389 422 q 522 239 457 311 q 663 0 736 0 m 285 -336 q 281 -318 276 -321 l 307 -293 l 333 -247 q 300 -210 333 -218 q 265 -135 265 -204 q 340 -68 265 -68 q 415 -114 415 -68 l 415 -242 l 351 -331 q 285 -336 292 -351 z "},"L":{"ha":764,"x_min":63,"x_max":701,"o":"m 438 104 q 701 53 701 104 q 433 0 701 0 l 114 0 q 63 451 63 0 q 118 903 63 903 q 174 504 174 903 q 438 104 174 104 z "},"Ĺ":{"ha":764,"x_min":60,"x_max":701,"o":"m 438 104 q 701 53 701 104 q 433 0 701 0 l 114 0 q 63 451 63 0 q 118 903 63 903 q 174 504 174 903 q 438 104 174 104 m 201 1114 q 324 1183 278 1163 q 382 1188 369 1204 q 358 1133 393 1171 q 250 1047 324 1096 q 129 977 175 997 q 71 974 83 957 q 94 1028 60 990 q 201 1114 128 1065 z "},"Ľ":{"ha":764,"x_min":63,"x_max":701,"o":"m 438 104 q 701 53 701 104 q 433 0 701 0 l 114 0 q 63 451 63 0 q 118 903 63 903 q 174 504 174 903 q 438 104 174 104 m 474 633 l 429 633 q 404 677 415 654 q 387 738 393 700 q 381 836 381 775 q 456 903 381 903 q 512 889 493 903 q 531 836 531 875 q 522 736 531 774 q 501 676 514 699 q 474 633 489 653 z "},"Ļ":{"ha":764,"x_min":63,"x_max":701,"o":"m 438 104 q 701 53 701 104 q 433 0 701 0 l 114 0 q 63 451 63 0 q 118 903 63 903 q 174 504 174 903 q 438 104 174 104 m 326 -336 q 322 -318 318 -321 l 349 -293 l 375 -247 q 342 -210 375 -218 q 307 -135 307 -204 q 382 -68 307 -68 q 457 -114 457 -68 l 457 -242 l 393 -331 q 326 -336 333 -351 z "},"Ŀ":{"ha":764,"x_min":63,"x_max":701,"o":"m 438 104 q 701 53 701 104 q 433 0 701 0 l 114 0 q 63 451 63 0 q 118 903 63 903 q 174 504 174 903 q 438 104 174 104 m 546 472 q 474 404 546 404 q 401 472 401 404 q 474 540 401 540 q 546 472 546 540 z "},"Ł":{"ha":764,"x_min":-71,"x_max":701,"o":"m 438 104 q 701 53 701 104 q 433 0 701 0 l 114 0 q 64 342 68 0 q -19 300 17 314 q -61 299 -54 286 q -33 355 -71 314 q 63 443 4 396 l 63 451 q 118 903 63 903 q 174 525 171 903 q 256 576 217 554 q 321 606 294 597 q 354 604 347 615 q 339 562 363 592 q 272 494 315 532 q 176 418 228 456 q 438 104 203 104 z "},"M":{"ha":764,"x_min":63,"x_max":701,"o":"m 646 903 q 701 451 701 903 q 646 0 701 0 q 590 299 590 0 q 514 299 590 594 q 382 0 436 0 q 250 296 328 0 q 174 296 174 589 q 118 0 174 0 q 63 451 63 0 q 118 903 63 903 q 278 526 174 903 q 486 526 382 150 q 646 903 590 903 z "},"N":{"ha":764,"x_min":63,"x_max":701,"o":"m 646 903 q 701 451 701 903 q 646 0 701 0 q 382 354 590 0 q 174 354 174 707 q 118 0 174 0 q 63 451 63 0 q 118 903 63 903 q 382 546 174 903 q 590 546 590 188 q 646 903 590 903 z "},"Ń":{"ha":764,"x_min":63,"x_max":701,"o":"m 646 903 q 701 451 701 903 q 646 0 701 0 q 382 354 590 0 q 174 354 174 707 q 118 0 174 0 q 63 451 63 0 q 118 903 63 903 q 382 546 174 903 q 590 546 590 188 q 646 903 590 903 m 424 1114 q 546 1183 500 1163 q 604 1188 592 1204 q 581 1133 615 1171 q 472 1047 546 1096 q 351 977 397 997 q 293 974 306 957 q 316 1028 282 990 q 424 1114 350 1065 z "},"Ň":{"ha":764,"x_min":63,"x_max":701,"o":"m 646 903 q 701 451 701 903 q 646 0 701 0 q 382 354 590 0 q 174 354 174 707 q 118 0 174 0 q 63 451 63 0 q 118 903 63 903 q 382 546 174 903 q 590 546 590 188 q 646 903 590 903 m 526 1049 q 382 981 450 981 q 238 1049 314 981 q 151 1142 172 1107 q 142 1186 131 1176 q 189 1180 154 1196 q 269 1122 224 1164 q 348 1069 314 1082 q 417 1069 382 1056 q 496 1122 451 1082 q 576 1179 542 1164 q 623 1185 611 1194 q 613 1142 635 1176 q 526 1049 592 1107 z "},"Ņ":{"ha":764,"x_min":63,"x_max":701,"o":"m 646 903 q 701 451 701 903 q 646 0 701 0 q 382 354 590 0 q 174 354 174 707 q 118 0 174 0 q 63 451 63 0 q 118 903 63 903 q 382 546 174 903 q 590 546 590 188 q 646 903 590 903 m 326 -336 q 322 -318 318 -321 l 349 -293 l 375 -247 q 342 -210 375 -218 q 307 -135 307 -204 q 382 -68 307 -68 q 457 -114 457 -68 l 457 -242 l 393 -331 q 326 -336 333 -351 z "},"Ŋ":{"ha":764,"x_min":63,"x_max":701,"o":"m 701 451 l 701 -114 l 624 -233 l 496 -292 q 424 -236 424 -292 q 499 -181 424 -181 l 590 -104 l 590 1 q 538 90 590 1 q 382 354 486 178 q 174 354 174 707 q 118 0 174 0 q 63 451 63 0 q 118 903 63 903 q 382 546 174 903 q 590 546 590 188 q 646 903 590 903 q 701 451 701 903 z "},"Ñ":{"ha":764,"x_min":63,"x_max":701,"o":"m 646 903 q 701 451 701 903 q 646 0 701 0 q 382 354 590 0 q 174 354 174 707 q 118 0 174 0 q 63 451 63 0 q 118 903 63 903 q 382 546 174 903 q 590 546 590 188 q 646 903 590 903 m 606 1147 q 654 1136 651 1147 l 654 1050 l 578 983 l 475 983 l 413 999 q 376 1025 393 1013 q 344 1047 360 1038 l 301 1083 l 243 1083 l 206 1026 q 160 997 206 997 q 113 1008 115 997 l 113 1094 l 193 1161 l 304 1161 l 368 1146 q 439 1096 408 1119 l 479 1061 l 560 1061 q 572 1122 560 1097 q 606 1147 583 1147 z "},"O":{"ha":764,"x_min":49,"x_max":715,"o":"m 213 -14 l 49 231 l 49 668 l 221 917 l 551 917 l 715 672 l 715 231 l 551 -14 l 213 -14 m 497 93 l 604 272 l 604 629 l 497 810 l 267 810 l 160 629 l 160 272 l 267 93 l 497 93 z "},"Ó":{"ha":764,"x_min":49,"x_max":715,"o":"m 213 -14 l 49 231 l 49 668 l 221 917 l 551 917 l 715 672 l 715 231 l 551 -14 l 213 -14 m 497 93 l 604 272 l 604 629 l 497 810 l 267 810 l 160 629 l 160 272 l 267 93 l 497 93 m 424 1114 q 546 1183 500 1163 q 604 1188 592 1204 q 581 1133 615 1171 q 472 1047 546 1096 q 351 977 397 997 q 293 974 306 957 q 316 1028 282 990 q 424 1114 350 1065 z "},"Ô":{"ha":764,"x_min":49,"x_max":715,"o":"m 213 -14 l 49 231 l 49 668 l 221 917 l 551 917 l 715 672 l 715 231 l 551 -14 l 213 -14 m 497 93 l 604 272 l 604 629 l 497 810 l 267 810 l 160 629 l 160 272 l 267 93 l 497 93 m 526 1107 q 613 1014 592 1049 q 623 970 635 979 q 576 976 611 961 q 496 1033 542 992 q 417 1087 451 1074 q 348 1087 382 1100 q 269 1033 314 1074 q 189 976 224 992 q 142 969 154 960 q 151 1014 131 979 q 238 1107 172 1049 q 382 1176 314 1176 q 526 1107 450 1176 z "},"Ö":{"ha":764,"x_min":49,"x_max":715,"o":"m 213 -14 l 49 231 l 49 668 l 221 917 l 551 917 l 715 672 l 715 231 l 551 -14 l 213 -14 m 497 93 l 604 272 l 604 629 l 497 810 l 267 810 l 160 629 l 160 272 l 267 93 l 497 93 m 331 1099 q 258 1031 331 1031 q 186 1099 186 1031 q 258 1167 186 1167 q 331 1099 331 1167 m 578 1099 q 506 1031 578 1031 q 433 1099 433 1031 q 506 1167 433 1167 q 578 1099 578 1167 z "},"Ȯ":{"ha":764,"x_min":49,"x_max":715,"o":"m 213 -14 l 49 231 l 49 668 l 221 917 l 551 917 l 715 672 l 715 231 l 551 -14 l 213 -14 m 497 93 l 604 272 l 604 629 l 497 810 l 267 810 l 160 629 l 160 272 l 267 93 l 497 93 m 454 1114 q 382 1046 454 1046 q 310 1114 310 1046 q 382 1181 310 1181 q 454 1114 454 1181 z "},"Ò":{"ha":764,"x_min":49,"x_max":715,"o":"m 213 -14 l 49 231 l 49 668 l 221 917 l 551 917 l 715 672 l 715 231 l 551 -14 l 213 -14 m 497 93 l 604 272 l 604 629 l 497 810 l 267 810 l 160 629 l 160 272 l 267 93 l 497 93 m 471 974 q 413 977 458 957 q 292 1047 367 997 q 183 1133 218 1096 q 160 1188 149 1171 q 218 1183 172 1204 q 340 1114 264 1163 q 448 1028 414 1065 q 471 974 482 990 z "},"Ő":{"ha":764,"x_min":49,"x_max":789,"o":"m 213 -14 l 49 231 l 49 668 l 221 917 l 551 917 l 715 672 l 715 231 l 551 -14 l 213 -14 m 497 93 l 604 272 l 604 629 l 497 810 l 267 810 l 160 629 l 160 272 l 267 93 l 497 93 m 597 1114 q 719 1183 674 1163 q 778 1188 765 1204 q 754 1133 789 1171 q 646 1047 719 1096 q 525 977 571 997 q 467 974 479 957 q 490 1028 456 990 q 597 1114 524 1065 m 313 1114 q 435 1183 389 1163 q 493 1188 481 1204 q 469 1133 504 1171 q 361 1047 435 1096 q 240 977 286 997 q 182 974 194 957 q 205 1028 171 990 q 313 1114 239 1065 z "},"Ō":{"ha":764,"x_min":49,"x_max":715,"o":"m 213 -14 l 49 231 l 49 668 l 221 917 l 551 917 l 715 672 l 715 231 l 551 -14 l 213 -14 m 497 93 l 604 272 l 604 629 l 497 810 l 267 810 l 160 629 l 160 272 l 267 93 l 497 93 m 382 1110 q 590 1068 590 1110 q 382 1026 590 1026 q 174 1068 174 1026 q 382 1110 174 1110 z "},"Ø":{"ha":764,"x_min":49,"x_max":715,"o":"m 615 821 l 715 672 l 715 231 l 551 -14 l 213 -14 l 179 36 q 140 -13 156 4 q 117 -26 124 -31 q 118 7 110 -22 q 147 83 126 36 l 49 231 l 49 668 l 221 917 l 551 917 l 583 868 q 624 917 607 900 q 646 931 640 933 q 644 897 653 926 q 615 821 636 868 m 160 272 l 201 201 q 300 393 244 290 q 413 595 356 496 q 519 772 471 694 l 497 810 l 267 810 l 160 629 l 160 272 m 497 93 l 604 272 l 604 629 l 561 703 q 463 512 518 615 q 350 309 407 408 q 243 132 293 210 l 267 93 l 497 93 z "},"Õ":{"ha":764,"x_min":49,"x_max":715,"o":"m 213 -14 l 49 231 l 49 668 l 221 917 l 551 917 l 715 672 l 715 231 l 551 -14 l 213 -14 m 497 93 l 604 272 l 604 629 l 497 810 l 267 810 l 160 629 l 160 272 l 267 93 l 497 93 m 606 1147 q 654 1136 651 1147 l 654 1050 l 578 983 l 475 983 l 413 999 q 376 1025 393 1013 q 344 1047 360 1038 l 301 1083 l 243 1083 l 206 1026 q 160 997 206 997 q 113 1008 115 997 l 113 1094 l 193 1161 l 304 1161 l 368 1146 q 439 1096 408 1119 l 479 1061 l 560 1061 q 572 1122 560 1097 q 606 1147 583 1147 z "},"Œ":{"ha":764,"x_min":49,"x_max":703,"o":"m 703 54 q 539 0 703 0 q 343 -14 372 0 l 169 -14 l 49 229 l 49 668 l 178 917 l 343 917 q 539 903 372 903 q 701 850 701 903 q 592 796 701 796 q 528 699 481 796 q 592 503 535 503 q 647 450 647 503 q 590 396 647 396 q 529 210 533 396 q 592 107 481 107 q 703 54 703 107 m 160 271 l 225 93 l 371 93 l 424 264 l 424 638 l 371 810 l 225 810 l 160 631 l 160 271 z "},"P":{"ha":764,"x_min":63,"x_max":708,"o":"m 494 903 l 629 833 l 708 701 l 708 521 l 629 389 l 494 319 l 292 319 q 174 160 174 319 q 118 0 174 0 q 63 451 63 0 q 236 903 63 903 l 494 903 m 493 426 l 597 528 l 597 697 l 494 796 l 292 796 q 174 611 174 796 q 292 426 174 426 l 493 426 z "},"Þ":{"ha":764,"x_min":63,"x_max":708,"o":"m 494 743 l 629 674 l 708 542 l 708 361 l 629 229 l 494 160 l 292 160 q 174 81 174 160 q 118 0 174 0 q 63 451 63 0 q 118 903 63 903 q 174 824 174 903 q 292 743 174 743 l 494 743 m 493 267 l 597 368 l 597 538 l 494 636 l 292 636 q 174 451 174 636 q 292 267 174 267 l 493 267 z "},"Q":{"ha":764,"x_min":49,"x_max":715,"o":"m 715 250 l 578 10 q 438 -143 438 -10 q 382 -278 438 -278 q 326 -143 326 -278 q 186 10 326 -10 l 49 250 l 49 668 l 221 917 l 551 917 l 715 672 l 715 250 m 497 93 l 604 272 l 604 629 l 497 810 l 267 810 l 160 629 l 160 272 l 267 93 l 497 93 z "},"R":{"ha":764,"x_min":63,"x_max":690,"o":"m 521 413 l 621 382 l 676 301 l 676 113 q 622 0 676 0 q 567 113 567 0 q 565 233 565 169 q 565 368 565 296 l 269 368 q 174 185 174 368 q 118 0 174 0 q 63 451 63 0 q 228 903 63 903 l 535 903 l 690 772 l 690 536 l 556 425 q 521 413 440 414 m 283 475 l 475 475 l 579 571 l 579 718 l 476 796 l 283 796 q 174 636 174 796 q 283 475 174 475 z "},"Ŕ":{"ha":764,"x_min":63,"x_max":690,"o":"m 521 413 l 621 382 l 676 301 l 676 113 q 622 0 676 0 q 567 113 567 0 q 565 233 565 169 q 565 368 565 296 l 269 368 q 174 185 174 368 q 118 0 174 0 q 63 451 63 0 q 228 903 63 903 l 535 903 l 690 772 l 690 536 l 556 425 q 521 413 440 414 m 283 475 l 475 475 l 579 571 l 579 718 l 476 796 l 283 796 q 174 636 174 796 q 283 475 174 475 m 424 1114 q 546 1183 500 1163 q 604 1188 592 1204 q 581 1133 615 1171 q 472 1047 546 1096 q 351 977 397 997 q 293 974 306 957 q 316 1028 282 990 q 424 1114 350 1065 z "},"Ř":{"ha":764,"x_min":63,"x_max":690,"o":"m 521 413 l 621 382 l 676 301 l 676 113 q 622 0 676 0 q 567 113 567 0 q 565 233 565 169 q 565 368 565 296 l 269 368 q 174 185 174 368 q 118 0 174 0 q 63 451 63 0 q 228 903 63 903 l 535 903 l 690 772 l 690 536 l 556 425 q 521 413 440 414 m 283 475 l 475 475 l 579 571 l 579 718 l 476 796 l 283 796 q 174 636 174 796 q 283 475 174 475 m 526 1049 q 382 981 450 981 q 238 1049 314 981 q 151 1142 172 1107 q 142 1186 131 1176 q 189 1180 154 1196 q 269 1122 224 1164 q 348 1069 314 1082 q 417 1069 382 1056 q 496 1122 451 1082 q 576 1179 542 1164 q 623 1185 611 1194 q 613 1142 635 1176 q 526 1049 592 1107 z "},"Ŗ":{"ha":764,"x_min":63,"x_max":690,"o":"m 521 413 l 621 382 l 676 301 l 676 113 q 622 0 676 0 q 567 113 567 0 q 565 233 565 169 q 565 368 565 296 l 269 368 q 174 185 174 368 q 118 0 174 0 q 63 451 63 0 q 228 903 63 903 l 535 903 l 690 772 l 690 536 l 556 425 q 521 413 440 414 m 283 475 l 475 475 l 579 571 l 579 718 l 476 796 l 283 796 q 174 636 174 796 q 283 475 174 475 m 326 -336 q 322 -318 318 -321 l 349 -293 l 375 -247 q 342 -210 375 -218 q 307 -135 307 -204 q 382 -68 307 -68 q 457 -114 457 -68 l 457 -242 l 393 -331 q 326 -336 333 -351 z "},"S":{"ha":764,"x_min":69,"x_max":692,"o":"m 124 293 q 179 204 174 293 l 315 90 l 486 90 l 581 169 l 581 281 l 529 338 l 485 369 q 401 399 450 383 q 300 435 353 415 l 189 488 l 103 590 l 103 738 l 171 850 l 300 917 l 526 917 l 676 760 q 625 628 674 628 q 572 721 574 628 l 467 811 l 310 811 l 214 742 l 214 631 l 263 572 l 332 539 q 387 519 363 528 q 421 508 411 511 q 460 493 442 499 q 494 478 469 489 q 561 453 519 468 l 628 401 l 692 310 l 692 124 l 544 -14 l 297 -14 l 140 83 l 71 215 q 70 267 71 251 q 80 288 69 283 q 124 293 90 293 z "},"Ś":{"ha":764,"x_min":69,"x_max":692,"o":"m 124 293 q 179 204 174 293 l 315 90 l 486 90 l 581 169 l 581 281 l 529 338 l 485 369 q 401 399 450 383 q 300 435 353 415 l 189 488 l 103 590 l 103 738 l 171 850 l 300 917 l 526 917 l 676 760 q 625 628 674 628 q 572 721 574 628 l 467 811 l 310 811 l 214 742 l 214 631 l 263 572 l 332 539 q 387 519 363 528 q 421 508 411 511 q 460 493 442 499 q 494 478 469 489 q 561 453 519 468 l 628 401 l 692 310 l 692 124 l 544 -14 l 297 -14 l 140 83 l 71 215 q 70 267 71 251 q 80 288 69 283 q 124 293 90 293 m 424 1114 q 546 1183 500 1163 q 604 1188 592 1204 q 581 1133 615 1171 q 472 1047 546 1096 q 351 977 397 997 q 293 974 306 957 q 316 1028 282 990 q 424 1114 350 1065 z "},"Š":{"ha":764,"x_min":69,"x_max":692,"o":"m 124 293 q 179 204 174 293 l 315 90 l 486 90 l 581 169 l 581 281 l 529 338 l 485 369 q 401 399 450 383 q 300 435 353 415 l 189 488 l 103 590 l 103 738 l 171 850 l 300 917 l 526 917 l 676 760 q 625 628 674 628 q 572 721 574 628 l 467 811 l 310 811 l 214 742 l 214 631 l 263 572 l 332 539 q 387 519 363 528 q 421 508 411 511 q 460 493 442 499 q 494 478 469 489 q 561 453 519 468 l 628 401 l 692 310 l 692 124 l 544 -14 l 297 -14 l 140 83 l 71 215 q 70 267 71 251 q 80 288 69 283 q 124 293 90 293 m 526 1049 q 382 981 450 981 q 238 1049 314 981 q 151 1142 172 1107 q 142 1186 131 1176 q 189 1180 154 1196 q 269 1122 224 1164 q 348 1069 314 1082 q 417 1069 382 1056 q 496 1122 451 1082 q 576 1179 542 1164 q 623 1185 611 1194 q 613 1142 635 1176 q 526 1049 592 1107 z "},"Ş":{"ha":764,"x_min":69,"x_max":692,"o":"m 561 453 l 628 401 l 692 310 l 692 124 l 544 -14 l 426 -14 q 439 -27 433 -19 q 450 -43 444 -35 l 503 -119 l 503 -251 l 418 -333 l 274 -333 l 181 -247 q 231 -185 188 -185 q 274 -206 274 -185 l 307 -243 l 408 -243 l 408 -122 l 371 -75 q 339 -14 343 -39 l 297 -14 l 140 83 l 71 215 q 70 267 71 251 q 80 288 69 283 q 124 293 90 293 q 179 204 174 293 l 315 90 l 486 90 l 581 169 l 581 281 l 529 338 l 485 369 q 401 399 450 383 q 300 435 353 415 l 189 488 l 103 590 l 103 738 l 171 850 l 300 917 l 526 917 l 676 760 q 625 628 674 628 q 572 721 574 628 l 467 811 l 310 811 l 214 742 l 214 631 l 263 572 l 332 539 q 387 519 363 528 q 421 508 411 511 q 460 493 442 499 q 494 478 469 489 q 561 453 519 468 z "},"Ș":{"ha":764,"x_min":69,"x_max":692,"o":"m 124 293 q 179 204 174 293 l 315 90 l 486 90 l 581 169 l 581 281 l 529 338 l 485 369 q 401 399 450 383 q 300 435 353 415 l 189 488 l 103 590 l 103 738 l 171 850 l 300 917 l 526 917 l 676 760 q 625 628 674 628 q 572 721 574 628 l 467 811 l 310 811 l 214 742 l 214 631 l 263 572 l 332 539 q 387 519 363 528 q 421 508 411 511 q 460 493 442 499 q 494 478 469 489 q 561 453 519 468 l 628 401 l 692 310 l 692 124 l 544 -14 l 297 -14 l 140 83 l 71 215 q 70 267 71 251 q 80 288 69 283 q 124 293 90 293 m 326 -336 q 322 -318 318 -321 l 349 -293 l 375 -247 q 342 -210 375 -218 q 307 -135 307 -204 q 382 -68 307 -68 q 457 -114 457 -68 l 457 -242 l 393 -331 q 326 -336 333 -351 z "},"T":{"ha":764,"x_min":21,"x_max":743,"o":"m 743 851 q 590 799 743 799 q 438 400 438 799 q 382 0 438 0 q 326 400 326 0 q 174 799 326 799 q 21 851 21 799 q 382 903 21 903 q 743 851 743 903 z "},"Ŧ":{"ha":764,"x_min":21,"x_max":743,"o":"m 382 903 q 743 851 743 903 q 590 799 743 799 q 440 492 457 799 q 590 451 590 488 q 438 411 590 415 l 438 400 q 382 0 438 0 q 326 400 326 0 l 326 411 q 174 451 174 415 q 324 492 174 488 q 174 799 307 799 q 21 851 21 799 q 382 903 21 903 z "},"Ť":{"ha":764,"x_min":21,"x_max":743,"o":"m 743 851 q 590 799 743 799 q 438 400 438 799 q 382 0 438 0 q 326 400 326 0 q 174 799 326 799 q 21 851 21 799 q 382 903 21 903 q 743 851 743 903 m 526 1049 q 382 981 450 981 q 238 1049 314 981 q 151 1142 172 1107 q 142 1186 131 1176 q 189 1180 154 1196 q 269 1122 224 1164 q 348 1069 314 1082 q 417 1069 382 1056 q 496 1122 451 1082 q 576 1179 542 1164 q 623 1185 611 1194 q 613 1142 635 1176 q 526 1049 592 1107 z "},"Ţ":{"ha":764,"x_min":21,"x_max":743,"o":"m 382 903 q 743 851 743 903 q 590 799 743 799 q 438 400 438 799 q 399 11 438 67 q 450 -43 422 -4 l 503 -119 l 503 -251 l 418 -333 l 274 -333 l 181 -247 q 231 -185 188 -185 q 274 -206 274 -185 l 307 -243 l 408 -243 l 408 -122 l 371 -75 q 338 -5 338 -33 q 357 26 338 24 q 326 400 326 100 q 174 799 326 799 q 21 851 21 799 q 382 903 21 903 z "},"Ț":{"ha":764,"x_min":21,"x_max":743,"o":"m 743 851 q 590 799 743 799 q 438 400 438 799 q 382 0 438 0 q 326 400 326 0 q 174 799 326 799 q 21 851 21 799 q 382 903 21 903 q 743 851 743 903 m 326 -336 q 322 -318 318 -321 l 349 -293 l 375 -247 q 342 -210 375 -218 q 307 -135 307 -204 q 382 -68 307 -68 q 457 -114 457 -68 l 457 -242 l 393 -331 q 326 -336 333 -351 z "},"U":{"ha":764,"x_min":63,"x_max":701,"o":"m 646 903 q 701 625 701 903 l 701 163 l 533 -14 l 232 -14 l 63 163 l 63 625 q 118 903 63 903 q 174 625 174 903 l 174 204 l 285 93 l 481 93 l 590 204 l 590 625 q 646 903 590 903 z "},"Ú":{"ha":764,"x_min":63,"x_max":701,"o":"m 646 903 q 701 625 701 903 l 701 163 l 533 -14 l 232 -14 l 63 163 l 63 625 q 118 903 63 903 q 174 625 174 903 l 174 204 l 285 93 l 481 93 l 590 204 l 590 625 q 646 903 590 903 m 424 1114 q 546 1183 500 1163 q 604 1188 592 1204 q 581 1133 615 1171 q 472 1047 546 1096 q 351 977 397 997 q 293 974 306 957 q 316 1028 282 990 q 424 1114 350 1065 z "},"Û":{"ha":764,"x_min":63,"x_max":701,"o":"m 646 903 q 701 625 701 903 l 701 163 l 533 -14 l 232 -14 l 63 163 l 63 625 q 118 903 63 903 q 174 625 174 903 l 174 204 l 285 93 l 481 93 l 590 204 l 590 625 q 646 903 590 903 m 526 1107 q 613 1014 592 1049 q 623 970 635 979 q 576 976 611 961 q 496 1033 542 992 q 417 1087 451 1074 q 348 1087 382 1100 q 269 1033 314 1074 q 189 976 224 992 q 142 969 154 960 q 151 1014 131 979 q 238 1107 172 1049 q 382 1176 314 1176 q 526 1107 450 1176 z "},"Ü":{"ha":764,"x_min":63,"x_max":701,"o":"m 646 903 q 701 625 701 903 l 701 163 l 533 -14 l 232 -14 l 63 163 l 63 625 q 118 903 63 903 q 174 625 174 903 l 174 204 l 285 93 l 481 93 l 590 204 l 590 625 q 646 903 590 903 m 333 1099 q 261 1031 333 1031 q 189 1099 189 1031 q 261 1167 189 1167 q 333 1099 333 1167 m 581 1099 q 508 1031 581 1031 q 436 1099 436 1031 q 508 1167 436 1167 q 581 1099 581 1167 z "},"Ù":{"ha":764,"x_min":63,"x_max":701,"o":"m 646 903 q 701 625 701 903 l 701 163 l 533 -14 l 232 -14 l 63 163 l 63 625 q 118 903 63 903 q 174 625 174 903 l 174 204 l 285 93 l 481 93 l 590 204 l 590 625 q 646 903 590 903 m 471 974 q 413 977 458 957 q 292 1047 367 997 q 183 1133 218 1096 q 160 1188 149 1171 q 218 1183 172 1204 q 340 1114 264 1163 q 448 1028 414 1065 q 471 974 482 990 z "},"Ű":{"ha":764,"x_min":63,"x_max":789,"o":"m 646 903 q 701 625 701 903 l 701 163 l 533 -14 l 232 -14 l 63 163 l 63 625 q 118 903 63 903 q 174 625 174 903 l 174 204 l 285 93 l 481 93 l 590 204 l 590 625 q 646 903 590 903 m 597 1114 q 719 1183 674 1163 q 778 1188 765 1204 q 754 1133 789 1171 q 646 1047 719 1096 q 525 977 571 997 q 467 974 479 957 q 490 1028 456 990 q 597 1114 524 1065 m 313 1114 q 435 1183 389 1163 q 493 1188 481 1204 q 469 1133 504 1171 q 361 1047 435 1096 q 240 977 286 997 q 182 974 194 957 q 205 1028 171 990 q 313 1114 239 1065 z "},"Ū":{"ha":764,"x_min":63,"x_max":701,"o":"m 646 903 q 701 625 701 903 l 701 163 l 533 -14 l 232 -14 l 63 163 l 63 625 q 118 903 63 903 q 174 625 174 903 l 174 204 l 285 93 l 481 93 l 590 204 l 590 625 q 646 903 590 903 m 382 1110 q 590 1068 590 1110 q 382 1026 590 1026 q 174 1068 174 1026 q 382 1110 174 1110 z "},"Ų":{"ha":764,"x_min":63,"x_max":701,"o":"m 501 -61 l 464 -108 l 464 -229 l 565 -229 l 599 -192 q 642 -171 599 -171 q 692 -233 686 -171 l 599 -319 l 454 -319 l 369 -237 l 369 -106 l 422 -29 l 433 -14 l 232 -14 l 63 163 l 63 625 q 118 903 63 903 q 174 625 174 903 l 174 204 l 285 93 l 481 93 l 590 204 l 590 625 q 646 903 590 903 q 701 625 701 903 l 701 163 l 535 -12 q 521 -35 529 -22 q 501 -61 513 -47 z "},"Ů":{"ha":764,"x_min":63,"x_max":701,"o":"m 646 903 q 701 625 701 903 l 701 163 l 533 -14 l 232 -14 l 63 163 l 63 625 q 118 903 63 903 q 174 625 174 903 l 174 204 l 285 93 l 481 93 l 590 204 l 590 625 q 646 903 590 903 m 310 971 l 208 1060 l 208 1176 l 310 1264 l 454 1264 l 556 1176 l 556 1060 l 454 971 l 310 971 m 413 1047 l 471 1086 l 471 1150 l 413 1188 l 351 1188 l 293 1150 l 293 1086 l 351 1047 l 413 1047 z "},"V":{"ha":764,"x_min":72,"x_max":693,"o":"m 678 903 q 691 865 693 903 q 676 762 689 826 q 640 617 663 697 q 589 451 617 538 q 531 285 561 365 q 473 141 501 206 q 422 38 444 76 q 383 0 399 0 q 346 38 369 0 q 294 141 322 76 q 235 285 265 206 q 176 451 204 365 q 126 617 149 538 q 89 762 103 697 q 74 865 75 826 q 88 903 72 903 q 265 531 147 903 q 501 531 383 160 q 678 903 619 903 z "},"W":{"ha":764,"x_min":61,"x_max":704,"o":"m 678 903 q 699 854 694 903 q 701 725 704 806 q 686 548 697 644 q 660 355 675 451 q 626 178 644 258 q 590 49 608 97 q 554 0 571 0 q 440 351 496 0 q 328 351 385 704 q 213 0 272 0 q 182 38 199 0 q 149 141 165 76 q 118 285 133 206 q 91 451 103 365 q 72 617 79 538 q 63 762 64 697 q 67 865 61 826 q 88 903 72 903 q 189 603 147 903 q 276 603 229 303 q 383 903 325 903 q 490 603 443 903 q 579 603 538 306 q 678 903 619 903 z "},"Ẃ":{"ha":764,"x_min":61,"x_max":704,"o":"m 678 903 q 699 854 694 903 q 701 725 704 806 q 686 548 697 644 q 660 355 675 451 q 626 178 644 258 q 590 49 608 97 q 554 0 571 0 q 440 351 496 0 q 328 351 385 704 q 213 0 272 0 q 182 38 199 0 q 149 141 165 76 q 118 285 133 206 q 91 451 103 365 q 72 617 79 538 q 63 762 64 697 q 67 865 61 826 q 88 903 72 903 q 189 603 147 903 q 276 603 229 303 q 383 903 325 903 q 490 603 443 903 q 579 603 538 306 q 678 903 619 903 m 424 1114 q 546 1183 500 1163 q 604 1188 592 1204 q 581 1133 615 1171 q 472 1047 546 1096 q 351 977 397 997 q 293 974 306 957 q 316 1028 282 990 q 424 1114 350 1065 z "},"Ŵ":{"ha":764,"x_min":61,"x_max":704,"o":"m 678 903 q 699 854 694 903 q 701 725 704 806 q 686 548 697 644 q 660 355 675 451 q 626 178 644 258 q 590 49 608 97 q 554 0 571 0 q 440 351 496 0 q 328 351 385 704 q 213 0 272 0 q 182 38 199 0 q 149 141 165 76 q 118 285 133 206 q 91 451 103 365 q 72 617 79 538 q 63 762 64 697 q 67 865 61 826 q 88 903 72 903 q 189 603 147 903 q 276 603 229 303 q 383 903 325 903 q 490 603 443 903 q 579 603 538 306 q 678 903 619 903 m 526 1107 q 613 1014 592 1049 q 623 970 635 979 q 576 976 611 961 q 496 1033 542 992 q 417 1087 451 1074 q 348 1087 382 1100 q 269 1033 314 1074 q 189 976 224 992 q 142 969 154 960 q 151 1014 131 979 q 238 1107 172 1049 q 382 1176 314 1176 q 526 1107 450 1176 z "},"Ẅ":{"ha":764,"x_min":61,"x_max":704,"o":"m 678 903 q 699 854 694 903 q 701 725 704 806 q 686 548 697 644 q 660 355 675 451 q 626 178 644 258 q 590 49 608 97 q 554 0 571 0 q 440 351 496 0 q 328 351 385 704 q 213 0 272 0 q 182 38 199 0 q 149 141 165 76 q 118 285 133 206 q 91 451 103 365 q 72 617 79 538 q 63 762 64 697 q 67 865 61 826 q 88 903 72 903 q 189 603 147 903 q 276 603 229 303 q 383 903 325 903 q 490 603 443 903 q 579 603 538 306 q 678 903 619 903 m 333 1099 q 261 1031 333 1031 q 189 1099 189 1031 q 261 1167 189 1167 q 333 1099 333 1167 m 581 1099 q 508 1031 581 1031 q 436 1099 436 1031 q 508 1167 436 1167 q 581 1099 581 1167 z "},"Ẁ":{"ha":764,"x_min":61,"x_max":704,"o":"m 678 903 q 699 854 694 903 q 701 725 704 806 q 686 548 697 644 q 660 355 675 451 q 626 178 644 258 q 590 49 608 97 q 554 0 571 0 q 440 351 496 0 q 328 351 385 704 q 213 0 272 0 q 182 38 199 0 q 149 141 165 76 q 118 285 133 206 q 91 451 103 365 q 72 617 79 538 q 63 762 64 697 q 67 865 61 826 q 88 903 72 903 q 189 603 147 903 q 276 603 229 303 q 383 903 325 903 q 490 603 443 903 q 579 603 538 306 q 678 903 619 903 m 471 974 q 413 977 458 957 q 292 1047 367 997 q 183 1133 218 1096 q 160 1188 149 1171 q 218 1183 172 1204 q 340 1114 264 1163 q 448 1028 414 1065 q 471 974 482 990 z "},"X":{"ha":764,"x_min":60,"x_max":704,"o":"m 572 682 q 572 231 442 461 q 635 0 703 0 q 474 179 565 0 q 283 179 381 357 q 122 0 186 0 q 193 231 60 0 q 200 682 325 460 q 136 903 74 903 q 292 732 199 903 q 482 732 385 563 q 642 903 581 903 q 572 682 704 903 z "},"Y":{"ha":764,"x_min":35,"x_max":729,"o":"m 667 903 q 583 607 729 903 q 438 156 438 310 q 382 0 438 0 q 326 156 326 0 q 181 607 326 310 q 97 903 35 903 q 272 661 160 903 q 494 661 385 418 q 667 903 606 903 z "},"Ý":{"ha":764,"x_min":35,"x_max":729,"o":"m 667 903 q 583 607 729 903 q 438 156 438 310 q 382 0 438 0 q 326 156 326 0 q 181 607 326 310 q 97 903 35 903 q 272 661 160 903 q 494 661 385 418 q 667 903 606 903 m 424 1114 q 546 1183 500 1163 q 604 1188 592 1204 q 581 1133 615 1171 q 472 1047 546 1096 q 351 977 397 997 q 293 974 306 957 q 316 1028 282 990 q 424 1114 350 1065 z "},"Ŷ":{"ha":764,"x_min":35,"x_max":729,"o":"m 667 903 q 583 607 729 903 q 438 156 438 310 q 382 0 438 0 q 326 156 326 0 q 181 607 326 310 q 97 903 35 903 q 272 661 160 903 q 494 661 385 418 q 667 903 606 903 m 526 1107 q 613 1014 592 1049 q 623 970 635 979 q 576 976 611 961 q 496 1033 542 992 q 417 1087 451 1074 q 348 1087 382 1100 q 269 1033 314 1074 q 189 976 224 992 q 142 969 154 960 q 151 1014 131 979 q 238 1107 172 1049 q 382 1176 314 1176 q 526 1107 450 1176 z "},"Ÿ":{"ha":764,"x_min":35,"x_max":729,"o":"m 667 903 q 583 607 729 903 q 438 156 438 310 q 382 0 438 0 q 326 156 326 0 q 181 607 326 310 q 97 903 35 903 q 272 661 160 903 q 494 661 385 418 q 667 903 606 903 m 331 1099 q 258 1031 331 1031 q 186 1099 186 1031 q 258 1167 186 1167 q 331 1099 331 1167 m 578 1099 q 506 1031 578 1031 q 433 1099 433 1031 q 506 1167 433 1167 q 578 1099 578 1167 z "},"Ỳ":{"ha":764,"x_min":35,"x_max":729,"o":"m 667 903 q 583 607 729 903 q 438 156 438 310 q 382 0 438 0 q 326 156 326 0 q 181 607 326 310 q 97 903 35 903 q 272 661 160 903 q 494 661 385 418 q 667 903 606 903 m 471 974 q 413 977 458 957 q 292 1047 367 997 q 183 1133 218 1096 q 160 1188 149 1171 q 218 1183 172 1204 q 340 1114 264 1163 q 448 1028 414 1065 q 471 974 482 990 z "},"Z":{"ha":764,"x_min":76,"x_max":688,"o":"m 688 851 q 449 451 688 799 q 449 104 210 104 q 688 53 688 104 q 382 0 688 0 q 76 53 76 0 q 317 451 76 103 q 317 799 556 799 q 76 851 76 799 q 382 903 76 903 q 688 851 688 903 z "},"Ź":{"ha":764,"x_min":76,"x_max":688,"o":"m 688 851 q 449 451 688 799 q 449 104 210 104 q 688 53 688 104 q 382 0 688 0 q 76 53 76 0 q 317 451 76 103 q 317 799 556 799 q 76 851 76 799 q 382 903 76 903 q 688 851 688 903 m 424 1114 q 546 1183 500 1163 q 604 1188 592 1204 q 581 1133 615 1171 q 472 1047 546 1096 q 351 977 397 997 q 293 974 306 957 q 316 1028 282 990 q 424 1114 350 1065 z "},"Ž":{"ha":764,"x_min":76,"x_max":688,"o":"m 688 851 q 449 451 688 799 q 449 104 210 104 q 688 53 688 104 q 382 0 688 0 q 76 53 76 0 q 317 451 76 103 q 317 799 556 799 q 76 851 76 799 q 382 903 76 903 q 688 851 688 903 m 526 1049 q 382 981 450 981 q 238 1049 314 981 q 151 1142 172 1107 q 142 1186 131 1176 q 189 1180 154 1196 q 269 1122 224 1164 q 348 1069 314 1082 q 417 1069 382 1056 q 496 1122 451 1082 q 576 1179 542 1164 q 623 1185 611 1194 q 613 1142 635 1176 q 526 1049 592 1107 z "},"Ż":{"ha":764,"x_min":76,"x_max":688,"o":"m 688 851 q 449 451 688 799 q 449 104 210 104 q 688 53 688 104 q 382 0 688 0 q 76 53 76 0 q 317 451 76 103 q 317 799 556 799 q 76 851 76 799 q 382 903 76 903 q 688 851 688 903 m 454 1114 q 382 1046 454 1046 q 310 1114 310 1046 q 382 1181 310 1181 q 454 1114 454 1181 z "},"a":{"ha":764,"x_min":71,"x_max":676,"o":"m 621 694 q 676 347 676 694 q 626 0 676 0 q 574 15 576 0 l 565 110 l 565 185 q 560 194 565 208 q 543 129 554 181 l 432 -14 l 260 -14 l 139 78 l 71 242 l 71 450 l 140 615 l 268 708 l 443 708 l 546 589 q 560 541 556 540 q 565 593 565 542 q 621 694 565 694 m 461 93 l 565 236 l 565 463 l 461 600 l 271 600 l 182 464 l 182 232 l 278 93 l 461 93 z "},"á":{"ha":764,"x_min":71,"x_max":676,"o":"m 621 694 q 676 347 676 694 q 626 0 676 0 q 574 15 576 0 l 565 110 l 565 185 q 560 194 565 208 q 543 129 554 181 l 432 -14 l 260 -14 l 139 78 l 71 242 l 71 450 l 140 615 l 268 708 l 443 708 l 546 589 q 560 541 556 540 q 565 593 565 542 q 621 694 565 694 m 461 93 l 565 236 l 565 463 l 461 600 l 271 600 l 182 464 l 182 232 l 278 93 l 461 93 m 424 906 q 546 975 500 954 q 604 979 592 996 q 581 925 615 963 q 472 839 546 888 q 351 769 397 789 q 293 765 306 749 q 316 819 282 782 q 424 906 350 857 z "},"ă":{"ha":764,"x_min":71,"x_max":676,"o":"m 621 694 q 676 347 676 694 q 626 0 676 0 q 574 15 576 0 l 565 110 l 565 185 q 560 194 565 208 q 543 129 554 181 l 432 -14 l 260 -14 l 139 78 l 71 242 l 71 450 l 140 615 l 268 708 l 443 708 l 546 589 q 560 541 556 540 q 565 593 565 542 q 621 694 565 694 m 461 93 l 565 236 l 565 463 l 461 600 l 271 600 l 182 464 l 182 232 l 278 93 l 461 93 m 457 860 l 506 910 q 519 944 506 931 q 561 958 533 958 q 603 943 589 958 q 617 904 617 928 l 546 821 l 463 769 l 303 769 l 219 821 l 149 904 q 163 943 149 928 q 204 958 176 958 q 246 944 232 958 q 260 910 260 931 l 307 860 l 457 860 z "},"â":{"ha":764,"x_min":71,"x_max":676,"o":"m 621 694 q 676 347 676 694 q 626 0 676 0 q 574 15 576 0 l 565 110 l 565 185 q 560 194 565 208 q 543 129 554 181 l 432 -14 l 260 -14 l 139 78 l 71 242 l 71 450 l 140 615 l 268 708 l 443 708 l 546 589 q 560 541 556 540 q 565 593 565 542 q 621 694 565 694 m 461 93 l 565 236 l 565 463 l 461 600 l 271 600 l 182 464 l 182 232 l 278 93 l 461 93 m 526 899 q 613 806 592 840 q 623 762 635 771 q 576 768 611 753 q 496 825 542 783 q 417 878 451 865 q 348 878 382 892 q 269 825 314 865 q 189 767 224 783 q 142 761 154 751 q 151 806 131 771 q 238 899 172 840 q 382 968 314 968 q 526 899 450 968 z "},"ä":{"ha":764,"x_min":71,"x_max":676,"o":"m 621 694 q 676 347 676 694 q 626 0 676 0 q 574 15 576 0 l 565 110 l 565 185 q 560 194 565 208 q 543 129 554 181 l 432 -14 l 260 -14 l 139 78 l 71 242 l 71 450 l 140 615 l 268 708 l 443 708 l 546 589 q 560 541 556 540 q 565 593 565 542 q 621 694 565 694 m 461 93 l 565 236 l 565 463 l 461 600 l 271 600 l 182 464 l 182 232 l 278 93 l 461 93 m 314 904 q 242 836 314 836 q 169 904 169 836 q 242 972 169 972 q 314 904 314 972 m 561 904 q 489 836 561 836 q 417 904 417 836 q 489 972 417 972 q 561 904 561 972 z "},"à":{"ha":764,"x_min":71,"x_max":676,"o":"m 621 694 q 676 347 676 694 q 626 0 676 0 q 574 15 576 0 l 565 110 l 565 185 q 560 194 565 208 q 543 129 554 181 l 432 -14 l 260 -14 l 139 78 l 71 242 l 71 450 l 140 615 l 268 708 l 443 708 l 546 589 q 560 541 556 540 q 565 593 565 542 q 621 694 565 694 m 461 93 l 565 236 l 565 463 l 461 600 l 271 600 l 182 464 l 182 232 l 278 93 l 461 93 m 471 765 q 413 769 458 749 q 292 839 367 789 q 183 925 218 888 q 160 979 149 963 q 218 975 172 996 q 340 906 264 954 q 448 819 414 857 q 471 765 482 782 z "},"ā":{"ha":764,"x_min":71,"x_max":676,"o":"m 621 694 q 676 347 676 694 q 626 0 676 0 q 574 15 576 0 l 565 110 l 565 185 q 560 194 565 208 q 543 129 554 181 l 432 -14 l 260 -14 l 139 78 l 71 242 l 71 450 l 140 615 l 268 708 l 443 708 l 546 589 q 560 541 556 540 q 565 593 565 542 q 621 694 565 694 m 461 93 l 565 236 l 565 463 l 461 600 l 271 600 l 182 464 l 182 232 l 278 93 l 461 93 m 382 901 q 590 860 590 901 q 382 818 590 818 q 174 860 174 818 q 382 901 174 901 z "},"ą":{"ha":764,"x_min":71,"x_max":793,"o":"m 743 -171 q 793 -233 788 -171 l 700 -319 l 556 -319 l 471 -237 l 471 -106 l 524 -29 q 549 5 536 -10 q 572 31 561 19 l 565 110 l 565 185 q 560 194 565 208 q 543 129 554 181 l 432 -14 l 260 -14 l 139 78 l 71 242 l 71 450 l 140 615 l 268 708 l 443 708 l 546 589 q 560 541 556 540 q 565 593 565 542 q 621 694 565 694 q 676 347 676 694 q 658 57 676 138 q 648 10 661 40 q 603 -61 635 -21 l 565 -108 l 565 -229 l 667 -229 l 700 -192 q 743 -171 700 -171 m 461 93 l 565 236 l 565 463 l 461 600 l 271 600 l 182 464 l 182 232 l 278 93 l 461 93 z "},"å":{"ha":764,"x_min":71,"x_max":676,"o":"m 621 694 q 676 347 676 694 q 626 0 676 0 q 574 15 576 0 l 565 110 l 565 185 q 560 194 565 208 q 543 129 554 181 l 432 -14 l 260 -14 l 139 78 l 71 242 l 71 450 l 140 615 l 268 708 l 443 708 l 546 589 q 560 541 556 540 q 565 593 565 542 q 621 694 565 694 m 461 93 l 565 236 l 565 463 l 461 600 l 271 600 l 182 464 l 182 232 l 278 93 l 461 93 m 310 763 l 208 851 l 208 968 l 310 1056 l 454 1056 l 556 968 l 556 851 l 454 763 l 310 763 m 413 839 l 471 878 l 471 942 l 413 979 l 351 979 l 293 942 l 293 878 l 351 839 l 413 839 z "},"ã":{"ha":764,"x_min":71,"x_max":676,"o":"m 621 694 q 676 347 676 694 q 626 0 676 0 q 574 15 576 0 l 565 110 l 565 185 q 560 194 565 208 q 543 129 554 181 l 432 -14 l 260 -14 l 139 78 l 71 242 l 71 450 l 140 615 l 268 708 l 443 708 l 546 589 q 560 541 556 540 q 565 593 565 542 q 621 694 565 694 m 461 93 l 565 236 l 565 463 l 461 600 l 271 600 l 182 464 l 182 232 l 278 93 l 461 93 m 606 939 q 654 928 651 939 l 654 842 l 578 775 l 475 775 l 413 790 q 376 817 393 804 q 344 839 360 829 l 301 875 l 243 875 l 206 818 q 160 789 206 789 q 113 800 115 789 l 113 886 l 193 953 l 304 953 l 368 938 q 439 888 408 911 l 479 853 l 560 853 q 572 914 560 889 q 606 939 583 939 z "},"æ":{"ha":764,"x_min":29,"x_max":740,"o":"m 647 708 l 733 546 q 737 419 733 465 q 733 351 740 372 q 691 324 725 329 q 582 318 657 318 q 431 208 431 318 l 489 93 l 588 93 l 619 158 q 676 224 624 224 q 721 114 726 224 l 639 -14 l 442 -14 q 372 50 389 107 l 282 -14 l 131 -14 l 29 110 l 29 310 l 129 435 l 310 435 q 347 413 347 354 l 347 599 l 203 599 l 136 543 q 78 485 126 485 q 32 588 29 485 l 144 708 l 301 708 l 381 663 q 456 708 404 621 l 647 708 m 532 415 q 625 506 625 415 l 586 601 l 492 601 l 438 497 q 532 415 438 415 m 294 92 l 354 158 l 354 265 l 296 328 l 188 328 l 138 264 l 138 157 l 190 92 l 294 92 z "},"b":{"ha":764,"x_min":88,"x_max":693,"o":"m 143 972 q 199 736 199 972 q 209 610 199 618 q 242 708 219 603 l 496 708 l 624 615 l 693 450 l 693 242 l 625 78 l 504 -14 l 332 -14 l 221 125 q 204 190 210 175 q 199 182 199 204 l 199 110 l 190 15 q 138 0 188 0 q 88 486 88 0 q 143 972 88 972 m 303 93 l 486 93 l 582 232 l 582 464 l 493 600 l 303 600 l 199 463 l 199 236 l 303 93 z "},"c":{"ha":764,"x_min":71,"x_max":693,"o":"m 678 133 l 515 -14 l 304 -14 l 157 74 l 71 238 l 71 454 l 157 619 l 304 708 l 514 708 l 676 561 q 643 435 693 435 q 567 517 592 435 l 471 601 l 336 601 l 239 540 l 182 425 l 182 267 l 239 153 l 336 93 l 472 93 l 568 178 q 643 261 593 261 q 678 133 693 261 z "},"ć":{"ha":764,"x_min":71,"x_max":693,"o":"m 678 133 l 515 -14 l 304 -14 l 157 74 l 71 238 l 71 454 l 157 619 l 304 708 l 514 708 l 676 561 q 643 435 693 435 q 567 517 592 435 l 471 601 l 336 601 l 239 540 l 182 425 l 182 267 l 239 153 l 336 93 l 472 93 l 568 178 q 643 261 593 261 q 678 133 693 261 m 424 906 q 546 975 500 954 q 604 979 592 996 q 581 925 615 963 q 472 839 546 888 q 351 769 397 789 q 293 765 306 749 q 316 819 282 782 q 424 906 350 857 z "},"č":{"ha":764,"x_min":71,"x_max":693,"o":"m 678 133 l 515 -14 l 304 -14 l 157 74 l 71 238 l 71 454 l 157 619 l 304 708 l 514 708 l 676 561 q 643 435 693 435 q 567 517 592 435 l 471 601 l 336 601 l 239 540 l 182 425 l 182 267 l 239 153 l 336 93 l 472 93 l 568 178 q 643 261 593 261 q 678 133 693 261 m 526 840 q 382 772 450 772 q 238 840 314 772 q 151 933 172 899 q 142 978 131 968 q 189 972 154 988 q 269 914 224 956 q 348 860 314 874 q 417 860 382 847 q 496 914 451 874 q 576 971 542 956 q 623 977 611 986 q 613 933 635 968 q 526 840 592 899 z "},"ç":{"ha":764,"x_min":71,"x_max":693,"o":"m 643 261 q 678 133 693 261 l 515 -14 l 426 -14 q 439 -27 433 -19 q 450 -43 444 -35 l 503 -119 l 503 -251 l 418 -333 l 274 -333 l 181 -247 q 231 -185 188 -185 q 274 -206 274 -185 l 307 -243 l 408 -243 l 408 -122 l 371 -75 q 339 -14 343 -39 l 304 -14 l 157 74 l 71 238 l 71 454 l 157 619 l 304 708 l 514 708 l 676 561 q 643 435 693 435 q 567 517 592 435 l 471 601 l 336 601 l 239 540 l 182 425 l 182 267 l 239 153 l 336 93 l 472 93 l 568 178 q 643 261 593 261 z "},"ċ":{"ha":764,"x_min":71,"x_max":693,"o":"m 678 133 l 515 -14 l 304 -14 l 157 74 l 71 238 l 71 454 l 157 619 l 304 708 l 514 708 l 676 561 q 643 435 693 435 q 567 517 592 435 l 471 601 l 336 601 l 239 540 l 182 425 l 182 267 l 239 153 l 336 93 l 472 93 l 568 178 q 643 261 593 261 q 678 133 693 261 m 454 906 q 382 838 454 838 q 310 906 310 838 q 382 972 310 972 q 454 906 454 972 z "},"d":{"ha":764,"x_min":71,"x_max":676,"o":"m 621 972 q 676 486 676 972 q 626 0 676 0 q 574 15 576 0 l 565 110 l 565 182 q 560 190 565 204 q 543 125 554 175 l 432 -14 l 260 -14 l 139 78 l 71 242 l 71 450 l 140 615 l 268 708 l 522 708 q 555 610 544 603 q 565 736 565 618 q 621 972 565 972 m 461 93 l 565 236 l 565 463 l 461 600 l 271 600 l 182 464 l 182 232 l 278 93 l 461 93 z "},"ð":{"ha":764,"x_min":71,"x_max":701,"o":"m 701 658 l 701 261 l 629 93 l 485 -14 l 235 -14 l 71 185 l 71 450 l 140 615 l 268 708 l 476 708 q 444 790 538 622 q 186 939 165 892 q 307 950 204 986 q 443 940 394 894 q 489 965 468 964 q 522 953 510 965 q 533 920 535 940 q 511 881 532 900 q 701 658 471 842 m 483 93 l 590 236 l 590 464 l 483 601 l 282 601 l 182 463 l 182 232 l 286 93 l 483 93 z "},"ď":{"ha":764,"x_min":71,"x_max":886,"o":"m 621 972 q 676 486 676 972 q 626 0 676 0 q 574 15 576 0 l 565 110 l 565 182 q 560 190 565 204 q 543 125 554 175 l 432 -14 l 260 -14 l 139 78 l 71 242 l 71 450 l 140 615 l 268 708 l 522 708 q 555 610 544 603 q 565 736 565 618 q 621 972 565 972 m 461 93 l 565 236 l 565 463 l 461 600 l 271 600 l 182 464 l 182 232 l 278 93 l 461 93 m 829 703 l 785 703 q 760 747 771 724 q 742 807 749 769 q 736 906 736 844 q 811 972 736 972 q 867 958 849 972 q 886 906 886 944 q 878 806 886 843 q 857 745 869 768 q 829 703 844 722 z "},"đ":{"ha":764,"x_min":71,"x_max":794,"o":"m 621 972 q 676 486 676 972 q 626 0 676 0 q 574 15 576 0 l 565 110 l 565 182 q 560 190 565 204 q 543 125 554 175 l 432 -14 l 260 -14 l 139 78 l 71 242 l 71 450 l 140 615 l 268 708 l 522 708 q 555 610 544 603 q 565 736 565 618 q 621 972 565 972 m 461 93 l 565 236 l 565 463 l 461 600 l 271 600 l 182 464 l 182 232 l 278 93 l 461 93 m 586 851 q 794 810 794 851 q 586 768 794 768 q 378 810 378 768 q 586 851 378 851 z "},"e":{"ha":764,"x_min":71,"x_max":700,"o":"m 636 224 q 671 118 689 224 l 525 -14 l 307 -14 l 156 78 l 71 242 l 71 450 l 153 615 l 301 708 l 549 708 l 700 507 q 438 318 692 318 q 192 217 182 318 l 311 93 l 543 93 q 636 224 582 224 m 311 601 l 210 504 q 383 418 189 418 q 572 507 578 418 l 476 601 l 311 601 z "},"é":{"ha":764,"x_min":71,"x_max":700,"o":"m 636 224 q 671 118 689 224 l 525 -14 l 307 -14 l 156 78 l 71 242 l 71 450 l 153 615 l 301 708 l 549 708 l 700 507 q 438 318 692 318 q 192 217 182 318 l 311 93 l 543 93 q 636 224 582 224 m 311 601 l 210 504 q 383 418 189 418 q 572 507 578 418 l 476 601 l 311 601 m 424 906 q 546 975 500 954 q 604 979 592 996 q 581 925 615 963 q 472 839 546 888 q 351 769 397 789 q 293 765 306 749 q 316 819 282 782 q 424 906 350 857 z "},"ě":{"ha":764,"x_min":71,"x_max":700,"o":"m 636 224 q 671 118 689 224 l 525 -14 l 307 -14 l 156 78 l 71 242 l 71 450 l 153 615 l 301 708 l 549 708 l 700 507 q 438 318 692 318 q 192 217 182 318 l 311 93 l 543 93 q 636 224 582 224 m 311 601 l 210 504 q 383 418 189 418 q 572 507 578 418 l 476 601 l 311 601 m 526 840 q 382 772 450 772 q 238 840 314 772 q 151 933 172 899 q 142 978 131 968 q 189 972 154 988 q 269 914 224 956 q 348 860 314 874 q 417 860 382 847 q 496 914 451 874 q 576 971 542 956 q 623 977 611 986 q 613 933 635 968 q 526 840 592 899 z "},"ê":{"ha":764,"x_min":71,"x_max":700,"o":"m 636 224 q 671 118 689 224 l 525 -14 l 307 -14 l 156 78 l 71 242 l 71 450 l 153 615 l 301 708 l 549 708 l 700 507 q 438 318 692 318 q 192 217 182 318 l 311 93 l 543 93 q 636 224 582 224 m 311 601 l 210 504 q 383 418 189 418 q 572 507 578 418 l 476 601 l 311 601 m 526 899 q 613 806 592 840 q 623 762 635 771 q 576 768 611 753 q 496 825 542 783 q 417 878 451 865 q 348 878 382 892 q 269 825 314 865 q 189 767 224 783 q 142 761 154 751 q 151 806 131 771 q 238 899 172 840 q 382 968 314 968 q 526 899 450 968 z "},"ë":{"ha":764,"x_min":71,"x_max":700,"o":"m 636 224 q 671 118 689 224 l 525 -14 l 307 -14 l 156 78 l 71 242 l 71 450 l 153 615 l 301 708 l 549 708 l 700 507 q 438 318 692 318 q 192 217 182 318 l 311 93 l 543 93 q 636 224 582 224 m 311 601 l 210 504 q 383 418 189 418 q 572 507 578 418 l 476 601 l 311 601 m 347 904 q 275 836 347 836 q 203 904 203 836 q 275 972 203 972 q 347 904 347 972 m 593 904 q 521 836 593 836 q 449 904 449 836 q 521 972 449 972 q 593 904 593 972 z "},"ė":{"ha":764,"x_min":71,"x_max":700,"o":"m 636 224 q 671 118 689 224 l 525 -14 l 307 -14 l 156 78 l 71 242 l 71 450 l 153 615 l 301 708 l 549 708 l 700 507 q 438 318 692 318 q 192 217 182 318 l 311 93 l 543 93 q 636 224 582 224 m 311 601 l 210 504 q 383 418 189 418 q 572 507 578 418 l 476 601 l 311 601 m 454 906 q 382 838 454 838 q 310 906 310 838 q 382 972 310 972 q 454 906 454 972 z "},"è":{"ha":764,"x_min":71,"x_max":700,"o":"m 636 224 q 671 118 689 224 l 525 -14 l 307 -14 l 156 78 l 71 242 l 71 450 l 153 615 l 301 708 l 549 708 l 700 507 q 438 318 692 318 q 192 217 182 318 l 311 93 l 543 93 q 636 224 582 224 m 311 601 l 210 504 q 383 418 189 418 q 572 507 578 418 l 476 601 l 311 601 m 471 765 q 413 769 458 749 q 292 839 367 789 q 183 925 218 888 q 160 979 149 963 q 218 975 172 996 q 340 906 264 954 q 448 819 414 857 q 471 765 482 782 z "},"ē":{"ha":764,"x_min":71,"x_max":700,"o":"m 636 224 q 671 118 689 224 l 525 -14 l 307 -14 l 156 78 l 71 242 l 71 450 l 153 615 l 301 708 l 549 708 l 700 507 q 438 318 692 318 q 192 217 182 318 l 311 93 l 543 93 q 636 224 582 224 m 311 601 l 210 504 q 383 418 189 418 q 572 507 578 418 l 476 601 l 311 601 m 382 901 q 590 860 590 901 q 382 818 590 818 q 174 860 174 818 q 382 901 174 901 z "},"ę":{"ha":764,"x_min":71,"x_max":710,"o":"m 660 -171 q 710 -233 704 -171 l 617 -319 l 472 -319 l 388 -237 l 388 -106 l 440 -29 l 451 -14 l 307 -14 l 156 78 l 71 242 l 71 450 l 153 615 l 301 708 l 549 708 l 700 507 q 438 318 692 318 q 192 217 182 318 l 311 93 l 543 93 q 636 224 582 224 q 671 118 689 224 l 571 28 q 553 -11 565 11 q 519 -61 540 -33 l 482 -108 l 482 -229 l 583 -229 l 617 -192 q 660 -171 617 -171 m 311 601 l 210 504 q 383 418 189 418 q 572 507 578 418 l 476 601 l 311 601 z "},"f":{"ha":764,"x_min":94,"x_max":685,"o":"m 371 864 l 371 715 q 521 694 371 694 q 669 643 669 694 q 521 590 669 590 q 371 296 371 590 q 315 0 371 0 q 260 296 260 0 q 178 590 260 590 q 94 643 94 590 q 178 694 94 694 q 260 715 260 694 l 260 856 l 386 972 l 590 972 q 685 917 685 972 q 590 861 685 861 q 488 862 543 861 q 371 864 433 863 z "},"g":{"ha":764,"x_min":57,"x_max":740,"o":"m 740 636 q 651 575 740 575 q 576 594 578 603 q 631 536 575 586 l 631 317 l 553 182 l 422 110 q 261 106 344 110 l 188 81 l 188 25 l 219 0 l 515 0 l 660 -103 l 660 -249 q 604 -278 660 -278 q 549 -262 549 -278 l 549 -175 l 472 -107 l 76 -107 l 76 75 l 172 131 q 158 160 239 129 l 57 304 l 57 496 l 136 633 l 268 708 l 392 708 q 572 696 432 693 q 701 681 663 696 q 740 636 740 667 m 417 214 l 519 318 l 519 494 l 417 600 l 272 600 l 168 496 l 168 318 l 272 214 l 417 214 z "},"ğ":{"ha":764,"x_min":57,"x_max":740,"o":"m 740 636 q 651 575 740 575 q 576 594 578 603 q 631 536 575 586 l 631 317 l 553 182 l 422 110 q 261 106 344 110 l 188 81 l 188 25 l 219 0 l 515 0 l 660 -103 l 660 -249 q 604 -278 660 -278 q 549 -262 549 -278 l 549 -175 l 472 -107 l 76 -107 l 76 75 l 172 131 q 158 160 239 129 l 57 304 l 57 496 l 136 633 l 268 708 l 392 708 q 572 696 432 693 q 701 681 663 696 q 740 636 740 667 m 417 214 l 519 318 l 519 494 l 417 600 l 272 600 l 168 496 l 168 318 l 272 214 l 417 214 m 444 860 l 493 910 q 507 944 493 931 q 549 958 521 958 q 590 943 576 958 q 604 904 604 928 l 533 821 l 450 769 l 290 769 l 207 821 l 136 904 q 150 943 136 928 q 192 958 164 958 q 233 944 219 958 q 247 910 247 931 l 294 860 l 444 860 z "},"ģ":{"ha":764,"x_min":57,"x_max":740,"o":"m 740 636 q 651 575 740 575 q 576 594 578 603 q 631 536 575 586 l 631 317 l 553 182 l 422 110 q 261 106 344 110 l 188 81 l 188 25 l 219 0 l 515 0 l 660 -103 l 660 -249 q 604 -278 660 -278 q 549 -262 549 -278 l 549 -175 l 472 -107 l 76 -107 l 76 75 l 172 131 q 158 160 239 129 l 57 304 l 57 496 l 136 633 l 268 708 l 392 708 q 572 696 432 693 q 701 681 663 696 q 740 636 740 667 m 417 214 l 519 318 l 519 494 l 417 600 l 272 600 l 168 496 l 168 318 l 272 214 l 417 214 m 425 1031 q 429 1013 433 1015 l 403 988 l 376 942 q 410 904 376 913 q 444 829 444 899 q 369 763 444 763 q 294 808 294 763 l 294 936 l 358 1025 q 425 1031 418 1046 z "},"ġ":{"ha":764,"x_min":57,"x_max":740,"o":"m 740 636 q 651 575 740 575 q 576 594 578 603 q 631 536 575 586 l 631 317 l 553 182 l 422 110 q 261 106 344 110 l 188 81 l 188 25 l 219 0 l 515 0 l 660 -103 l 660 -249 q 604 -278 660 -278 q 549 -262 549 -278 l 549 -175 l 472 -107 l 76 -107 l 76 75 l 172 131 q 158 160 239 129 l 57 304 l 57 496 l 136 633 l 268 708 l 392 708 q 572 696 432 693 q 701 681 663 696 q 740 636 740 667 m 417 214 l 519 318 l 519 494 l 417 600 l 272 600 l 168 496 l 168 318 l 272 214 l 417 214 m 442 906 q 369 838 442 838 q 297 906 297 838 q 369 972 297 972 q 442 906 442 972 z "},"h":{"ha":764,"x_min":88,"x_max":676,"o":"m 503 708 l 606 663 l 676 551 l 676 231 q 621 0 676 0 q 565 217 565 0 l 565 597 l 317 597 l 217 479 q 199 204 199 408 q 143 0 199 0 q 88 486 88 0 q 143 972 88 972 q 199 731 199 972 q 224 568 199 488 l 349 708 l 503 708 z "},"ħ":{"ha":764,"x_min":-42,"x_max":676,"o":"m 503 708 l 606 663 l 676 551 l 676 231 q 621 0 676 0 q 565 217 565 0 l 565 597 l 317 597 l 217 479 q 199 204 199 408 q 143 0 199 0 q 88 486 88 0 q 89 637 88 568 q 94 760 90 706 q -42 800 -42 767 q 100 840 -42 835 q 143 972 115 972 q 194 842 185 972 q 375 800 375 840 q 199 758 375 763 l 199 731 q 224 568 199 488 l 349 708 l 503 708 z "},"i":{"ha":764,"x_min":118,"x_max":646,"o":"m 468 906 q 396 838 468 838 q 324 906 324 838 q 396 972 324 972 q 468 906 468 972 m 549 104 q 646 53 646 104 q 382 0 646 0 q 118 53 118 0 q 229 104 118 104 q 340 347 340 104 q 229 590 340 590 q 118 643 118 590 q 285 694 118 694 q 451 400 451 694 q 549 104 451 104 z "},"ı":{"ha":764,"x_min":118,"x_max":646,"o":"m 549 104 q 646 53 646 104 q 382 0 646 0 q 118 53 118 0 q 229 104 118 104 q 340 347 340 104 q 229 590 340 590 q 118 643 118 590 q 285 694 118 694 q 451 400 451 694 q 549 104 451 104 z "},"í":{"ha":764,"x_min":118,"x_max":646,"o":"m 549 104 q 646 53 646 104 q 382 0 646 0 q 118 53 118 0 q 229 104 118 104 q 340 347 340 104 q 229 590 340 590 q 118 643 118 590 q 285 694 118 694 q 451 400 451 694 q 549 104 451 104 m 424 906 q 546 975 500 954 q 604 979 592 996 q 581 925 615 963 q 472 839 546 888 q 351 769 397 789 q 293 765 306 749 q 316 819 282 782 q 424 906 350 857 z "},"î":{"ha":764,"x_min":118,"x_max":646,"o":"m 549 104 q 646 53 646 104 q 382 0 646 0 q 118 53 118 0 q 229 104 118 104 q 340 347 340 104 q 229 590 340 590 q 118 643 118 590 q 285 694 118 694 q 451 400 451 694 q 549 104 451 104 m 526 899 q 613 806 592 840 q 623 762 635 771 q 576 768 611 753 q 496 825 542 783 q 417 878 451 865 q 348 878 382 892 q 269 825 314 865 q 189 767 224 783 q 142 761 154 751 q 151 806 131 771 q 238 899 172 840 q 382 968 314 968 q 526 899 450 968 z "},"ï":{"ha":764,"x_min":118,"x_max":646,"o":"m 549 104 q 646 53 646 104 q 382 0 646 0 q 118 53 118 0 q 229 104 118 104 q 340 347 340 104 q 229 590 340 590 q 118 643 118 590 q 285 694 118 694 q 451 400 451 694 q 549 104 451 104 m 343 904 q 271 836 343 836 q 199 904 199 836 q 271 972 199 972 q 343 904 343 972 m 589 904 q 517 836 589 836 q 444 904 444 836 q 517 972 444 972 q 589 904 589 972 z "},"ì":{"ha":764,"x_min":118,"x_max":646,"o":"m 549 104 q 646 53 646 104 q 382 0 646 0 q 118 53 118 0 q 229 104 118 104 q 340 347 340 104 q 229 590 340 590 q 118 643 118 590 q 285 694 118 694 q 451 400 451 694 q 549 104 451 104 m 471 765 q 413 769 458 749 q 292 839 367 789 q 183 925 218 888 q 160 979 149 963 q 218 975 172 996 q 340 906 264 954 q 448 819 414 857 q 471 765 482 782 z "},"ĳ":{"ha":764,"x_min":35,"x_max":703,"o":"m 343 906 q 271 838 343 838 q 199 906 199 838 q 271 972 199 972 q 343 906 343 972 m 703 906 q 631 838 703 838 q 558 906 558 838 q 631 972 558 972 q 703 906 703 972 m 424 104 q 493 53 493 104 q 257 0 493 0 q 35 53 35 0 q 58 92 35 79 q 104 104 81 104 q 215 347 215 104 q 104 590 215 590 q 58 603 81 590 q 35 643 35 617 q 72 682 35 669 q 160 694 108 694 q 326 400 326 694 q 424 104 326 104 m 703 326 l 703 -161 l 576 -278 l 365 -278 q 264 -225 264 -278 q 365 -174 264 -174 q 456 -174 417 -174 q 525 -175 496 -174 l 592 -115 l 592 275 q 497 590 592 590 q 389 643 389 590 q 553 694 389 694 q 703 326 703 694 z "},"ī":{"ha":764,"x_min":118,"x_max":646,"o":"m 549 104 q 646 53 646 104 q 382 0 646 0 q 118 53 118 0 q 229 104 118 104 q 340 347 340 104 q 229 590 340 590 q 118 643 118 590 q 285 694 118 694 q 451 400 451 694 q 549 104 451 104 m 382 901 q 590 860 590 901 q 382 818 590 818 q 174 860 174 818 q 382 901 174 901 z "},"į":{"ha":764,"x_min":118,"x_max":765,"o":"m 396 838 q 324 906 324 838 q 396 972 324 972 q 468 906 468 972 q 396 838 468 838 m 715 -171 q 765 -233 760 -171 l 672 -319 l 528 -319 l 443 -237 l 443 -106 l 496 -29 q 510 -11 503 -19 q 522 6 517 -3 q 458 1 493 3 q 382 0 424 0 q 118 53 118 0 q 229 104 118 104 q 340 347 340 104 q 229 590 340 590 q 118 643 118 590 q 285 694 118 694 q 451 400 451 694 q 549 104 451 104 q 646 53 646 104 q 628 29 646 39 q 610 -11 622 11 q 575 -61 597 -33 l 538 -108 l 538 -229 l 639 -229 l 672 -192 q 715 -171 672 -171 z "},"j":{"ha":764,"x_min":138,"x_max":576,"o":"m 576 906 q 504 838 576 838 q 432 906 432 838 q 504 972 432 972 q 576 906 576 972 m 576 326 l 576 -161 l 450 -278 l 239 -278 q 138 -225 138 -278 q 239 -174 138 -174 q 330 -174 290 -174 q 399 -175 369 -174 l 465 -115 l 465 275 q 301 590 465 590 q 138 643 138 590 q 357 694 138 694 q 576 326 576 694 z "},"k":{"ha":764,"x_min":88,"x_max":713,"o":"m 88 486 q 143 972 88 972 q 199 486 199 972 q 143 0 199 0 q 88 486 88 0 m 540 193 q 643 0 713 0 q 578 26 619 0 q 491 95 538 51 q 405 194 444 139 q 343 310 365 249 q 328 431 321 371 q 385 542 336 490 q 611 694 533 694 q 529 540 690 694 q 540 193 368 386 z "},"ķ":{"ha":764,"x_min":88,"x_max":713,"o":"m 88 486 q 143 972 88 972 q 199 486 199 972 q 143 0 199 0 q 88 486 88 0 m 540 193 q 643 0 713 0 q 578 26 619 0 q 491 95 538 51 q 405 194 444 139 q 343 310 365 249 q 328 431 321 371 q 385 542 336 490 q 611 694 533 694 q 529 540 690 694 q 540 193 368 386 m 285 -336 q 281 -318 276 -321 l 307 -293 l 333 -247 q 300 -210 333 -218 q 265 -135 265 -204 q 340 -68 265 -68 q 415 -114 415 -68 l 415 -242 l 351 -331 q 285 -336 292 -351 z "},"l":{"ha":764,"x_min":89,"x_max":669,"o":"m 596 104 q 669 53 669 104 q 596 0 669 0 l 411 0 l 285 117 l 285 553 q 188 868 285 868 q 89 921 89 868 q 188 972 89 972 l 340 972 q 396 604 396 972 l 396 163 l 463 103 q 525 104 492 104 q 596 104 558 104 z "},"ĺ":{"ha":764,"x_min":89,"x_max":669,"o":"m 596 104 q 669 53 669 104 q 596 0 669 0 l 411 0 l 285 117 l 285 553 q 188 868 285 868 q 89 921 89 868 q 188 972 89 972 l 340 972 q 396 604 396 972 l 396 163 l 463 103 q 525 104 492 104 q 596 104 558 104 m 294 1183 q 417 1253 371 1232 q 475 1257 463 1274 q 451 1203 486 1240 q 343 1117 417 1165 q 222 1047 268 1067 q 164 1043 176 1026 q 187 1097 153 1060 q 294 1183 221 1135 z "},"ľ":{"ha":764,"x_min":89,"x_max":669,"o":"m 596 104 q 669 53 669 104 q 596 0 669 0 l 411 0 l 285 117 l 285 553 q 188 868 285 868 q 89 921 89 868 q 188 972 89 972 l 340 972 q 396 604 396 972 l 396 163 l 463 103 q 525 104 492 104 q 596 104 558 104 m 604 704 l 560 704 q 535 748 546 725 q 517 808 524 771 q 511 907 511 846 q 586 974 511 974 q 642 960 624 974 q 661 907 661 946 q 653 807 661 844 q 632 747 644 769 q 604 704 619 724 z "},"ļ":{"ha":764,"x_min":89,"x_max":669,"o":"m 596 104 q 669 53 669 104 q 596 0 669 0 l 411 0 l 285 117 l 285 553 q 188 868 285 868 q 89 921 89 868 q 188 972 89 972 l 340 972 q 396 604 396 972 l 396 163 l 463 103 q 525 104 492 104 q 596 104 558 104 m 326 -336 q 322 -318 318 -321 l 349 -293 l 375 -247 q 342 -210 375 -218 q 307 -135 307 -204 q 382 -68 307 -68 q 457 -114 457 -68 l 457 -242 l 393 -331 q 326 -336 333 -351 z "},"ŀ":{"ha":764,"x_min":89,"x_max":669,"o":"m 596 104 q 669 53 669 104 q 596 0 669 0 l 411 0 l 285 117 l 285 553 q 188 868 285 868 q 89 921 89 868 q 188 972 89 972 l 340 972 q 396 604 396 972 l 396 163 l 463 103 q 525 104 492 104 q 596 104 558 104 m 663 488 q 590 419 663 419 q 518 488 518 419 q 590 556 518 556 q 663 488 663 556 z "},"ł":{"ha":764,"x_min":89,"x_max":669,"o":"m 596 104 q 669 53 669 104 q 596 0 669 0 l 411 0 l 285 117 l 285 361 q 191 310 232 328 q 142 307 150 293 q 153 342 135 318 q 206 400 171 367 q 285 467 242 433 l 285 553 q 188 868 285 868 q 89 921 89 868 q 188 972 89 972 l 340 972 q 396 604 396 972 l 396 546 q 501 606 454 585 q 557 613 547 626 q 544 574 565 601 q 483 510 522 546 q 396 439 443 475 l 396 163 l 463 103 q 525 104 492 104 q 596 104 558 104 z "},"m":{"ha":764,"x_min":46,"x_max":718,"o":"m 718 708 l 718 231 q 663 0 718 0 q 607 238 607 0 l 607 539 l 578 597 l 478 597 q 439 231 439 463 q 386 0 439 0 q 333 238 333 0 l 333 540 l 308 597 l 226 597 l 171 483 q 160 379 164 449 q 157 207 157 310 q 101 0 157 0 q 46 347 46 0 q 101 694 46 694 q 157 596 157 694 q 175 578 157 500 l 250 708 l 392 708 q 434 592 421 618 q 457 601 447 565 l 529 708 l 718 708 z "},"n":{"ha":764,"x_min":88,"x_max":676,"o":"m 503 708 l 606 663 l 676 551 l 676 231 q 621 0 676 0 q 565 217 565 0 l 565 597 l 317 597 l 218 478 q 199 203 199 403 q 143 0 199 0 q 88 347 88 0 q 143 694 88 694 q 199 592 199 694 q 224 568 199 488 l 349 708 l 503 708 z "},"ń":{"ha":764,"x_min":88,"x_max":676,"o":"m 503 708 l 606 663 l 676 551 l 676 231 q 621 0 676 0 q 565 217 565 0 l 565 597 l 317 597 l 218 478 q 199 203 199 403 q 143 0 199 0 q 88 347 88 0 q 143 694 88 694 q 199 592 199 694 q 224 568 199 488 l 349 708 l 503 708 m 451 906 q 574 975 528 954 q 632 979 619 996 q 608 925 643 963 q 500 839 574 888 q 379 769 425 789 q 321 765 333 749 q 344 819 310 782 q 451 906 378 857 z "},"ň":{"ha":764,"x_min":88,"x_max":676,"o":"m 503 708 l 606 663 l 676 551 l 676 231 q 621 0 676 0 q 565 217 565 0 l 565 597 l 317 597 l 218 478 q 199 203 199 403 q 143 0 199 0 q 88 347 88 0 q 143 694 88 694 q 199 592 199 694 q 224 568 199 488 l 349 708 l 503 708 m 554 840 q 410 772 478 772 q 265 840 342 772 q 179 933 200 899 q 170 978 158 968 q 217 972 182 988 q 297 914 251 956 q 376 860 342 874 q 444 860 410 847 q 524 914 479 874 q 604 971 569 956 q 651 977 639 986 q 641 933 663 968 q 554 840 619 899 z "},"ņ":{"ha":764,"x_min":88,"x_max":676,"o":"m 503 708 l 606 663 l 676 551 l 676 231 q 621 0 676 0 q 565 217 565 0 l 565 597 l 317 597 l 218 478 q 199 203 199 403 q 143 0 199 0 q 88 347 88 0 q 143 694 88 694 q 199 592 199 694 q 224 568 199 488 l 349 708 l 503 708 m 326 -336 q 322 -318 318 -321 l 349 -293 l 375 -247 q 342 -210 375 -218 q 307 -135 307 -204 q 382 -68 307 -68 q 457 -114 457 -68 l 457 -242 l 393 -331 q 326 -336 333 -351 z "},"ŋ":{"ha":764,"x_min":88,"x_max":676,"o":"m 503 708 l 606 663 l 676 551 l 676 -114 l 599 -233 l 471 -292 q 399 -236 399 -292 q 474 -181 399 -181 l 565 -104 l 565 597 l 317 597 l 218 478 q 199 203 199 403 q 143 0 199 0 q 88 347 88 0 q 143 694 88 694 q 199 592 199 694 q 224 568 199 488 l 349 708 l 503 708 z "},"ñ":{"ha":764,"x_min":88,"x_max":682,"o":"m 503 708 l 606 663 l 676 551 l 676 231 q 621 0 676 0 q 565 217 565 0 l 565 597 l 317 597 l 218 478 q 199 203 199 403 q 143 0 199 0 q 88 347 88 0 q 143 694 88 694 q 199 592 199 694 q 224 568 199 488 l 349 708 l 503 708 m 633 939 q 682 928 679 939 l 682 842 l 606 775 l 503 775 l 440 790 q 404 817 421 804 q 372 839 388 829 l 329 875 l 271 875 l 233 818 q 188 789 233 789 q 140 800 143 789 l 140 886 l 221 953 l 332 953 l 396 938 q 467 888 436 911 l 507 853 l 588 853 q 599 914 588 889 q 633 939 611 939 z "},"o":{"ha":764,"x_min":71,"x_max":693,"o":"m 292 -14 l 150 74 l 71 236 l 71 456 l 150 619 l 292 708 l 474 708 l 614 619 l 693 456 l 693 236 l 615 74 l 475 -14 l 292 -14 m 474 93 l 582 226 l 582 465 l 474 601 l 293 601 l 182 465 l 182 226 l 292 93 l 474 93 z "},"ó":{"ha":764,"x_min":71,"x_max":693,"o":"m 292 -14 l 150 74 l 71 236 l 71 456 l 150 619 l 292 708 l 474 708 l 614 619 l 693 456 l 693 236 l 615 74 l 475 -14 l 292 -14 m 474 93 l 582 226 l 582 465 l 474 601 l 293 601 l 182 465 l 182 226 l 292 93 l 474 93 m 424 906 q 546 975 500 954 q 604 979 592 996 q 581 925 615 963 q 472 839 546 888 q 351 769 397 789 q 293 765 306 749 q 316 819 282 782 q 424 906 350 857 z "},"ô":{"ha":764,"x_min":71,"x_max":693,"o":"m 292 -14 l 150 74 l 71 236 l 71 456 l 150 619 l 292 708 l 474 708 l 614 619 l 693 456 l 693 236 l 615 74 l 475 -14 l 292 -14 m 474 93 l 582 226 l 582 465 l 474 601 l 293 601 l 182 465 l 182 226 l 292 93 l 474 93 m 526 899 q 613 806 592 840 q 623 762 635 771 q 576 768 611 753 q 496 825 542 783 q 417 878 451 865 q 348 878 382 892 q 269 825 314 865 q 189 767 224 783 q 142 761 154 751 q 151 806 131 771 q 238 899 172 840 q 382 968 314 968 q 526 899 450 968 z "},"ö":{"ha":764,"x_min":71,"x_max":693,"o":"m 292 -14 l 150 74 l 71 236 l 71 456 l 150 619 l 292 708 l 474 708 l 614 619 l 693 456 l 693 236 l 615 74 l 475 -14 l 292 -14 m 474 93 l 582 226 l 582 465 l 474 601 l 293 601 l 182 465 l 182 226 l 292 93 l 474 93 m 340 904 q 268 836 340 836 q 196 904 196 836 q 268 972 196 972 q 340 904 340 972 m 588 904 q 515 836 588 836 q 443 904 443 836 q 515 972 443 972 q 588 904 588 972 z "},"ȯ":{"ha":764,"x_min":71,"x_max":693,"o":"m 292 -14 l 150 74 l 71 236 l 71 456 l 150 619 l 292 708 l 474 708 l 614 619 l 693 456 l 693 236 l 615 74 l 475 -14 l 292 -14 m 474 93 l 582 226 l 582 465 l 474 601 l 293 601 l 182 465 l 182 226 l 292 93 l 474 93 m 454 906 q 382 838 454 838 q 310 906 310 838 q 382 972 310 972 q 454 906 454 972 z "},"ò":{"ha":764,"x_min":71,"x_max":693,"o":"m 292 -14 l 150 74 l 71 236 l 71 456 l 150 619 l 292 708 l 474 708 l 614 619 l 693 456 l 693 236 l 615 74 l 475 -14 l 292 -14 m 474 93 l 582 226 l 582 465 l 474 601 l 293 601 l 182 465 l 182 226 l 292 93 l 474 93 m 471 765 q 413 769 458 749 q 292 839 367 789 q 183 925 218 888 q 160 979 149 963 q 218 975 172 996 q 340 906 264 954 q 448 819 414 857 q 471 765 482 782 z "},"ő":{"ha":764,"x_min":71,"x_max":789,"o":"m 292 -14 l 150 74 l 71 236 l 71 456 l 150 619 l 292 708 l 474 708 l 614 619 l 693 456 l 693 236 l 615 74 l 475 -14 l 292 -14 m 474 93 l 582 226 l 582 465 l 474 601 l 293 601 l 182 465 l 182 226 l 292 93 l 474 93 m 597 906 q 719 975 674 954 q 778 979 765 996 q 754 925 789 963 q 646 839 719 888 q 525 769 571 789 q 467 765 479 749 q 490 819 456 782 q 597 906 524 857 m 313 906 q 435 975 389 954 q 493 979 481 996 q 469 925 504 963 q 361 839 435 888 q 240 769 286 789 q 182 765 194 749 q 205 819 171 782 q 313 906 239 857 z "},"ō":{"ha":764,"x_min":71,"x_max":693,"o":"m 292 -14 l 150 74 l 71 236 l 71 456 l 150 619 l 292 708 l 474 708 l 614 619 l 693 456 l 693 236 l 615 74 l 475 -14 l 292 -14 m 474 93 l 582 226 l 582 465 l 474 601 l 293 601 l 182 465 l 182 226 l 292 93 l 474 93 m 382 901 q 590 860 590 901 q 382 818 590 818 q 174 860 174 818 q 382 901 174 901 z "},"ø":{"ha":764,"x_min":71,"x_max":693,"o":"m 644 571 l 693 432 l 693 236 l 615 74 l 475 -14 l 308 -14 q 228 -8 243 18 q 197 -20 218 -25 q 160 2 175 -15 q 157 39 146 19 q 125 114 174 65 l 71 256 l 71 456 l 150 619 l 292 708 l 467 708 q 549 701 532 672 q 583 717 560 721 q 619 694 606 713 q 619 653 633 676 q 644 571 599 618 m 182 233 q 227 226 199 211 q 289 281 256 242 q 354 372 322 321 q 409 472 386 422 q 440 558 432 522 q 433 601 447 593 l 293 601 l 182 465 l 182 233 m 474 93 l 582 226 l 582 450 q 541 457 568 472 q 482 403 514 442 q 419 314 450 364 q 364 215 388 264 q 331 133 340 167 q 335 93 322 99 l 474 93 z "},"õ":{"ha":764,"x_min":71,"x_max":693,"o":"m 292 -14 l 150 74 l 71 236 l 71 456 l 150 619 l 292 708 l 474 708 l 614 619 l 693 456 l 693 236 l 615 74 l 475 -14 l 292 -14 m 474 93 l 582 226 l 582 465 l 474 601 l 293 601 l 182 465 l 182 226 l 292 93 l 474 93 m 606 939 q 654 928 651 939 l 654 842 l 578 775 l 475 775 l 413 790 q 376 817 393 804 q 344 839 360 829 l 301 875 l 243 875 l 206 818 q 160 789 206 789 q 113 800 115 789 l 113 886 l 193 953 l 304 953 l 368 938 q 439 888 408 911 l 479 853 l 560 853 q 572 914 560 889 q 606 939 583 939 z "},"œ":{"ha":764,"x_min":29,"x_max":740,"o":"m 646 708 l 733 546 q 737 419 733 465 q 732 351 740 372 q 690 324 724 329 q 581 318 656 318 q 429 208 429 318 l 488 93 l 586 93 l 618 158 q 675 224 622 224 q 721 115 728 224 l 638 -14 l 447 -14 q 346 -14 392 96 l 140 -14 l 29 175 l 29 515 l 140 708 l 342 708 q 442 708 390 599 l 646 708 m 294 93 l 346 222 l 346 468 l 294 601 l 189 601 l 140 472 l 140 218 l 188 93 l 294 93 m 531 415 q 624 506 624 415 l 585 601 l 490 601 l 436 497 q 531 415 436 415 z "},"p":{"ha":764,"x_min":88,"x_max":693,"o":"m 504 708 l 625 617 l 693 453 l 693 244 l 624 79 l 496 -14 l 242 -14 q 199 -40 199 193 q 143 -278 199 -278 q 88 208 88 -278 q 142 694 88 694 q 194 679 194 694 l 199 597 l 199 513 q 204 505 199 490 q 221 569 210 519 l 332 708 l 504 708 m 493 94 l 582 231 l 582 463 l 486 601 l 303 601 l 199 458 l 199 232 l 303 94 l 493 94 z "},"þ":{"ha":764,"x_min":88,"x_max":693,"o":"m 504 708 l 625 617 l 693 453 l 693 244 l 624 79 l 496 -14 l 242 -14 q 199 -40 199 193 q 143 -278 199 -278 q 88 347 88 -278 q 142 972 88 972 q 171 943 160 972 q 188 866 182 914 q 197 763 194 818 q 199 656 199 708 q 199 565 200 604 q 199 513 199 526 q 204 505 199 490 q 221 569 210 519 l 332 708 l 504 708 m 493 94 l 582 231 l 582 463 l 486 601 l 303 601 l 199 458 l 199 232 l 303 94 l 493 94 z "},"q":{"ha":764,"x_min":71,"x_max":676,"o":"m 621 694 q 676 208 676 694 q 621 -278 676 -278 q 565 -32 565 -278 q 544 114 565 213 l 436 -14 l 264 -14 l 139 78 l 71 242 l 71 450 l 139 614 l 264 708 l 442 708 l 546 604 q 560 556 556 557 q 565 603 565 556 q 621 694 565 694 m 464 93 l 565 236 l 565 463 l 464 601 l 274 601 l 182 465 l 182 231 l 281 93 l 464 93 z "},"r":{"ha":764,"x_min":88,"x_max":644,"o":"m 497 594 l 357 504 q 336 278 336 450 q 457 104 336 104 q 576 53 576 104 q 332 0 576 0 q 88 53 88 0 q 157 104 88 104 q 225 400 225 104 q 281 694 225 694 q 336 604 336 694 q 342 555 336 560 q 360 586 349 550 l 503 708 q 644 651 644 708 q 497 594 644 594 z "},"ŕ":{"ha":764,"x_min":88,"x_max":644,"o":"m 497 594 l 357 504 q 336 278 336 450 q 457 104 336 104 q 576 53 576 104 q 332 0 576 0 q 88 53 88 0 q 157 104 88 104 q 225 400 225 104 q 281 694 225 694 q 336 604 336 694 q 342 555 336 560 q 360 586 349 550 l 503 708 q 644 651 644 708 q 497 594 644 594 m 451 906 q 574 975 528 954 q 632 979 619 996 q 608 925 643 963 q 500 839 574 888 q 379 769 425 789 q 321 765 333 749 q 344 819 310 782 q 451 906 378 857 z "},"ř":{"ha":764,"x_min":88,"x_max":663,"o":"m 497 594 l 357 504 q 336 278 336 450 q 457 104 336 104 q 576 53 576 104 q 332 0 576 0 q 88 53 88 0 q 157 104 88 104 q 225 400 225 104 q 281 694 225 694 q 336 604 336 694 q 342 555 336 560 q 360 586 349 550 l 503 708 q 644 651 644 708 q 497 594 644 594 m 554 840 q 410 772 478 772 q 265 840 342 772 q 179 933 200 899 q 170 978 158 968 q 217 972 182 988 q 297 914 251 956 q 376 860 342 874 q 444 860 410 847 q 524 914 479 874 q 604 971 569 956 q 651 977 639 986 q 641 933 663 968 q 554 840 619 899 z "},"ŗ":{"ha":764,"x_min":88,"x_max":644,"o":"m 497 594 l 357 504 q 336 278 336 450 q 457 104 336 104 q 576 53 576 104 q 332 0 576 0 q 88 53 88 0 q 157 104 88 104 q 225 400 225 104 q 281 694 225 694 q 336 604 336 694 q 342 555 336 560 q 360 586 349 550 l 503 708 q 644 651 644 708 q 497 594 644 594 m 285 -336 q 281 -318 276 -321 l 307 -293 l 333 -247 q 300 -210 333 -218 q 265 -135 265 -204 q 340 -68 265 -68 q 415 -114 415 -68 l 415 -242 l 351 -331 q 285 -336 292 -351 z "},"s":{"ha":764,"x_min":89,"x_max":672,"o":"m 144 224 q 210 167 194 224 l 324 92 l 494 92 l 561 139 l 561 231 l 497 275 q 392 294 449 283 q 269 315 335 304 l 133 414 l 133 596 l 268 708 l 492 708 l 629 589 q 583 485 632 485 q 515 599 533 485 l 317 599 l 244 551 l 244 465 l 322 417 q 430 396 372 407 q 553 374 488 385 l 672 281 l 672 92 l 543 -14 l 301 -14 l 149 75 l 89 188 q 144 224 93 224 z "},"ś":{"ha":764,"x_min":89,"x_max":672,"o":"m 144 224 q 210 167 194 224 l 324 92 l 494 92 l 561 139 l 561 231 l 497 275 q 392 294 449 283 q 269 315 335 304 l 133 414 l 133 596 l 268 708 l 492 708 l 629 589 q 583 485 632 485 q 515 599 533 485 l 317 599 l 244 551 l 244 465 l 322 417 q 430 396 372 407 q 553 374 488 385 l 672 281 l 672 92 l 543 -14 l 301 -14 l 149 75 l 89 188 q 144 224 93 224 m 424 906 q 546 975 500 954 q 604 979 592 996 q 581 925 615 963 q 472 839 546 888 q 351 769 397 789 q 293 765 306 749 q 316 819 282 782 q 424 906 350 857 z "},"š":{"ha":764,"x_min":89,"x_max":672,"o":"m 144 224 q 210 167 194 224 l 324 92 l 494 92 l 561 139 l 561 231 l 497 275 q 392 294 449 283 q 269 315 335 304 l 133 414 l 133 596 l 268 708 l 492 708 l 629 589 q 583 485 632 485 q 515 599 533 485 l 317 599 l 244 551 l 244 465 l 322 417 q 430 396 372 407 q 553 374 488 385 l 672 281 l 672 92 l 543 -14 l 301 -14 l 149 75 l 89 188 q 144 224 93 224 m 526 840 q 382 772 450 772 q 238 840 314 772 q 151 933 172 899 q 142 978 131 968 q 189 972 154 988 q 269 914 224 956 q 348 860 314 874 q 417 860 382 847 q 496 914 451 874 q 576 971 542 956 q 623 977 611 986 q 613 933 635 968 q 526 840 592 899 z "},"ş":{"ha":764,"x_min":89,"x_max":672,"o":"m 553 374 l 672 281 l 672 92 l 543 -14 l 426 -14 q 439 -27 433 -19 q 450 -43 444 -35 l 503 -119 l 503 -251 l 418 -333 l 274 -333 l 181 -247 q 231 -185 188 -185 q 274 -206 274 -185 l 307 -243 l 408 -243 l 408 -122 l 371 -75 q 339 -14 343 -39 l 301 -14 l 149 75 l 89 188 q 144 224 93 224 q 210 167 194 224 l 324 92 l 494 92 l 561 139 l 561 231 l 497 275 q 392 294 449 283 q 269 315 335 304 l 133 414 l 133 596 l 268 708 l 492 708 l 629 589 q 583 485 632 485 q 515 599 533 485 l 317 599 l 244 551 l 244 465 l 322 417 q 430 396 372 407 q 553 374 488 385 z "},"ș":{"ha":764,"x_min":89,"x_max":672,"o":"m 144 224 q 210 167 194 224 l 324 92 l 494 92 l 561 139 l 561 231 l 497 275 q 392 294 449 283 q 269 315 335 304 l 133 414 l 133 596 l 268 708 l 492 708 l 629 589 q 583 485 632 485 q 515 599 533 485 l 317 599 l 244 551 l 244 465 l 322 417 q 430 396 372 407 q 553 374 488 385 l 672 281 l 672 92 l 543 -14 l 301 -14 l 149 75 l 89 188 q 144 224 93 224 m 326 -336 q 322 -318 318 -321 l 349 -293 l 375 -247 q 342 -210 375 -218 q 307 -135 307 -204 q 382 -68 307 -68 q 457 -114 457 -68 l 457 -242 l 393 -331 q 326 -336 333 -351 z "},"ß":{"ha":764,"x_min":104,"x_max":679,"o":"m 547 276 l 679 158 l 679 -29 l 607 -150 l 467 -222 q 369 -171 369 -222 q 469 -119 369 -119 l 568 -35 l 568 121 l 476 208 l 356 208 q 329 260 329 208 q 406 451 329 313 q 349 590 482 590 q 215 296 215 590 q 160 0 215 0 q 104 368 104 0 l 104 856 l 231 972 l 372 972 q 404 917 404 972 q 372 861 404 861 q 317 862 357 861 q 215 864 278 863 l 215 715 q 411 694 215 694 q 607 644 607 694 q 522 439 607 592 q 547 276 438 283 z "},"t":{"ha":764,"x_min":94,"x_max":656,"o":"m 519 590 q 382 414 382 590 l 382 163 l 449 103 q 511 104 478 104 q 582 104 544 104 q 656 53 656 104 q 582 0 656 0 l 397 0 l 271 117 l 271 414 q 183 590 271 590 q 94 643 94 590 q 183 694 94 694 q 271 785 271 694 q 326 875 271 875 q 382 785 382 875 q 519 694 382 694 q 656 643 656 694 q 519 590 656 590 z "},"ŧ":{"ha":764,"x_min":94,"x_max":656,"o":"m 582 104 q 656 53 656 104 q 582 0 656 0 l 397 0 l 271 117 l 271 325 q 139 375 139 333 q 271 425 139 417 q 183 590 269 590 q 94 643 94 590 q 183 694 94 694 q 271 785 271 694 q 326 875 271 875 q 382 785 382 875 q 519 694 382 694 q 656 643 656 694 q 519 590 656 590 q 382 426 386 590 q 542 375 542 421 q 382 324 542 329 l 382 163 l 449 103 q 511 104 478 104 q 582 104 544 104 z "},"ť":{"ha":764,"x_min":94,"x_max":656,"o":"m 519 590 q 382 414 382 590 l 382 163 l 449 103 q 511 104 478 104 q 582 104 544 104 q 656 53 656 104 q 582 0 656 0 l 397 0 l 271 117 l 271 414 q 183 590 271 590 q 94 643 94 590 q 183 694 94 694 q 271 785 271 694 q 326 875 271 875 q 382 785 382 875 q 519 694 382 694 q 656 643 656 694 q 519 590 656 590 m 561 772 l 517 772 q 492 816 503 793 q 474 876 481 839 q 468 975 468 914 q 543 1042 468 1042 q 599 1028 581 1042 q 618 975 618 1014 q 610 875 618 913 q 589 815 601 838 q 561 772 576 792 z "},"ţ":{"ha":764,"x_min":94,"x_max":656,"o":"m 582 104 q 656 53 656 104 q 582 0 656 0 l 468 0 q 506 -43 488 -18 l 558 -119 l 558 -251 l 474 -333 l 329 -333 l 236 -247 q 286 -185 243 -185 q 329 -206 329 -185 l 363 -243 l 464 -243 l 464 -122 l 426 -75 q 399 -30 407 -50 q 393 4 392 -10 l 271 117 l 271 414 q 183 590 271 590 q 94 643 94 590 q 183 694 94 694 q 271 785 271 694 q 326 875 271 875 q 382 785 382 875 q 519 694 382 694 q 656 643 656 694 q 519 590 656 590 q 382 414 382 590 l 382 163 l 449 103 q 511 104 478 104 q 582 104 544 104 z "},"ț":{"ha":764,"x_min":94,"x_max":656,"o":"m 519 590 q 382 414 382 590 l 382 163 l 449 103 q 511 104 478 104 q 582 104 544 104 q 656 53 656 104 q 582 0 656 0 l 397 0 l 271 117 l 271 414 q 183 590 271 590 q 94 643 94 590 q 183 694 94 694 q 271 785 271 694 q 326 875 271 875 q 382 785 382 875 q 519 694 382 694 q 656 643 656 694 q 519 590 656 590 m 397 -336 q 393 -318 389 -321 l 419 -293 l 446 -247 q 413 -210 446 -218 q 378 -135 378 -204 q 453 -68 378 -68 q 528 -114 528 -68 l 528 -242 l 464 -331 q 397 -336 404 -351 z "},"u":{"ha":764,"x_min":88,"x_max":676,"o":"m 621 694 q 676 347 676 694 q 621 0 676 0 q 565 106 565 0 q 540 122 565 213 l 422 -14 l 261 -14 l 158 32 l 88 143 l 88 464 q 143 694 88 694 q 199 478 199 694 l 199 97 l 447 97 l 546 217 q 565 492 565 292 q 621 694 565 694 z "},"ú":{"ha":764,"x_min":88,"x_max":676,"o":"m 621 694 q 676 347 676 694 q 621 0 676 0 q 565 106 565 0 q 540 122 565 213 l 422 -14 l 261 -14 l 158 32 l 88 143 l 88 464 q 143 694 88 694 q 199 478 199 694 l 199 97 l 447 97 l 546 217 q 565 492 565 292 q 621 694 565 694 m 424 906 q 546 975 500 954 q 604 979 592 996 q 581 925 615 963 q 472 839 546 888 q 351 769 397 789 q 293 765 306 749 q 316 819 282 782 q 424 906 350 857 z "},"û":{"ha":764,"x_min":88,"x_max":676,"o":"m 621 694 q 676 347 676 694 q 621 0 676 0 q 565 106 565 0 q 540 122 565 213 l 422 -14 l 261 -14 l 158 32 l 88 143 l 88 464 q 143 694 88 694 q 199 478 199 694 l 199 97 l 447 97 l 546 217 q 565 492 565 292 q 621 694 565 694 m 526 899 q 613 806 592 840 q 623 762 635 771 q 576 768 611 753 q 496 825 542 783 q 417 878 451 865 q 348 878 382 892 q 269 825 314 865 q 189 767 224 783 q 142 761 154 751 q 151 806 131 771 q 238 899 172 840 q 382 968 314 968 q 526 899 450 968 z "},"ü":{"ha":764,"x_min":88,"x_max":676,"o":"m 621 694 q 676 347 676 694 q 621 0 676 0 q 565 106 565 0 q 540 122 565 213 l 422 -14 l 261 -14 l 158 32 l 88 143 l 88 464 q 143 694 88 694 q 199 478 199 694 l 199 97 l 447 97 l 546 217 q 565 492 565 292 q 621 694 565 694 m 340 904 q 268 836 340 836 q 196 904 196 836 q 268 972 196 972 q 340 904 340 972 m 588 904 q 515 836 588 836 q 443 904 443 836 q 515 972 443 972 q 588 904 588 972 z "},"ù":{"ha":764,"x_min":88,"x_max":676,"o":"m 621 694 q 676 347 676 694 q 621 0 676 0 q 565 106 565 0 q 540 122 565 213 l 422 -14 l 261 -14 l 158 32 l 88 143 l 88 464 q 143 694 88 694 q 199 478 199 694 l 199 97 l 447 97 l 546 217 q 565 492 565 292 q 621 694 565 694 m 471 765 q 413 769 458 749 q 292 839 367 789 q 183 925 218 888 q 160 979 149 963 q 218 975 172 996 q 340 906 264 954 q 448 819 414 857 q 471 765 482 782 z "},"ű":{"ha":764,"x_min":88,"x_max":789,"o":"m 621 694 q 676 347 676 694 q 621 0 676 0 q 565 106 565 0 q 540 122 565 213 l 422 -14 l 261 -14 l 158 32 l 88 143 l 88 464 q 143 694 88 694 q 199 478 199 694 l 199 97 l 447 97 l 546 217 q 565 492 565 292 q 621 694 565 694 m 597 906 q 719 975 674 954 q 778 979 765 996 q 754 925 789 963 q 646 839 719 888 q 525 769 571 789 q 467 765 479 749 q 490 819 456 782 q 597 906 524 857 m 313 906 q 435 975 389 954 q 493 979 481 996 q 469 925 504 963 q 361 839 435 888 q 240 769 286 789 q 182 765 194 749 q 205 819 171 782 q 313 906 239 857 z "},"ū":{"ha":764,"x_min":88,"x_max":676,"o":"m 621 694 q 676 347 676 694 q 621 0 676 0 q 565 106 565 0 q 540 122 565 213 l 422 -14 l 261 -14 l 158 32 l 88 143 l 88 464 q 143 694 88 694 q 199 478 199 694 l 199 97 l 447 97 l 546 217 q 565 492 565 292 q 621 694 565 694 m 382 901 q 590 860 590 901 q 382 818 590 818 q 174 860 174 818 q 382 901 174 901 z "},"ų":{"ha":764,"x_min":88,"x_max":793,"o":"m 743 -171 q 793 -233 788 -171 l 700 -319 l 556 -319 l 471 -237 l 471 -106 l 524 -29 q 551 6 538 -10 q 575 35 564 22 q 565 106 565 58 q 540 122 565 213 l 422 -14 l 261 -14 l 158 32 l 88 143 l 88 464 q 143 694 88 694 q 199 478 199 694 l 199 97 l 447 97 l 546 217 q 565 492 565 292 q 621 694 565 694 q 676 347 676 694 q 672 174 676 246 q 658 61 668 103 q 650 14 663 46 q 603 -61 638 -18 l 565 -108 l 565 -229 l 667 -229 l 700 -192 q 743 -171 700 -171 z "},"ů":{"ha":764,"x_min":88,"x_max":676,"o":"m 621 694 q 676 347 676 694 q 621 0 676 0 q 565 106 565 0 q 540 122 565 213 l 422 -14 l 261 -14 l 158 32 l 88 143 l 88 464 q 143 694 88 694 q 199 478 199 694 l 199 97 l 447 97 l 546 217 q 565 492 565 292 q 621 694 565 694 m 310 763 l 208 851 l 208 968 l 310 1056 l 454 1056 l 556 968 l 556 851 l 454 763 l 310 763 m 413 839 l 471 878 l 471 942 l 413 979 l 351 979 l 293 942 l 293 878 l 351 839 l 413 839 z "},"v":{"ha":764,"x_min":97,"x_max":668,"o":"m 651 694 q 665 657 668 694 q 645 558 663 619 q 601 422 628 496 q 542 273 574 347 q 480 137 511 199 q 423 38 449 75 q 382 0 397 0 q 341 38 367 0 q 284 137 315 75 q 222 273 253 199 q 163 422 190 347 q 119 558 136 496 q 100 657 103 619 q 114 694 97 694 q 278 415 174 694 q 486 415 381 136 q 651 694 590 694 z "},"w":{"ha":764,"x_min":86,"x_max":678,"o":"m 651 694 q 673 657 668 694 q 673 558 678 619 q 656 422 668 496 q 626 273 643 347 q 591 137 610 199 q 554 38 572 75 q 522 0 536 0 q 424 246 472 0 q 375 369 400 369 q 326 246 350 369 q 228 0 279 0 q 197 38 214 0 q 162 137 179 75 q 129 273 144 199 q 103 422 114 347 q 90 558 93 496 q 92 657 86 619 q 114 694 97 694 q 210 447 175 694 q 285 447 246 200 q 376 694 322 694 q 467 442 429 694 q 505 315 485 315 q 547 442 525 315 q 651 694 592 694 z "},"ẃ":{"ha":764,"x_min":86,"x_max":678,"o":"m 651 694 q 673 657 668 694 q 673 558 678 619 q 656 422 668 496 q 626 273 643 347 q 591 137 610 199 q 554 38 572 75 q 522 0 536 0 q 424 246 472 0 q 375 369 400 369 q 326 246 350 369 q 228 0 279 0 q 197 38 214 0 q 162 137 179 75 q 129 273 144 199 q 103 422 114 347 q 90 558 93 496 q 92 657 86 619 q 114 694 97 694 q 210 447 175 694 q 285 447 246 200 q 376 694 322 694 q 467 442 429 694 q 505 315 485 315 q 547 442 525 315 q 651 694 592 694 m 424 906 q 546 975 500 954 q 604 979 592 996 q 581 925 615 963 q 472 839 546 888 q 351 769 397 789 q 293 765 306 749 q 316 819 282 782 q 424 906 350 857 z "},"ŵ":{"ha":764,"x_min":86,"x_max":678,"o":"m 651 694 q 673 657 668 694 q 673 558 678 619 q 656 422 668 496 q 626 273 643 347 q 591 137 610 199 q 554 38 572 75 q 522 0 536 0 q 424 246 472 0 q 375 369 400 369 q 326 246 350 369 q 228 0 279 0 q 197 38 214 0 q 162 137 179 75 q 129 273 144 199 q 103 422 114 347 q 90 558 93 496 q 92 657 86 619 q 114 694 97 694 q 210 447 175 694 q 285 447 246 200 q 376 694 322 694 q 467 442 429 694 q 505 315 485 315 q 547 442 525 315 q 651 694 592 694 m 526 899 q 613 806 592 840 q 623 762 635 771 q 576 768 611 753 q 496 825 542 783 q 417 878 451 865 q 348 878 382 892 q 269 825 314 865 q 189 767 224 783 q 142 761 154 751 q 151 806 131 771 q 238 899 172 840 q 382 968 314 968 q 526 899 450 968 z "},"ẅ":{"ha":764,"x_min":86,"x_max":678,"o":"m 651 694 q 673 657 668 694 q 673 558 678 619 q 656 422 668 496 q 626 273 643 347 q 591 137 610 199 q 554 38 572 75 q 522 0 536 0 q 424 246 472 0 q 375 369 400 369 q 326 246 350 369 q 228 0 279 0 q 197 38 214 0 q 162 137 179 75 q 129 273 144 199 q 103 422 114 347 q 90 558 93 496 q 92 657 86 619 q 114 694 97 694 q 210 447 175 694 q 285 447 246 200 q 376 694 322 694 q 467 442 429 694 q 505 315 485 315 q 547 442 525 315 q 651 694 592 694 m 325 904 q 253 836 325 836 q 181 904 181 836 q 253 972 181 972 q 325 904 325 972 m 571 904 q 499 836 571 836 q 426 904 426 836 q 499 972 426 972 q 571 904 571 972 z "},"ẁ":{"ha":764,"x_min":86,"x_max":678,"o":"m 651 694 q 673 657 668 694 q 673 558 678 619 q 656 422 668 496 q 626 273 643 347 q 591 137 610 199 q 554 38 572 75 q 522 0 536 0 q 424 246 472 0 q 375 369 400 369 q 326 246 350 369 q 228 0 279 0 q 197 38 214 0 q 162 137 179 75 q 129 273 144 199 q 103 422 114 347 q 90 558 93 496 q 92 657 86 619 q 114 694 97 694 q 210 447 175 694 q 285 447 246 200 q 376 694 322 694 q 467 442 429 694 q 505 315 485 315 q 547 442 525 315 q 651 694 592 694 m 471 765 q 413 769 458 749 q 292 839 367 789 q 183 925 218 888 q 160 979 149 963 q 218 975 172 996 q 340 906 264 954 q 448 819 414 857 q 471 765 482 782 z "},"x":{"ha":764,"x_min":56,"x_max":710,"o":"m 642 0 q 478 132 574 0 q 286 132 381 264 q 124 0 190 0 q 186 176 56 0 q 186 524 315 351 q 124 694 56 694 q 286 569 190 694 q 471 569 382 444 q 628 694 561 694 q 571 526 693 694 q 578 179 447 356 q 642 0 710 0 z "},"y":{"ha":764,"x_min":54,"x_max":668,"o":"m 653 694 q 662 653 668 694 q 635 543 656 613 q 583 387 614 474 q 514 208 551 300 q 438 30 476 117 q 363 -126 399 -57 q 301 -237 328 -196 q 258 -278 274 -278 q 263 -133 200 -278 q 189 353 325 8 q 113 694 54 694 q 276 419 171 694 q 488 419 382 146 q 653 694 594 694 z "},"ý":{"ha":764,"x_min":54,"x_max":668,"o":"m 653 694 q 662 653 668 694 q 635 543 656 613 q 583 387 614 474 q 514 208 551 300 q 438 30 476 117 q 363 -126 399 -57 q 301 -237 328 -196 q 258 -278 274 -278 q 263 -133 200 -278 q 189 353 325 8 q 113 694 54 694 q 276 419 171 694 q 488 419 382 146 q 653 694 594 694 m 424 906 q 546 975 500 954 q 604 979 592 996 q 581 925 615 963 q 472 839 546 888 q 351 769 397 789 q 293 765 306 749 q 316 819 282 782 q 424 906 350 857 z "},"ŷ":{"ha":764,"x_min":54,"x_max":668,"o":"m 653 694 q 662 653 668 694 q 635 543 656 613 q 583 387 614 474 q 514 208 551 300 q 438 30 476 117 q 363 -126 399 -57 q 301 -237 328 -196 q 258 -278 274 -278 q 263 -133 200 -278 q 189 353 325 8 q 113 694 54 694 q 276 419 171 694 q 488 419 382 146 q 653 694 594 694 m 526 899 q 613 806 592 840 q 623 762 635 771 q 576 768 611 753 q 496 825 542 783 q 417 878 451 865 q 348 878 382 892 q 269 825 314 865 q 189 767 224 783 q 142 761 154 751 q 151 806 131 771 q 238 899 172 840 q 382 968 314 968 q 526 899 450 968 z "},"ÿ":{"ha":764,"x_min":54,"x_max":668,"o":"m 653 694 q 662 653 668 694 q 635 543 656 613 q 583 387 614 474 q 514 208 551 300 q 438 30 476 117 q 363 -126 399 -57 q 301 -237 328 -196 q 258 -278 274 -278 q 263 -133 200 -278 q 189 353 325 8 q 113 694 54 694 q 276 419 171 694 q 488 419 382 146 q 653 694 594 694 m 326 904 q 254 836 326 836 q 182 904 182 836 q 254 972 182 972 q 326 904 326 972 m 574 904 q 501 836 574 836 q 429 904 429 836 q 501 972 429 972 q 574 904 574 972 z "},"ỳ":{"ha":764,"x_min":54,"x_max":668,"o":"m 653 694 q 662 653 668 694 q 635 543 656 613 q 583 387 614 474 q 514 208 551 300 q 438 30 476 117 q 363 -126 399 -57 q 301 -237 328 -196 q 258 -278 274 -278 q 263 -133 200 -278 q 189 353 325 8 q 113 694 54 694 q 276 419 171 694 q 488 419 382 146 q 653 694 594 694 m 471 765 q 413 769 458 749 q 292 839 367 789 q 183 925 218 888 q 160 979 149 963 q 218 975 172 996 q 340 906 264 954 q 448 819 414 857 q 471 765 482 782 z "},"z":{"ha":764,"x_min":99,"x_max":665,"o":"m 453 104 q 665 53 665 104 q 382 0 665 0 q 99 53 99 0 q 313 347 99 104 q 313 590 526 590 q 99 643 99 590 q 381 694 99 694 q 661 643 661 694 q 451 347 661 590 q 453 104 242 104 z "},"ź":{"ha":764,"x_min":99,"x_max":665,"o":"m 453 104 q 665 53 665 104 q 382 0 665 0 q 99 53 99 0 q 313 347 99 104 q 313 590 526 590 q 99 643 99 590 q 381 694 99 694 q 661 643 661 694 q 451 347 661 590 q 453 104 242 104 m 424 906 q 546 975 500 954 q 604 979 592 996 q 581 925 615 963 q 472 839 546 888 q 351 769 397 789 q 293 765 306 749 q 316 819 282 782 q 424 906 350 857 z "},"ž":{"ha":764,"x_min":99,"x_max":665,"o":"m 453 104 q 665 53 665 104 q 382 0 665 0 q 99 53 99 0 q 313 347 99 104 q 313 590 526 590 q 99 643 99 590 q 381 694 99 694 q 661 643 661 694 q 451 347 661 590 q 453 104 242 104 m 526 840 q 382 772 450 772 q 238 840 314 772 q 151 933 172 899 q 142 978 131 968 q 189 972 154 988 q 269 914 224 956 q 348 860 314 874 q 417 860 382 847 q 496 914 451 874 q 576 971 542 956 q 623 977 611 986 q 613 933 635 968 q 526 840 592 899 z "},"ż":{"ha":764,"x_min":99,"x_max":665,"o":"m 453 104 q 665 53 665 104 q 382 0 665 0 q 99 53 99 0 q 313 347 99 104 q 313 590 526 590 q 99 643 99 590 q 381 694 99 694 q 661 643 661 694 q 451 347 661 590 q 453 104 242 104 m 454 906 q 382 838 454 838 q 310 906 310 838 q 382 972 310 972 q 454 906 454 972 z "},"ª":{"ha":764,"x_min":88,"x_max":675,"o":"m 619 972 q 675 701 675 972 q 625 431 675 431 q 572 446 575 431 l 564 536 l 564 582 q 540 529 564 611 l 433 417 l 271 417 l 153 490 l 88 617 l 88 776 l 154 910 l 278 986 l 444 986 l 544 894 q 559 856 554 856 q 564 894 564 856 q 619 972 564 972 m 433 524 l 519 572 l 564 650 l 564 778 l 464 878 l 283 878 l 199 779 l 199 619 l 292 524 l 433 524 z "},"º":{"ha":764,"x_min":85,"x_max":679,"o":"m 296 403 l 160 478 l 85 610 l 85 776 l 160 910 l 296 986 l 471 986 l 606 910 l 679 776 l 679 610 l 606 478 l 471 403 l 296 403 m 467 506 l 569 610 l 569 776 l 468 883 l 299 883 l 194 776 l 194 610 l 297 506 l 467 506 z "},"Δ":{"ha":764,"x_min":182,"x_max":708,"o":"m 546 486 q 382 0 708 0 q 266 37 310 0 q 202 135 222 74 q 183 270 182 197 q 200 416 183 343 q 245 550 217 489 q 310 649 274 611 q 388 687 347 686 q 469 641 428 688 q 546 486 510 594 m 300 392 q 382 111 217 111 q 465 392 546 111 q 300 392 382 674 z "},"Ω":{"ha":764,"x_min":42,"x_max":722,"o":"m 533 124 q 621 107 533 103 q 708 56 708 111 q 572 0 708 0 q 436 90 436 0 q 517 239 436 181 l 611 386 l 611 638 l 494 806 l 269 806 l 153 639 l 153 381 l 247 229 q 333 90 333 181 q 194 0 333 0 q 56 56 56 0 q 146 107 56 111 q 236 124 236 103 q 142 211 236 142 l 42 374 l 42 617 l 121 804 l 275 917 l 489 917 l 643 804 l 722 615 l 722 374 l 618 203 q 533 143 533 143 l 533 124 z "},"μ":{"ha":764,"x_min":60,"x_max":736,"o":"m 649 133 l 693 97 q 736 42 736 97 q 642 -14 736 -14 l 538 88 l 538 199 q 533 200 538 215 q 518 136 528 185 l 411 -14 l 215 -14 q 171 -112 171 54 q 115 -278 171 -278 q 60 208 60 -278 q 115 694 60 694 q 171 478 171 694 l 171 97 l 419 97 l 518 217 q 538 492 538 292 q 593 694 538 694 q 649 438 649 694 l 649 133 z "},"π":{"ha":764,"x_min":56,"x_max":708,"o":"m 646 590 q 583 413 583 590 l 583 176 l 610 117 l 661 97 q 707 42 707 97 q 590 -14 707 -14 l 472 117 l 472 413 q 382 590 472 590 q 292 296 292 590 q 236 0 292 0 q 181 296 181 0 q 118 590 181 590 q 56 643 56 590 q 382 694 56 694 q 708 643 708 694 q 646 590 708 590 z "},"¹":{"ha":764,"x_min":219,"x_max":544,"o":"m 494 451 q 544 407 544 451 q 382 361 544 361 q 219 407 219 361 q 279 451 219 451 q 339 632 339 451 q 283 811 339 811 q 228 857 228 811 q 336 903 228 903 q 443 678 443 903 q 494 451 443 451 z "},"²":{"ha":764,"x_min":211,"x_max":547,"o":"m 217 407 q 332 571 217 451 l 439 703 l 439 824 l 338 824 l 304 786 q 261 765 304 765 q 211 828 218 765 l 304 914 l 449 914 l 533 832 l 533 700 l 453 582 q 353 478 378 506 q 438 451 326 451 q 547 407 547 451 q 382 361 547 361 q 217 407 217 361 z "},"³":{"ha":764,"x_min":213,"x_max":547,"o":"m 472 639 l 547 572 l 547 443 l 457 347 l 333 347 l 253 393 l 213 471 q 260 514 217 514 q 301 481 301 514 l 344 439 l 457 439 l 457 556 l 406 600 l 342 600 q 326 643 326 600 q 342 685 326 685 l 449 685 l 449 786 l 410 822 l 349 822 l 308 786 q 267 758 308 758 q 221 800 225 758 l 257 871 l 332 913 l 425 913 l 499 872 l 540 808 l 540 661 q 455 648 472 654 q 472 639 438 642 z "},"⁴":{"ha":764,"x_min":199,"x_max":565,"o":"m 565 513 q 538 467 565 467 q 510 414 510 467 q 463 361 510 361 q 415 414 415 361 q 307 467 415 467 q 199 508 199 467 q 214 556 199 522 q 253 635 229 590 q 308 726 278 679 q 367 813 338 774 q 423 878 397 853 q 464 903 449 903 q 510 731 510 903 q 538 557 510 557 q 565 513 565 557 m 360 557 q 415 654 415 557 q 360 654 415 749 q 360 557 304 557 z "},"⁄":{"ha":0,"x_min":-181,"x_max":194,"o":"m 185 990 q 188 941 194 988 q 160 819 181 894 q 110 650 139 743 q 47 458 81 557 q -21 269 14 360 q -86 106 -56 178 q -139 -8 -117 33 q -171 -44 -161 -49 q -173 6 -181 -40 q -145 128 -165 53 q -96 297 -125 204 q -33 488 -67 389 q 34 677 0 586 q 99 840 68 768 q 152 952 129 911 q 185 990 175 993 z "},"½":{"ha":1528,"x_min":219,"x_max":1311,"o":"m 494 451 q 544 407 544 451 q 382 361 544 361 q 219 407 219 361 q 279 451 219 451 q 339 632 339 451 q 283 811 339 811 q 228 857 228 811 q 336 903 228 903 q 443 678 443 903 q 494 451 443 451 m 949 990 q 951 941 958 988 q 924 819 944 894 q 874 650 903 743 q 811 458 844 557 q 743 269 778 360 q 678 106 708 178 q 625 -8 647 33 q 593 -44 603 -49 q 591 6 583 -40 q 619 128 599 53 q 668 297 639 204 q 731 488 697 389 q 798 677 764 586 q 863 840 832 768 q 916 952 893 911 q 949 990 939 993 m 981 46 q 1096 210 981 90 l 1203 342 l 1203 463 l 1101 463 l 1068 425 q 1025 404 1068 404 q 975 467 982 404 l 1068 553 l 1213 553 l 1297 471 l 1297 339 l 1217 221 q 1117 117 1142 144 q 1201 90 1090 90 q 1311 46 1311 90 q 1146 0 1311 0 q 981 46 981 0 z "},"¼":{"ha":1528,"x_min":219,"x_max":1329,"o":"m 494 451 q 544 407 544 451 q 382 361 544 361 q 219 407 219 361 q 279 451 219 451 q 339 632 339 451 q 283 811 339 811 q 228 857 228 811 q 336 903 228 903 q 443 678 443 903 q 494 451 443 451 m 949 990 q 951 941 958 988 q 924 819 944 894 q 874 650 903 743 q 811 458 844 557 q 743 269 778 360 q 678 106 708 178 q 625 -8 647 33 q 593 -44 603 -49 q 591 6 583 -40 q 619 128 599 53 q 668 297 639 204 q 731 488 697 389 q 798 677 764 586 q 863 840 832 768 q 916 952 893 911 q 949 990 939 993 m 1329 151 q 1301 106 1329 106 q 1274 53 1274 106 q 1226 0 1274 0 q 1179 53 1179 0 q 1071 106 1179 106 q 963 147 963 106 q 978 195 963 161 q 1017 274 993 229 q 1072 365 1042 318 q 1131 452 1101 413 q 1187 517 1161 492 q 1228 542 1213 542 q 1274 369 1274 542 q 1301 196 1274 196 q 1329 151 1329 196 m 1124 196 q 1179 293 1179 196 q 1124 293 1179 388 q 1124 196 1068 196 z "},"¾":{"ha":1528,"x_min":213,"x_max":1329,"o":"m 472 639 l 547 572 l 547 443 l 457 347 l 333 347 l 253 393 l 213 471 q 260 514 217 514 q 301 481 301 514 l 344 439 l 457 439 l 457 556 l 406 600 l 342 600 q 326 643 326 600 q 342 685 326 685 l 449 685 l 449 786 l 410 822 l 349 822 l 308 786 q 267 758 308 758 q 221 800 225 758 l 257 871 l 332 913 l 425 913 l 499 872 l 540 808 l 540 661 q 455 648 472 654 q 472 639 438 642 m 949 990 q 951 941 958 988 q 924 819 944 894 q 874 650 903 743 q 811 458 844 557 q 743 269 778 360 q 678 106 708 178 q 625 -8 647 33 q 593 -44 603 -49 q 591 6 583 -40 q 619 128 599 53 q 668 297 639 204 q 731 488 697 389 q 798 677 764 586 q 863 840 832 768 q 916 952 893 911 q 949 990 939 993 m 1329 151 q 1301 106 1329 106 q 1274 53 1274 106 q 1226 0 1274 0 q 1179 53 1179 0 q 1071 106 1179 106 q 963 147 963 106 q 978 195 963 161 q 1017 274 993 229 q 1072 365 1042 318 q 1131 452 1101 413 q 1187 517 1161 492 q 1228 542 1213 542 q 1274 369 1274 542 q 1301 196 1274 196 q 1329 151 1329 196 m 1124 196 q 1179 293 1179 196 q 1124 293 1179 388 q 1124 196 1068 196 z "},".":{"ha":764,"x_min":310,"x_max":454,"o":"m 454 68 q 382 0 454 0 q 310 68 310 0 q 382 136 310 136 q 454 68 454 136 z "},",":{"ha":764,"x_min":307,"x_max":457,"o":"m 326 -133 q 322 -115 318 -118 l 349 -90 l 375 -44 q 342 -7 375 -15 q 307 68 307 -1 q 382 135 307 135 q 457 89 457 135 l 457 -39 l 393 -128 q 326 -133 333 -149 z "},":":{"ha":764,"x_min":310,"x_max":454,"o":"m 454 608 q 382 540 454 540 q 310 608 310 540 q 382 676 310 676 q 454 608 454 676 m 454 68 q 382 0 454 0 q 310 68 310 0 q 382 136 310 136 q 454 68 454 136 z "},";":{"ha":764,"x_min":307,"x_max":457,"o":"m 454 607 q 382 539 454 539 q 310 607 310 539 q 382 675 310 675 q 454 607 454 675 m 326 -133 q 322 -115 318 -118 l 349 -90 l 375 -44 q 342 -7 375 -15 q 307 68 307 -1 q 382 135 307 135 q 457 89 457 135 l 457 -39 l 393 -128 q 326 -133 333 -149 z "},"…":{"ha":764,"x_min":78,"x_max":686,"o":"m 686 68 q 614 0 686 0 q 542 68 542 0 q 614 136 542 136 q 686 68 686 136 m 222 68 q 150 0 222 0 q 78 68 78 0 q 150 136 78 136 q 222 68 222 136 m 456 68 q 383 0 456 0 q 311 68 311 0 q 383 136 311 136 q 456 68 456 136 z "},"!":{"ha":764,"x_min":310,"x_max":454,"o":"m 382 903 q 436 592 436 903 q 382 279 436 279 q 328 592 328 279 q 382 903 328 903 m 454 68 q 382 0 454 0 q 310 68 310 0 q 382 136 310 136 q 454 68 454 136 z "},"¡":{"ha":764,"x_min":310,"x_max":454,"o":"m 454 683 q 382 615 454 615 q 310 683 310 615 q 382 751 310 751 q 454 683 454 751 m 382 -151 q 328 160 328 -151 q 382 472 328 472 q 436 160 436 472 q 382 -151 436 -151 z "},"?":{"ha":764,"x_min":110,"x_max":654,"o":"m 465 917 l 588 853 l 654 742 l 654 563 l 528 431 q 419 349 419 418 q 364 279 419 279 q 308 400 308 279 q 339 519 308 519 l 449 519 l 543 607 l 543 736 l 458 813 l 310 813 l 221 735 q 165 672 221 672 q 110 740 110 672 l 181 851 l 306 917 l 465 917 m 290 68 q 363 136 290 136 q 433 68 433 136 q 363 0 433 0 q 290 68 290 0 z "},"¿":{"ha":764,"x_min":110,"x_max":654,"o":"m 474 746 q 401 678 474 678 q 331 746 331 678 q 401 814 331 814 q 474 746 474 814 m 299 -103 l 176 -39 l 110 72 l 110 251 l 236 383 q 344 465 344 396 q 400 535 344 535 q 456 414 456 535 q 425 294 456 294 l 315 294 l 221 207 l 221 78 l 306 1 l 454 1 l 543 79 q 599 142 543 142 q 654 74 654 142 l 583 -37 l 458 -103 l 299 -103 z "},"·":{"ha":764,"x_min":310,"x_max":454,"o":"m 454 379 q 382 311 454 311 q 310 379 310 311 q 382 447 310 447 q 454 379 454 447 z "},"•":{"ha":764,"x_min":211,"x_max":553,"o":"m 382 535 q 553 364 553 535 q 382 193 553 193 q 211 364 211 193 q 382 535 211 535 z "},"*":{"ha":764,"x_min":161,"x_max":603,"o":"m 539 756 q 515 664 465 732 q 541 603 540 629 q 526 566 542 578 q 485 563 510 554 q 433 608 460 572 q 329 608 382 682 q 278 563 303 572 q 237 565 253 554 q 221 603 221 576 q 246 663 221 629 q 224 753 294 731 q 175 785 189 765 q 168 823 161 804 q 198 850 175 842 q 258 846 221 858 q 333 904 333 821 q 382 986 333 986 q 431 906 431 986 q 506 849 431 824 q 567 853 543 861 q 597 826 590 844 q 589 788 603 807 q 539 756 575 768 z "},"#":{"ha":764,"x_min":56,"x_max":708,"o":"m 633 561 q 558 451 558 561 q 633 342 558 342 q 708 296 708 342 q 633 250 708 250 q 558 139 558 250 q 514 28 558 28 q 469 139 469 28 q 386 250 469 250 q 303 139 303 250 q 258 28 303 28 q 214 139 214 28 q 135 250 214 250 q 56 296 56 250 q 135 342 56 342 q 214 451 214 342 q 135 561 214 561 q 56 607 56 561 q 135 653 56 653 q 214 764 214 653 q 258 875 214 875 q 303 764 303 875 q 386 653 303 653 q 469 764 469 653 q 514 875 469 875 q 558 764 558 875 q 633 653 558 653 q 708 607 708 653 q 633 561 708 561 m 469 451 q 386 561 469 561 q 303 451 303 561 q 386 342 303 342 q 469 451 469 342 z "},"/":{"ha":764,"x_min":81,"x_max":685,"o":"m 674 943 q 669 889 685 936 q 617 767 653 842 q 531 600 581 692 q 427 413 482 508 q 317 228 372 317 q 215 72 263 140 q 135 -35 168 3 q 92 -65 103 -72 q 97 -11 81 -58 q 148 111 113 36 q 233 278 183 186 q 337 465 282 369 q 447 648 392 560 q 549 805 501 736 q 629 912 596 874 q 674 943 663 950 z "},"\\":{"ha":764,"x_min":79,"x_max":683,"o":"m 90 943 q 135 912 101 950 q 215 805 168 874 q 317 648 263 736 q 427 465 372 560 q 531 278 482 369 q 616 111 581 186 q 667 -11 651 36 q 672 -65 683 -58 q 628 -35 661 -72 q 549 72 596 3 q 447 228 501 140 q 337 413 392 317 q 233 600 282 508 q 147 767 183 692 q 95 889 111 842 q 90 943 79 936 z "},"(":{"ha":764,"x_min":233,"x_max":532,"o":"m 532 -131 q 507 -143 526 -131 q 471 -171 488 -156 q 454 -194 454 -186 l 332 -25 l 233 233 l 233 561 l 332 819 l 454 989 q 471 967 454 983 q 507 938 488 951 q 532 925 526 925 l 428 775 l 344 546 l 344 249 l 428 19 l 532 -131 z "},")":{"ha":764,"x_min":232,"x_max":531,"o":"m 310 -194 q 293 -171 310 -186 q 258 -143 276 -156 q 232 -131 239 -131 l 336 19 l 419 249 l 419 546 l 336 775 l 232 925 q 258 938 239 925 q 293 967 276 951 q 310 989 310 983 l 432 819 l 531 561 l 531 233 l 432 -25 l 310 -194 z "},"{":{"ha":764,"x_min":164,"x_max":571,"o":"m 571 1056 q 471 1000 571 1000 q 371 961 371 1000 l 393 879 q 439 750 417 811 l 463 664 l 463 474 q 463 390 296 432 l 463 200 l 439 114 q 393 -15 417 54 l 371 -97 q 471 -136 371 -136 q 571 -192 571 -136 q 410 -247 571 -247 q 243 -221 247 -247 l 243 -132 l 278 -4 q 307 77 293 40 q 331 143 321 114 l 351 213 l 351 301 l 256 376 q 164 432 164 376 q 256 488 164 488 l 351 563 l 351 651 l 331 721 q 307 787 321 750 q 278 868 293 824 l 243 996 l 243 1085 q 410 1111 247 1111 q 571 1056 571 1111 z "},"}":{"ha":764,"x_min":193,"x_max":600,"o":"m 193 1056 q 354 1111 193 1111 q 521 1085 517 1111 l 521 996 l 486 868 q 458 787 471 824 q 433 721 444 750 l 413 651 l 413 563 l 508 488 q 600 432 600 488 q 508 376 600 376 l 413 301 l 413 213 l 433 143 q 458 77 444 114 q 486 -4 471 40 l 521 -132 l 521 -221 q 354 -247 517 -247 q 193 -192 193 -247 q 293 -136 193 -136 q 393 -97 393 -136 l 371 -15 q 325 114 349 54 l 301 200 l 301 390 q 301 474 468 432 l 301 664 l 325 750 q 371 879 349 811 l 393 961 q 293 1000 393 1000 q 193 1056 193 1000 z "},"[":{"ha":764,"x_min":261,"x_max":632,"o":"m 632 -192 q 447 -247 632 -247 q 261 432 261 -247 q 447 1111 261 1111 q 632 1056 632 1111 q 503 1000 632 1000 q 372 432 372 1000 q 503 -136 372 -136 q 632 -192 632 -136 z "},"]":{"ha":764,"x_min":132,"x_max":503,"o":"m 132 1056 q 318 1111 132 1111 q 503 432 503 1111 q 318 -247 503 -247 q 132 -192 132 -247 q 263 -136 132 -136 q 392 432 392 -136 q 263 1000 392 1000 q 132 1056 132 1000 z "},"-":{"ha":764,"x_min":181,"x_max":583,"o":"m 382 426 q 583 375 583 426 q 382 324 583 324 q 181 375 181 324 q 382 426 181 426 z "},"­":{"ha":764,"x_min":181,"x_max":583,"o":"m 382 426 q 583 375 583 426 q 382 324 583 324 q 181 375 181 324 q 382 426 181 426 z "},"–":{"ha":764,"x_min":104,"x_max":660,"o":"m 382 429 q 660 376 660 429 q 382 322 660 322 q 104 376 104 322 q 382 429 104 429 z "},"—":{"ha":764,"x_min":56,"x_max":708,"o":"m 382 431 q 708 378 708 431 q 382 324 708 324 q 56 378 56 324 q 382 431 56 431 z "},"_":{"ha":764,"x_min":56,"x_max":708,"o":"m 382 -171 q 708 -224 708 -171 q 382 -278 708 -278 q 56 -224 56 -278 q 382 -171 56 -171 z "},"‚":{"ha":764,"x_min":307,"x_max":457,"o":"m 326 -133 q 322 -115 318 -118 l 349 -90 l 375 -44 q 342 -7 375 -15 q 307 68 307 -1 q 382 135 307 135 q 457 89 457 135 l 457 -39 l 393 -128 q 326 -133 333 -149 z "},"„":{"ha":764,"x_min":203,"x_max":561,"o":"m 222 -133 q 218 -115 214 -118 l 244 -90 l 271 -44 q 238 -7 271 -15 q 203 68 203 -1 q 278 135 203 135 q 353 89 353 135 l 353 -39 l 289 -129 q 222 -133 229 -147 m 431 -133 q 426 -115 422 -118 l 453 -90 l 479 -44 q 446 -7 479 -15 q 411 68 411 -1 q 486 135 411 135 q 561 89 561 135 l 561 -39 l 497 -129 q 431 -133 438 -147 z "},"“":{"ha":764,"x_min":203,"x_max":561,"o":"m 333 907 q 338 889 342 892 l 311 864 l 285 818 q 318 781 285 789 q 353 706 353 775 q 278 639 353 639 q 203 685 203 639 l 203 813 l 267 901 q 333 907 326 922 m 542 907 q 546 889 550 892 l 519 864 l 493 818 q 526 781 493 789 q 561 706 561 775 q 486 639 561 639 q 411 685 411 639 l 411 813 l 475 901 q 542 907 535 922 z "},"”":{"ha":764,"x_min":203,"x_max":561,"o":"m 222 635 q 218 653 214 650 l 244 678 l 271 724 q 238 761 271 753 q 203 836 203 767 q 278 903 203 903 q 353 857 353 903 l 353 729 l 289 639 q 222 635 229 621 m 431 635 q 426 653 422 650 l 453 678 l 479 724 q 446 761 479 753 q 411 836 411 767 q 486 903 411 903 q 561 857 561 903 l 561 729 l 497 639 q 431 635 438 621 z "},"‘":{"ha":764,"x_min":307,"x_max":457,"o":"m 438 907 q 442 889 446 892 l 415 864 l 389 818 q 422 781 389 789 q 457 706 457 775 q 382 639 457 639 q 307 685 307 639 l 307 813 l 371 901 q 438 907 431 922 z "},"’":{"ha":764,"x_min":307,"x_max":457,"o":"m 326 635 q 322 653 318 650 l 349 678 l 375 724 q 342 761 375 753 q 307 836 307 767 q 382 903 307 903 q 457 857 457 903 l 457 729 l 393 639 q 326 635 333 621 z "},"«":{"ha":764,"x_min":201,"x_max":636,"o":"m 376 501 q 376 275 275 388 q 443 177 428 218 q 441 123 458 136 q 379 135 424 110 q 265 236 335 161 q 210 340 219 286 q 218 444 201 393 q 266 539 235 496 q 333 612 297 582 q 399 653 368 642 q 442 653 429 665 q 376 501 479 614 m 600 429 q 600 347 563 388 q 617 304 618 326 q 599 269 615 282 q 556 263 583 256 q 492 310 528 271 q 462 374 464 340 q 474 438 460 408 q 513 489 489 468 q 561 516 538 510 q 600 507 585 522 q 600 429 636 469 z "},"»":{"ha":764,"x_min":146,"x_max":557,"o":"m 388 501 q 313 626 313 585 q 322 653 313 643 q 340 658 328 658 q 399 635 364 658 q 472 573 435 613 q 533 483 508 533 q 557 378 557 432 q 544 307 557 343 q 499 236 531 271 q 401 147 442 174 q 338 119 360 119 q 314 144 314 119 q 332 199 314 165 q 388 275 350 233 q 439 388 439 331 q 388 501 439 446 m 164 429 q 146 468 146 451 q 164 507 146 486 q 190 517 174 517 q 239 498 213 517 q 284 449 265 479 q 303 385 303 419 q 296 347 303 367 q 272 310 289 328 q 227 272 249 283 q 190 261 206 261 q 159 274 171 261 q 147 306 147 288 q 164 347 147 329 q 183 388 183 369 q 164 429 183 407 z "},"‹":{"ha":764,"x_min":254,"x_max":532,"o":"m 429 501 q 429 275 328 388 q 496 177 481 218 q 494 123 511 136 q 432 135 476 110 q 318 236 388 161 q 263 340 272 286 q 271 444 254 393 q 319 539 288 496 q 385 612 350 582 q 451 653 421 642 q 494 653 482 665 q 429 501 532 614 z "},"›":{"ha":764,"x_min":232,"x_max":510,"o":"m 335 501 q 269 653 232 614 q 313 653 282 665 q 378 612 343 642 q 445 539 414 582 q 493 444 476 496 q 501 340 510 393 q 446 236 492 286 q 333 135 378 161 q 270 123 288 110 q 268 177 253 136 q 335 275 283 218 q 335 501 436 388 z "},"\"":{"ha":764,"x_min":210,"x_max":554,"o":"m 279 606 q 252 628 265 606 q 230 687 239 651 q 215 763 221 722 q 210 836 210 803 q 278 903 210 903 q 346 836 346 903 q 341 763 346 803 q 327 687 336 722 q 306 628 318 651 q 279 606 293 606 m 488 606 q 460 628 474 606 q 438 687 447 651 q 424 763 429 722 q 418 836 418 803 q 486 903 418 903 q 554 836 554 903 q 549 763 554 803 q 535 687 544 722 q 514 628 526 651 q 488 606 501 606 z "},"'":{"ha":764,"x_min":307,"x_max":457,"o":"m 400 633 l 356 633 q 331 677 342 654 q 313 738 319 700 q 307 836 307 775 q 382 903 307 903 q 438 889 419 903 q 457 836 457 875 q 449 738 457 775 q 428 677 440 700 q 400 633 415 654 z "}," ":{"ha":764,"x_min":0,"x_max":0,"o":""}," ":{"ha":764,"x_min":0,"x_max":0,"o":""},"\r":{"ha":833,"x_min":0,"x_max":0,"o":""},"¢":{"ha":764,"x_min":71,"x_max":694,"o":"m 472 93 l 568 178 q 643 261 593 261 q 678 133 693 261 l 515 -14 l 375 -14 q 354 -75 365 -12 q 330 -119 349 -106 q 291 -128 311 -132 q 259 -106 271 -125 q 253 -53 247 -86 q 176 51 264 13 l 71 225 l 71 453 l 154 615 l 299 706 q 399 776 386 708 q 423 824 404 810 q 462 834 442 838 q 494 812 482 831 q 501 760 507 793 q 572 669 490 694 l 679 533 q 643 435 694 435 q 554 557 592 435 q 503 538 526 567 q 460 455 479 508 q 427 340 442 401 q 403 222 413 278 q 391 129 394 165 q 389 93 388 93 l 472 93 m 182 269 l 236 157 q 269 174 251 146 q 301 252 286 201 q 325 363 315 303 q 335 475 335 422 q 325 560 336 528 q 288 589 314 593 l 182 454 l 182 269 z "},"¤":{"ha":764,"x_min":83,"x_max":681,"o":"m 638 351 q 647 235 593 286 q 678 184 675 208 q 667 146 681 160 q 629 135 653 132 q 579 165 606 139 q 457 175 525 218 l 304 175 q 185 165 240 218 q 134 135 158 139 q 97 146 110 132 q 87 184 83 160 q 117 235 90 208 q 126 350 169 288 l 126 511 q 117 628 169 572 q 87 678 90 654 q 97 715 83 701 q 134 726 110 729 q 185 696 158 724 q 303 686 239 643 l 457 686 q 579 697 525 643 q 629 726 606 724 q 667 715 653 729 q 678 678 681 701 q 647 628 675 654 q 638 510 594 575 l 638 351 m 447 275 l 538 367 l 538 496 l 447 586 l 318 586 l 226 496 l 226 367 l 318 275 l 447 275 z "},"$":{"ha":764,"x_min":90,"x_max":672,"o":"m 539 464 l 672 371 l 672 182 l 543 76 l 392 76 q 346 -10 361 81 q 318 -75 338 -56 q 278 -91 299 -94 q 247 -61 258 -87 q 244 11 236 -35 q 197 129 258 104 l 121 210 l 90 289 q 144 314 93 314 q 210 257 194 314 l 324 183 l 493 183 l 561 231 l 561 321 l 483 367 q 378 385 435 375 q 256 406 321 394 l 106 504 l 106 686 l 240 799 l 372 799 q 397 886 383 799 q 425 949 406 931 q 465 965 444 968 q 497 937 485 961 q 500 868 508 913 q 556 757 485 779 l 629 651 q 583 576 632 576 q 515 689 535 576 l 289 689 l 217 642 l 217 556 l 310 507 q 416 487 358 497 q 539 464 474 476 z "},"€":{"ha":764,"x_min":-14,"x_max":715,"o":"m 664 301 q 715 151 715 301 l 563 -14 l 264 -14 l 93 161 q 29 322 69 322 q 25 361 -14 322 q 63 417 64 400 l 63 464 q 25 475 63 475 q 28 517 -14 475 q 88 729 69 558 l 258 917 l 647 917 q 667 660 710 707 q 604 711 622 610 l 507 813 l 310 813 l 196 685 q 379 558 179 558 q 517 546 479 558 q 543 517 556 533 q 477 488 531 500 q 340 475 424 475 q 174 464 174 475 l 174 421 q 304 406 176 406 q 388 393 368 406 q 396 364 408 381 q 350 335 383 347 q 272 322 317 322 q 201 207 182 322 l 315 90 l 510 90 l 603 196 q 664 301 611 301 z "},"ƒ":{"ha":764,"x_min":18,"x_max":744,"o":"m 489 813 l 438 743 l 438 615 q 526 558 438 558 q 615 517 615 558 q 526 475 615 475 q 438 354 438 475 q 438 234 438 293 q 436 118 438 175 l 326 -14 l 169 -14 l 74 46 l 18 158 q 74 232 18 232 q 129 163 129 232 l 185 90 l 274 90 l 325 161 q 326 245 326 197 q 326 354 326 293 q 242 475 326 475 q 157 517 157 475 q 242 558 157 558 q 326 615 326 558 l 326 786 l 436 917 l 593 917 l 689 857 l 744 746 q 689 672 744 672 q 633 742 633 672 l 578 813 l 489 813 z "},"£":{"ha":764,"x_min":111,"x_max":653,"o":"m 381 211 l 310 126 q 457 104 274 104 q 640 53 640 104 q 397 0 640 0 q 154 53 154 0 l 154 101 l 219 149 l 272 226 l 272 321 q 182 364 254 364 q 111 406 111 364 q 161 447 111 447 q 178 508 211 447 l 138 619 l 138 746 l 204 857 l 322 917 l 472 917 l 589 853 l 653 740 q 597 672 653 672 q 542 733 542 672 l 457 813 l 335 813 l 249 740 l 249 622 l 282 533 l 322 458 q 428 447 329 447 q 528 406 528 447 q 447 364 528 364 q 381 321 367 364 l 381 211 z "},"¥":{"ha":764,"x_min":36,"x_max":731,"o":"m 594 628 q 506 351 460 351 q 551 310 551 351 q 343 268 551 268 q 135 310 135 268 q 221 351 135 351 q 171 628 306 351 q 97 903 36 903 q 272 664 160 903 q 494 664 385 425 q 667 903 604 903 q 594 628 731 903 m 135 157 q 343 199 135 199 q 551 157 551 199 q 494 115 551 115 q 438 58 438 115 q 382 0 438 0 q 326 58 326 0 q 231 115 326 115 q 135 157 135 115 z "},"∕":{"ha":764,"x_min":188,"x_max":563,"o":"m 553 990 q 556 941 563 988 q 528 819 549 894 q 478 650 507 743 q 415 458 449 557 q 347 269 382 360 q 282 106 313 178 q 229 -8 251 33 q 197 -44 207 -49 q 195 6 188 -40 q 223 128 203 53 q 272 297 243 204 q 335 488 301 389 q 402 677 368 586 q 467 840 436 768 q 520 952 497 911 q 553 990 543 993 z "},"+":{"ha":764,"x_min":132,"x_max":632,"o":"m 632 375 q 532 326 632 326 q 431 226 431 326 q 382 125 431 125 q 333 226 333 125 q 233 326 333 326 q 132 375 132 326 q 233 424 132 424 q 333 525 333 424 q 382 625 333 625 q 431 525 431 625 q 532 424 431 424 q 632 375 632 424 z "},"−":{"ha":764,"x_min":146,"x_max":618,"o":"m 382 426 q 618 375 618 426 q 382 324 618 324 q 146 375 146 324 q 382 426 146 426 z "},"×":{"ha":764,"x_min":192,"x_max":572,"o":"m 522 447 q 522 304 450 375 q 565 240 558 268 q 559 198 572 211 q 518 192 546 185 q 454 236 490 200 q 311 236 382 307 q 247 192 275 200 q 205 198 218 185 q 199 240 192 211 q 243 304 207 268 q 243 447 314 375 q 199 511 207 483 q 205 552 192 539 q 247 558 218 565 q 311 515 275 551 q 454 515 382 443 q 518 558 490 551 q 559 552 546 565 q 565 511 572 539 q 522 447 558 483 z "},"÷":{"ha":764,"x_min":118,"x_max":646,"o":"m 454 563 q 382 494 454 494 q 310 563 310 494 q 382 631 310 631 q 454 563 454 631 m 382 426 q 646 375 646 426 q 382 324 646 324 q 118 375 118 324 q 382 426 118 426 m 454 186 q 382 118 454 118 q 310 186 310 118 q 382 253 310 253 q 454 186 454 253 z "},"=":{"ha":764,"x_min":111,"x_max":653,"o":"m 382 563 q 653 511 653 563 q 382 458 653 458 q 111 511 111 458 q 382 563 111 563 m 382 313 q 653 261 653 313 q 382 208 653 208 q 111 261 111 208 q 382 313 111 313 z "},"≠":{"ha":764,"x_min":111,"x_max":653,"o":"m 551 458 q 468 436 500 458 q 429 385 436 414 q 446 335 422 357 q 531 313 469 313 q 653 261 653 313 q 517 208 653 208 q 357 119 379 208 q 326 57 344 75 q 289 43 307 39 q 263 70 271 47 q 265 132 256 93 q 199 208 286 208 q 111 261 111 208 q 213 313 111 313 q 294 335 263 313 q 333 385 326 357 q 317 436 340 414 q 232 458 293 458 q 111 511 111 458 q 246 563 111 563 q 406 656 381 563 q 438 721 418 701 q 475 736 457 740 q 501 708 493 732 q 499 643 510 683 q 565 563 476 563 q 653 511 653 563 q 551 458 653 458 z "},">":{"ha":764,"x_min":132,"x_max":633,"o":"m 410 596 q 633 404 633 467 q 601 351 633 383 q 519 282 569 318 q 410 212 468 246 q 298 154 351 178 q 206 123 244 131 q 158 131 168 115 q 328 292 132 178 q 328 518 524 404 q 188 617 229 575 q 158 678 146 660 q 234 678 171 696 q 410 596 297 661 z "},"<":{"ha":764,"x_min":131,"x_max":632,"o":"m 354 596 q 530 678 467 661 q 606 678 593 696 q 576 617 618 660 q 436 518 535 575 q 436 292 240 404 q 606 131 632 178 q 558 123 596 115 q 466 154 519 131 q 354 212 413 178 q 245 282 296 246 q 163 351 194 318 q 131 404 131 383 q 354 596 131 467 z "},"≥":{"ha":764,"x_min":140,"x_max":651,"o":"m 428 604 q 651 413 651 475 q 617 364 651 392 q 529 308 583 336 q 414 255 475 279 q 297 215 353 231 q 203 197 240 199 q 158 213 165 196 q 332 343 140 264 q 336 531 524 422 q 203 626 243 585 q 176 686 164 668 q 252 687 189 704 q 428 604 315 669 m 153 39 q 389 90 153 90 q 625 39 625 90 q 389 -14 625 -14 q 153 39 153 -14 z "},"≤":{"ha":764,"x_min":113,"x_max":624,"o":"m 336 604 q 512 687 449 669 q 588 686 575 704 q 561 626 600 668 q 428 531 522 585 q 432 343 240 422 q 606 213 624 264 q 562 197 600 196 q 467 215 524 199 q 350 255 411 231 q 235 308 289 279 q 147 364 181 336 q 113 413 113 392 q 336 604 113 475 m 611 39 q 375 -14 611 -14 q 139 39 139 -14 q 375 90 139 90 q 611 39 611 90 z "},"±":{"ha":764,"x_min":132,"x_max":632,"o":"m 532 451 q 632 403 632 451 q 532 354 632 354 q 431 268 431 354 q 382 181 431 181 q 333 268 333 181 q 233 354 333 354 q 132 403 132 354 q 233 451 132 451 q 333 539 333 451 q 382 625 333 625 q 431 539 431 625 q 532 451 431 451 m 146 39 q 382 90 146 90 q 618 39 618 90 q 382 -14 618 -14 q 146 39 146 -14 z "},"≈":{"ha":764,"x_min":111,"x_max":653,"o":"m 604 594 q 653 583 650 594 l 653 497 l 576 417 l 474 417 l 411 446 q 375 472 392 460 q 343 494 358 485 l 300 517 l 242 517 l 204 474 q 158 444 204 444 q 111 456 114 444 l 111 542 l 192 622 l 303 622 l 367 593 q 438 543 407 567 l 478 522 l 558 522 q 604 594 558 594 m 604 349 q 653 338 650 349 l 653 251 l 576 171 l 474 171 l 411 200 q 375 226 392 214 q 343 249 358 239 l 300 271 l 242 271 l 204 228 q 158 199 204 199 q 111 210 114 199 l 111 296 l 192 376 l 303 376 l 367 347 q 438 297 407 321 l 478 276 l 558 276 q 604 349 558 349 z "},"~":{"ha":764,"x_min":310,"x_max":454,"o":"m 454 379 q 382 311 454 311 q 310 379 310 311 q 382 447 310 447 q 454 379 454 447 z "},"¬":{"ha":764,"x_min":97,"x_max":667,"o":"m 667 393 q 611 222 667 222 q 556 340 556 222 q 326 458 556 458 q 97 511 97 458 q 382 563 97 563 q 667 393 667 563 z "},"^":{"ha":764,"x_min":139,"x_max":283,"o":"m 283 767 q 211 699 283 699 q 139 767 139 699 q 211 833 139 833 q 283 767 283 833 z "},"∅":{"ha":764,"x_min":54,"x_max":711,"o":"m 656 656 l 711 506 l 711 314 l 629 139 l 479 36 l 304 36 q 190 -11 239 71 q 142 -67 167 -53 q 100 -70 117 -81 q 83 -31 83 -60 q 108 43 83 -1 q 110 185 160 131 l 54 333 l 54 525 l 136 701 l 286 804 l 463 804 q 576 851 528 768 q 625 907 600 893 q 666 910 650 921 q 682 871 682 900 q 657 797 682 842 q 656 656 606 708 m 154 303 q 206 292 174 276 q 274 352 238 308 q 345 452 311 396 q 405 564 379 508 q 440 658 431 619 q 433 704 449 697 l 313 704 l 210 628 l 154 499 l 154 303 m 451 136 l 556 211 l 611 342 l 611 539 q 560 549 592 565 q 491 488 528 532 q 420 388 454 444 q 360 276 386 331 q 326 182 335 221 q 332 136 317 143 l 451 136 z "},"∞":{"ha":764,"x_min":21,"x_max":742,"o":"m 636 708 l 742 540 l 742 290 l 636 122 l 486 122 l 408 204 q 354 206 381 278 l 276 124 l 126 124 l 21 292 l 21 540 l 126 708 l 276 708 l 354 628 q 408 626 382 554 l 486 708 l 636 708 m 593 222 l 642 331 l 642 501 l 593 608 l 501 608 l 450 513 q 451 317 424 419 l 501 222 l 593 222 m 261 224 l 313 319 q 313 511 340 415 l 261 607 l 169 607 l 121 501 l 121 332 l 169 224 l 261 224 z "},"∫":{"ha":764,"x_min":69,"x_max":696,"o":"m 631 1056 q 696 1000 696 1056 q 631 944 696 944 q 549 945 597 944 q 439 947 501 946 l 439 -36 l 313 -153 l 136 -153 q 69 -97 69 -153 q 136 -42 69 -42 q 217 -42 169 -42 q 328 -44 265 -43 l 328 939 l 454 1056 l 631 1056 z "},"∏":{"ha":764,"x_min":49,"x_max":715,"o":"m 715 850 q 646 796 715 796 q 576 399 576 796 q 521 0 576 0 q 465 399 465 0 q 382 796 465 796 q 299 399 299 796 q 243 0 299 0 q 188 399 188 0 q 118 796 188 796 q 49 850 49 796 q 382 903 49 903 q 715 850 715 903 z "},"∑":{"ha":764,"x_min":90,"x_max":674,"o":"m 674 851 q 449 799 674 799 q 363 619 224 799 q 364 272 503 440 q 450 104 225 104 q 674 53 674 104 q 382 0 674 0 q 90 51 90 0 q 232 272 90 101 q 232 618 372 442 q 90 849 90 793 q 382 903 90 903 q 674 851 674 903 z "},"√":{"ha":764,"x_min":97,"x_max":735,"o":"m 735 851 q 657 799 735 799 q 500 400 579 799 q 368 0 419 0 q 328 38 353 0 q 273 137 303 75 q 213 273 243 199 q 158 422 183 347 q 117 558 133 496 q 99 657 100 619 q 114 694 97 694 q 263 442 172 694 q 418 546 350 190 q 610 903 485 903 q 735 851 735 903 z "},"µ":{"ha":764,"x_min":60,"x_max":736,"o":"m 649 133 l 693 97 q 736 42 736 97 q 642 -14 736 -14 l 538 88 l 538 199 q 533 200 538 215 q 518 136 528 185 l 411 -14 l 215 -14 q 171 -112 171 54 q 115 -278 171 -278 q 60 208 60 -278 q 115 694 60 694 q 171 478 171 694 l 171 97 l 419 97 l 518 217 q 538 492 538 292 q 593 694 538 694 q 649 438 649 694 l 649 133 z "},"∂":{"ha":764,"x_min":71,"x_max":701,"o":"m 701 800 l 701 261 l 629 93 l 485 -14 l 235 -14 l 71 185 l 71 450 l 140 615 l 268 708 l 476 708 q 444 790 538 622 q 186 939 165 892 q 701 800 204 986 m 483 93 l 590 236 l 590 464 l 483 601 l 282 601 l 182 463 l 182 232 l 286 93 l 483 93 z "},"%":{"ha":764,"x_min":28,"x_max":738,"o":"m 563 971 q 565 922 572 968 q 538 799 558 875 q 488 631 517 724 q 425 439 458 538 q 357 249 392 340 q 292 86 322 158 q 239 -27 261 14 q 207 -64 217 -68 q 205 -13 197 -60 q 233 109 213 33 q 282 277 253 185 q 344 468 311 369 q 412 658 378 567 q 476 820 446 749 q 530 933 507 892 q 563 971 553 974 m 110 467 l 28 590 l 28 794 l 110 917 l 260 917 l 342 794 l 342 592 l 258 467 l 110 467 m 239 569 l 239 815 l 131 815 l 131 569 l 239 569 m 506 -14 l 424 110 l 424 313 l 506 436 l 656 436 l 738 313 l 738 110 l 656 -14 l 506 -14 m 635 88 l 635 333 l 526 333 l 526 88 l 635 88 z "},"‰":{"ha":764,"x_min":28,"x_max":738,"o":"m 561 971 q 564 922 571 968 q 536 799 557 875 q 487 631 515 724 q 424 439 458 538 q 356 249 390 340 q 292 86 322 158 q 239 -27 261 14 q 207 -64 217 -68 q 205 -13 197 -60 q 233 109 213 33 q 281 277 253 185 q 344 468 310 369 q 412 658 378 567 q 476 820 446 749 q 528 933 506 892 q 561 971 551 974 m 110 467 l 28 590 l 28 794 l 110 917 l 260 917 l 342 794 l 342 592 l 258 467 l 110 467 m 239 569 l 239 815 l 131 815 l 131 569 l 239 569 m 529 185 l 451 272 l 451 408 l 529 496 l 660 496 l 738 410 l 738 271 l 660 185 l 529 185 m 642 274 l 642 406 l 547 406 l 547 274 l 642 274 m 417 -161 l 339 -74 l 339 64 l 415 150 l 546 150 l 624 64 l 624 -74 l 546 -161 l 417 -161 m 528 -72 l 528 61 l 433 61 l 433 -37 l 458 -72 l 528 -72 z "},"↑":{"ha":764,"x_min":104,"x_max":660,"o":"m 533 835 q 634 722 608 767 q 647 659 660 676 q 593 657 633 642 q 496 724 553 672 q 269 724 382 825 q 172 657 213 672 q 117 659 131 642 q 130 722 104 676 q 231 835 156 767 q 533 835 382 972 m 382 708 q 433 368 433 708 q 382 28 433 28 q 329 368 329 28 q 382 708 329 708 z "},"↗":{"ha":764,"x_min":103,"x_max":661,"o":"m 439 701 q 551 667 507 699 q 620 588 596 635 q 653 488 644 540 q 657 388 661 435 q 640 313 653 342 q 610 283 626 283 q 547 436 556 282 q 388 596 540 588 q 272 618 311 600 q 235 657 232 636 q 288 692 238 678 q 439 701 338 706 m 456 506 q 335 310 493 468 q 139 189 176 151 q 261 385 103 225 q 456 506 419 542 z "},"→":{"ha":764,"x_min":63,"x_max":701,"o":"m 638 539 q 692 435 683 489 q 685 331 701 382 q 638 236 669 279 q 571 163 607 193 q 505 122 535 133 q 463 124 475 111 q 526 275 424 160 q 526 501 628 388 q 460 599 475 558 q 462 652 444 639 q 524 640 479 665 q 638 539 569 614 m 511 389 q 288 336 511 336 q 63 389 63 336 q 288 440 63 440 q 511 389 511 440 z "},"↘":{"ha":764,"x_min":103,"x_max":657,"o":"m 457 319 q 261 440 419 282 q 140 636 103 599 q 336 514 176 672 q 457 319 493 356 m 653 336 q 618 224 650 268 q 539 155 586 179 q 439 122 492 131 q 340 118 386 114 q 264 135 293 122 q 235 165 235 149 q 388 228 233 219 q 547 388 539 235 q 569 503 551 464 q 608 540 588 543 q 643 488 629 538 q 653 336 657 438 z "},"↓":{"ha":764,"x_min":104,"x_max":660,"o":"m 383 164 q 331 504 331 164 q 383 844 331 844 q 435 504 435 844 q 383 164 435 164 m 647 214 q 648 171 660 201 q 606 105 636 140 q 533 38 576 69 q 439 -10 490 7 q 334 -17 388 -26 q 231 38 281 -8 q 130 151 156 107 q 117 213 104 196 q 172 215 131 231 q 269 149 213 200 q 496 149 382 47 q 647 214 608 251 z "},"↙":{"ha":764,"x_min":103,"x_max":661,"o":"m 624 638 q 503 442 661 600 q 307 321 344 283 q 429 515 271 357 q 624 638 588 674 m 217 389 q 376 229 225 236 q 492 207 453 225 q 529 167 532 189 q 477 132 526 146 q 325 124 428 118 q 213 158 257 126 q 144 237 168 189 q 111 338 119 285 q 107 437 103 390 q 124 513 111 483 q 156 542 138 542 q 217 389 208 540 z "},"←":{"ha":764,"x_min":63,"x_max":701,"o":"m 238 501 q 238 275 136 388 q 304 177 289 218 q 302 123 319 136 q 240 135 285 110 q 126 236 196 161 q 72 340 81 286 q 79 444 63 393 q 127 539 96 496 q 194 612 158 582 q 260 653 229 642 q 303 653 290 665 q 238 501 340 614 m 701 389 q 478 336 701 336 q 253 389 253 336 q 478 440 253 440 q 701 389 701 440 z "},"↖":{"ha":764,"x_min":104,"x_max":660,"o":"m 375 604 q 215 444 222 596 q 193 328 211 368 q 153 292 175 289 q 118 344 132 294 q 110 496 104 393 q 144 608 113 564 q 223 677 175 653 q 324 710 271 701 q 423 714 376 718 q 499 697 469 710 q 528 665 528 683 q 375 604 526 613 m 624 197 q 428 318 586 160 q 307 514 269 476 q 501 392 343 550 q 624 197 660 233 z "},"↔":{"ha":764,"x_min":63,"x_max":703,"o":"m 238 501 q 238 275 136 388 q 304 177 289 218 q 302 123 319 136 q 240 135 285 110 q 126 236 196 161 q 72 340 81 286 q 79 444 63 393 q 127 539 96 496 q 194 612 158 582 q 260 653 229 642 q 303 653 290 665 q 238 501 340 614 m 639 539 q 694 435 685 489 q 687 331 703 382 q 640 236 671 279 q 572 163 608 193 q 506 122 536 133 q 464 124 476 111 q 528 275 425 160 q 528 501 629 388 q 461 599 476 558 q 463 652 446 639 q 526 640 481 665 q 639 539 571 614 m 513 389 q 381 336 513 336 q 249 389 249 336 q 381 440 249 440 q 513 389 513 440 z "},"↕":{"ha":764,"x_min":104,"x_max":660,"o":"m 269 724 q 172 656 213 672 q 117 658 131 640 q 130 720 104 675 q 231 833 156 765 q 334 888 281 879 q 439 881 388 897 q 533 834 490 865 q 606 767 576 803 q 648 701 636 731 q 647 658 660 671 q 496 724 608 619 q 269 724 382 825 m 382 711 q 433 438 433 711 q 382 163 433 163 q 329 438 329 163 q 382 711 329 711 m 496 149 q 593 215 553 200 q 647 213 633 231 q 634 151 660 196 q 533 38 608 107 q 430 -17 483 -8 q 325 -10 376 -26 q 231 38 274 7 q 158 105 188 69 q 117 171 128 140 q 118 214 106 201 q 269 149 156 251 q 496 149 382 44 z "},"◊":{"ha":764,"x_min":149,"x_max":617,"o":"m 539 707 q 604 540 592 628 q 599 372 617 453 q 540 231 581 292 q 447 142 500 169 q 337 133 394 114 q 226 231 279 151 q 161 397 174 310 q 167 565 149 485 q 226 706 186 646 q 318 794 265 767 q 428 804 371 822 q 539 707 486 786 m 285 611 q 242 491 246 554 q 260 374 239 428 q 319 290 282 321 q 399 264 356 258 q 482 326 443 269 q 524 446 521 383 q 506 563 528 508 q 448 647 485 617 q 367 673 411 678 q 285 611 324 668 z "},"@":{"ha":764,"x_min":68,"x_max":696,"o":"m 696 732 l 696 625 l 681 533 q 667 479 672 499 q 661 454 663 460 q 654 422 658 440 q 644 385 650 404 l 608 275 l 588 254 l 568 239 q 564 233 565 236 q 561 229 563 231 l 556 218 q 544 214 550 214 l 533 222 q 485 247 532 224 q 485 350 485 304 q 489 449 486 396 l 489 488 q 497 522 494 510 q 500 538 499 535 l 507 560 q 488 532 506 557 q 467 475 467 476 l 467 472 q 465 469 467 472 q 461 460 464 467 q 447 413 456 439 q 429 356 439 388 l 403 290 q 382 261 393 276 q 360 229 371 246 q 264 117 293 150 q 242 90 250 99 q 235 82 235 82 q 231 81 235 81 q 229 144 231 114 q 224 213 228 175 l 224 288 q 228 313 225 294 q 233 358 231 331 q 261 454 251 419 q 276 509 271 489 q 286 546 282 529 q 294 585 292 572 q 297 600 297 599 l 297 614 q 296 624 296 619 q 296 633 296 629 l 303 633 l 311 629 q 319 626 311 629 l 354 621 q 364 617 358 619 q 375 611 369 614 l 435 574 q 465 615 446 567 q 484 635 472 622 q 511 667 496 649 l 547 667 l 563 632 l 563 567 q 553 521 557 538 q 547 499 550 504 q 543 440 543 489 q 542 399 542 417 q 540 368 542 381 q 556 319 540 311 q 581 389 572 326 q 590 453 586 431 q 599 497 593 475 q 614 560 604 519 l 628 636 l 628 715 q 618 748 622 735 q 611 767 614 761 l 610 776 l 604 778 q 598 782 600 781 q 594 785 596 783 l 572 800 q 542 808 539 811 l 525 810 l 508 810 q 469 804 490 807 q 425 799 449 801 q 367 774 394 785 q 315 753 339 763 l 210 649 q 160 482 200 611 l 136 288 l 136 75 l 157 4 l 186 -42 q 190 -46 189 -46 q 188 -42 190 -46 l 207 -46 q 228 -58 219 -53 q 242 -67 236 -64 l 299 -67 l 336 -22 q 389 47 363 14 l 404 78 q 413 95 406 81 q 432 119 419 110 q 461 111 444 128 q 488 89 485 86 l 483 81 q 483 76 483 79 q 485 67 483 74 l 474 39 q 462 18 469 32 q 443 -15 454 4 q 397 -65 404 -58 l 385 -81 q 343 -131 379 -90 l 299 -167 l 244 -167 l 219 -162 q 201 -149 206 -151 l 164 -132 l 139 -112 q 135 -96 138 -106 q 129 -76 132 -86 l 115 -42 q 108 -17 114 -35 q 90 31 101 1 l 68 114 l 68 297 l 97 522 q 130 632 117 586 q 150 706 143 678 l 282 842 q 328 861 310 853 q 356 872 347 869 q 368 877 363 875 q 375 881 374 879 l 418 900 q 453 906 433 903 q 500 911 474 908 l 540 911 q 560 907 550 910 q 579 901 569 904 l 600 890 l 624 872 q 635 865 629 869 q 649 854 642 860 l 665 821 l 676 786 q 683 769 678 782 q 696 732 688 756 m 354 307 l 385 389 q 414 476 408 460 q 401 500 418 488 q 363 517 383 513 q 333 507 342 522 q 329 484 332 500 q 324 444 326 468 q 304 382 314 411 q 286 326 294 353 q 280 286 281 299 q 279 251 279 274 q 311 257 283 225 q 336 285 325 272 q 354 307 347 297 z "},"&":{"ha":764,"x_min":50,"x_max":714,"o":"m 714 469 q 653 417 714 417 q 592 107 592 417 q 543 -203 592 -203 q 494 -37 494 -203 q 456 -14 494 125 l 229 -14 l 114 53 l 50 169 l 50 342 l 169 460 q 223 474 222 467 q 172 486 224 481 l 64 579 l 64 740 l 131 853 l 251 917 l 436 917 l 564 796 q 515 686 564 686 q 467 747 467 686 l 392 813 l 258 813 l 175 735 l 175 603 l 269 521 l 532 521 q 714 469 714 521 m 494 332 q 422 417 494 417 l 261 417 l 161 326 l 161 178 l 247 90 l 392 90 l 494 181 l 494 332 z "},"¶":{"ha":764,"x_min":65,"x_max":701,"o":"m 701 451 q 647 0 701 0 q 593 186 593 0 q 556 372 593 372 q 518 186 518 372 q 464 0 518 0 q 410 186 410 0 q 381 372 410 372 l 274 372 l 143 438 l 65 558 l 65 717 l 143 838 l 274 903 l 526 903 q 701 451 701 903 m 593 638 q 476 796 593 796 l 275 796 l 176 719 l 176 556 l 275 479 l 476 479 q 593 638 593 479 z "},"§":{"ha":764,"x_min":115,"x_max":643,"o":"m 579 288 l 643 208 l 643 58 l 518 -50 l 304 -50 l 171 39 l 115 151 q 171 188 119 188 q 236 131 221 188 l 329 57 l 471 57 l 532 106 l 532 179 l 496 218 l 438 242 q 365 263 407 250 q 265 292 322 275 l 125 392 l 125 526 l 199 604 q 197 647 278 613 l 125 725 l 125 872 l 256 986 l 481 986 l 611 865 q 565 763 614 763 q 507 822 517 763 l 431 876 l 303 876 l 236 828 l 236 758 l 276 719 l 336 697 q 404 677 368 688 q 479 656 440 667 l 578 610 l 643 525 l 643 403 l 576 328 q 579 288 511 322 m 236 453 l 279 411 l 340 385 q 472 361 419 356 l 532 418 l 532 501 l 472 542 q 410 564 433 556 q 379 575 388 572 q 351 577 369 578 q 301 574 332 576 l 236 522 l 236 453 z "},"©":{"ha":764,"x_min":25,"x_max":740,"o":"m 279 75 l 117 178 l 25 356 l 25 567 l 115 743 l 279 846 l 488 846 l 650 743 l 740 567 l 740 356 l 650 178 l 486 75 l 279 75 m 460 175 l 576 251 l 640 382 l 640 540 l 576 669 l 460 746 l 306 746 l 189 669 l 125 540 l 125 382 l 189 251 l 307 175 l 460 175 m 543 361 l 456 271 l 315 271 l 222 378 l 222 542 l 317 650 l 456 650 l 542 561 q 500 488 544 488 q 446 558 457 488 l 353 558 l 315 504 l 315 415 l 351 363 l 449 363 q 500 435 457 435 q 543 361 543 435 z "},"®":{"ha":764,"x_min":25,"x_max":740,"o":"m 279 146 l 117 249 l 25 426 l 25 638 l 115 814 l 279 917 l 488 917 l 650 814 l 740 638 l 740 426 l 650 249 l 486 146 l 279 146 m 460 246 l 576 322 l 640 453 l 640 611 l 576 740 l 460 817 l 306 817 l 189 740 l 125 611 l 125 453 l 189 322 l 307 246 l 460 246 m 260 539 q 321 721 260 721 l 458 721 l 529 661 l 529 567 l 497 515 q 494 503 457 508 l 524 463 l 524 393 q 478 357 524 357 q 432 393 432 357 l 432 449 l 403 468 l 360 468 q 351 413 351 468 q 306 357 351 357 q 260 539 260 357 m 365 551 l 407 551 l 438 575 q 439 601 439 586 q 439 635 439 617 l 365 635 q 350 593 350 635 q 365 551 350 551 z "},"™":{"ha":764,"x_min":133,"x_max":633,"o":"m 564 851 q 501 799 564 799 q 439 678 439 799 q 383 556 439 556 q 328 678 328 556 q 265 799 328 799 q 203 851 203 799 q 383 903 203 903 q 564 851 564 903 m 578 556 q 633 382 633 556 q 579 208 633 208 q 525 300 525 208 q 482 300 524 388 q 383 208 439 208 q 286 299 328 208 q 243 299 243 386 q 188 208 240 208 q 133 382 133 208 q 189 556 133 556 q 314 432 244 556 q 384 354 358 354 q 453 432 410 354 q 578 556 522 556 z "},"°":{"ha":764,"x_min":208,"x_max":556,"o":"m 310 571 l 208 674 l 208 818 l 310 919 l 454 919 l 556 818 l 556 674 l 454 571 l 310 571 m 417 660 l 465 710 l 465 781 l 417 831 l 347 831 l 299 781 l 299 710 l 347 660 l 417 660 z "},"|":{"ha":764,"x_min":333,"x_max":431,"o":"m 382 1111 q 431 444 431 1111 q 382 -222 431 -222 q 333 444 333 -222 q 382 1111 333 1111 z "},"¦":{"ha":764,"x_min":333,"x_max":431,"o":"m 431 872 q 382 632 431 632 q 333 872 333 632 q 382 1111 333 1111 q 431 872 431 1111 m 431 18 q 382 -222 431 -222 q 333 18 333 -222 q 382 257 333 257 q 431 18 431 257 z "},"†":{"ha":764,"x_min":111,"x_max":653,"o":"m 653 643 q 546 590 653 590 q 438 157 438 590 q 382 -278 438 -278 q 326 157 326 -278 q 219 590 326 590 q 111 643 111 590 q 219 694 111 694 q 326 833 326 694 q 382 972 326 972 q 438 833 438 972 q 546 694 438 694 q 653 643 653 694 z "},"‡":{"ha":764,"x_min":111,"x_max":653,"o":"m 546 590 q 438 353 438 590 q 546 114 438 114 q 653 63 653 114 q 546 10 653 10 q 438 -133 438 10 q 382 -278 438 -278 q 326 -133 326 -278 q 219 10 326 10 q 111 63 111 10 q 219 114 111 114 q 326 353 326 114 q 219 590 326 590 q 111 643 111 590 q 219 694 111 694 q 326 833 326 694 q 382 972 326 972 q 438 833 438 972 q 546 694 438 694 q 653 643 653 694 q 546 590 653 590 z "},"̈":{"ha":0,"x_min":139,"x_max":531,"o":"m 283 904 q 211 836 283 836 q 139 904 139 836 q 211 972 139 972 q 283 904 283 972 m 531 904 q 458 836 531 836 q 386 904 386 836 q 458 972 386 972 q 531 904 531 972 z "},"̇":{"ha":0,"x_min":139,"x_max":283,"o":"m 283 906 q 211 838 283 838 q 139 906 139 838 q 211 972 139 972 q 283 906 283 972 z "},"̀":{"ha":0,"x_min":131,"x_max":464,"o":"m 453 835 q 394 838 440 818 q 274 908 349 858 q 165 994 200 957 q 142 1049 131 1032 q 200 1044 154 1065 q 322 975 246 1024 q 430 889 396 926 q 453 835 464 851 z "},"́":{"ha":0,"x_min":131,"x_max":464,"o":"m 272 975 q 394 1044 349 1024 q 453 1049 440 1065 q 429 994 464 1032 q 321 908 394 957 q 200 838 246 858 q 142 835 154 818 q 165 889 131 851 q 272 975 199 926 z "},"̋":{"ha":0,"x_min":131,"x_max":749,"o":"m 557 975 q 679 1044 633 1024 q 738 1049 725 1065 q 714 994 749 1032 q 606 908 679 957 q 485 838 531 858 q 426 835 439 818 q 449 889 415 851 q 557 975 483 926 m 272 975 q 394 1044 349 1024 q 453 1049 440 1065 q 429 994 464 1032 q 321 908 394 957 q 200 838 246 858 q 142 835 154 818 q 165 889 131 851 q 272 975 199 926 z "},"̂":{"ha":0,"x_min":132,"x_max":636,"o":"m 528 968 q 615 875 593 910 q 624 831 636 840 q 578 838 613 822 q 497 894 543 853 q 418 948 453 935 q 349 948 383 961 q 271 894 315 935 q 190 837 225 853 q 144 831 156 821 q 153 875 132 840 q 239 968 174 910 q 383 1038 315 1038 q 528 968 451 1038 z "},"̌":{"ha":0,"x_min":132,"x_max":636,"o":"m 528 910 q 383 842 451 842 q 239 910 315 842 q 153 1003 174 968 q 144 1047 132 1038 q 190 1041 156 1057 q 271 983 225 1025 q 349 930 315 943 q 418 930 383 917 q 497 983 453 943 q 578 1040 543 1025 q 624 1047 613 1056 q 615 1003 636 1038 q 528 910 593 968 z "},"̆":{"ha":0,"x_min":139,"x_max":607,"o":"m 447 929 l 496 979 q 510 1014 496 1000 q 551 1028 524 1028 q 593 1013 579 1028 q 607 974 607 997 l 536 890 l 453 839 l 293 839 l 210 890 l 139 974 q 153 1013 139 997 q 194 1028 167 1028 q 236 1014 222 1028 q 250 979 250 1000 l 297 929 l 447 929 z "},"̊":{"ha":0,"x_min":139,"x_max":486,"o":"m 240 832 l 139 921 l 139 1038 l 240 1125 l 385 1125 l 486 1038 l 486 921 l 385 832 l 240 832 m 343 908 l 401 947 l 401 1011 l 343 1049 l 282 1049 l 224 1011 l 224 947 l 282 908 l 343 908 z "},"̃":{"ha":0,"x_min":139,"x_max":681,"o":"m 632 1008 q 681 997 678 1008 l 681 911 l 604 844 l 501 844 l 439 860 q 403 886 419 874 q 371 908 386 899 l 328 944 l 269 944 l 232 888 q 186 858 232 858 q 139 869 142 858 l 139 956 l 219 1022 l 331 1022 l 394 1007 q 465 957 435 981 l 506 922 l 586 922 q 598 983 586 958 q 632 1008 610 1008 z "},"̄":{"ha":0,"x_min":139,"x_max":556,"o":"m 347 971 q 556 929 556 971 q 347 888 556 888 q 139 929 139 888 q 347 971 139 971 z "},"̒":{"ha":0,"x_min":139,"x_max":289,"o":"m 269 1031 q 274 1013 278 1015 l 247 988 l 221 942 q 254 904 221 913 q 289 829 289 899 q 214 763 289 763 q 139 808 139 763 l 139 936 l 203 1025 q 269 1031 263 1046 z "},"̦":{"ha":0,"x_min":139,"x_max":289,"o":"m 158 -336 q 154 -318 150 -321 l 181 -293 l 207 -247 q 174 -210 207 -218 q 139 -135 139 -204 q 214 -68 139 -68 q 289 -114 289 -68 l 289 -242 l 225 -331 q 158 -336 165 -351 z "},"̧":{"ha":0,"x_min":139,"x_max":461,"o":"m 329 -75 q 297 -11 300 -37 q 308 24 293 15 q 351 17 324 32 q 408 -43 378 1 l 461 -119 l 461 -251 l 376 -333 l 232 -333 l 139 -247 q 189 -185 146 -185 q 232 -206 232 -185 l 265 -243 l 367 -243 l 367 -122 l 329 -75 z "},"̨":{"ha":0,"x_min":139,"x_max":461,"o":"m 192 -43 q 269 43 236 19 q 318 58 303 67 q 324 14 333 49 q 271 -75 314 -21 l 233 -122 l 233 -243 l 335 -243 l 368 -206 q 411 -185 368 -185 q 461 -247 456 -185 l 368 -333 l 224 -333 l 139 -251 l 139 -119 l 192 -43 z "},"¨":{"ha":764,"x_min":139,"x_max":531,"o":"m 283 904 q 211 836 283 836 q 139 904 139 836 q 211 972 139 972 q 283 904 283 972 m 531 904 q 458 836 531 836 q 386 904 386 836 q 458 972 386 972 q 531 904 531 972 z "},"˙":{"ha":764,"x_min":139,"x_max":283,"o":"m 283 906 q 211 838 283 838 q 139 906 139 838 q 211 972 139 972 q 283 906 283 972 z "},"`":{"ha":764,"x_min":131,"x_max":464,"o":"m 453 835 q 394 838 440 818 q 274 908 349 858 q 165 994 200 957 q 142 1049 131 1032 q 200 1044 154 1065 q 322 975 246 1024 q 430 889 396 926 q 453 835 464 851 z "},"´":{"ha":764,"x_min":131,"x_max":464,"o":"m 272 975 q 394 1044 349 1024 q 453 1049 440 1065 q 429 994 464 1032 q 321 908 394 957 q 200 838 246 858 q 142 835 154 818 q 165 889 131 851 q 272 975 199 926 z "},"˝":{"ha":764,"x_min":131,"x_max":749,"o":"m 557 975 q 679 1044 633 1024 q 738 1049 725 1065 q 714 994 749 1032 q 606 908 679 957 q 485 838 531 858 q 426 835 439 818 q 449 889 415 851 q 557 975 483 926 m 272 975 q 394 1044 349 1024 q 453 1049 440 1065 q 429 994 464 1032 q 321 908 394 957 q 200 838 246 858 q 142 835 154 818 q 165 889 131 851 q 272 975 199 926 z "},"ˆ":{"ha":764,"x_min":132,"x_max":636,"o":"m 528 968 q 615 875 593 910 q 624 831 636 840 q 578 838 613 822 q 497 894 543 853 q 418 948 453 935 q 349 948 383 961 q 271 894 315 935 q 190 837 225 853 q 144 831 156 821 q 153 875 132 840 q 239 968 174 910 q 383 1038 315 1038 q 528 968 451 1038 z "},"ˇ":{"ha":764,"x_min":132,"x_max":636,"o":"m 528 910 q 383 842 451 842 q 239 910 315 842 q 153 1003 174 968 q 144 1047 132 1038 q 190 1041 156 1057 q 271 983 225 1025 q 349 930 315 943 q 418 930 383 917 q 497 983 453 943 q 578 1040 543 1025 q 624 1047 613 1056 q 615 1003 636 1038 q 528 910 593 968 z "},"˘":{"ha":764,"x_min":139,"x_max":607,"o":"m 447 929 l 496 979 q 510 1014 496 1000 q 551 1028 524 1028 q 593 1013 579 1028 q 607 974 607 997 l 536 890 l 453 839 l 293 839 l 210 890 l 139 974 q 153 1013 139 997 q 194 1028 167 1028 q 236 1014 222 1028 q 250 979 250 1000 l 297 929 l 447 929 z "},"˚":{"ha":764,"x_min":139,"x_max":486,"o":"m 240 832 l 139 921 l 139 1038 l 240 1125 l 385 1125 l 486 1038 l 486 921 l 385 832 l 240 832 m 343 908 l 401 947 l 401 1011 l 343 1049 l 282 1049 l 224 1011 l 224 947 l 282 908 l 343 908 z "},"˜":{"ha":764,"x_min":139,"x_max":681,"o":"m 632 1008 q 681 997 678 1008 l 681 911 l 604 844 l 501 844 l 439 860 q 403 886 419 874 q 371 908 386 899 l 328 944 l 269 944 l 232 888 q 186 858 232 858 q 139 869 142 858 l 139 956 l 219 1022 l 331 1022 l 394 1007 q 465 957 435 981 l 506 922 l 586 922 q 598 983 586 958 q 632 1008 610 1008 z "},"¯":{"ha":764,"x_min":139,"x_max":556,"o":"m 347 971 q 556 929 556 971 q 347 888 556 888 q 139 929 139 888 q 347 971 139 971 z "},"¸":{"ha":764,"x_min":139,"x_max":461,"o":"m 329 -75 q 297 -11 300 -37 q 308 24 293 15 q 351 17 324 32 q 408 -43 378 1 l 461 -119 l 461 -251 l 376 -333 l 232 -333 l 139 -247 q 189 -185 146 -185 q 232 -206 232 -185 l 265 -243 l 367 -243 l 367 -122 l 329 -75 z "},"˛":{"ha":764,"x_min":139,"x_max":461,"o":"m 192 -43 q 269 43 236 19 q 318 58 303 67 q 324 14 333 49 q 271 -75 314 -21 l 233 -122 l 233 -243 l 335 -243 l 368 -206 q 411 -185 368 -185 q 461 -247 456 -185 l 368 -333 l 224 -333 l 139 -251 l 139 -119 l 192 -43 z "}}}
